<svg width="150" height="150" viewBox="0 0 150 150" fill="none" xmlns="http://www.w3.org/2000/svg">
<path d="M118.229 126.267V140.624C118.229 142.293 117.666 143.69 116.539 144.815C115.414 145.942 114.017 146.505 112.348 146.505C110.679 146.505 109.281 145.942 108.156 144.815C107.029 143.69 106.466 142.293 106.466 140.624V115.619C106.466 112.955 107.384 110.706 109.219 108.871C111.054 107.036 113.303 106.118 115.967 106.118H140.971C142.64 106.118 144.038 106.682 145.163 107.808C146.29 108.934 146.853 110.331 146.853 112C146.853 113.669 146.29 115.066 145.163 116.192C144.038 117.318 142.64 117.882 140.971 117.882H126.418L147.457 138.92C148.542 140.005 149.084 141.349 149.084 142.953C149.084 144.557 148.542 145.942 147.457 147.109C146.29 148.325 144.892 148.92 143.263 148.895C141.635 148.87 140.237 148.275 139.072 147.109L118.229 126.267ZM75.0977 149.25C64.8023 149.25 55.1232 147.292 46.0603 143.376C36.9961 139.46 29.1109 134.149 22.4046 127.443C15.6983 120.737 10.3872 112.852 6.47139 103.787C2.55557 94.7245 0.597656 85.0454 0.597656 74.75C0.597656 64.4546 2.55557 54.7755 6.47139 45.7126C10.3872 36.6485 15.6983 28.7632 22.4046 22.0569C29.1109 15.3506 36.9961 10.0396 46.0603 6.12374C55.1232 2.20792 64.8023 0.25 75.0977 0.25C85.393 0.25 95.0722 2.20792 104.135 6.12374C113.199 10.0396 121.084 15.3506 127.791 22.0569C134.497 28.7632 139.808 36.6485 143.724 45.7126C147.64 54.7755 149.598 64.4546 149.598 74.75C149.598 76.1067 149.565 77.5692 149.5 79.1377C149.434 80.7061 149.311 82.1693 149.129 83.5273C148.919 85.1963 148.217 86.5132 147.025 87.4777C145.835 88.4436 144.364 88.9266 142.614 88.9266C141.076 88.9266 139.764 88.2626 138.679 86.9347C137.593 85.608 137.156 84.1507 137.368 82.5627C137.629 81.2047 137.772 79.9023 137.797 78.6554C137.822 77.4085 137.835 76.1067 137.835 74.75C137.835 71.885 137.646 69.0324 137.27 66.1923C136.892 63.3508 136.301 60.5231 135.498 57.7091H106.345C106.837 60.5231 107.195 63.3508 107.417 66.1923C107.638 69.0324 107.748 71.885 107.748 74.75C107.748 76.1067 107.736 77.5496 107.711 79.0788C107.685 80.6068 107.606 82.049 107.476 83.4057C107.265 85.0748 106.577 86.4119 105.409 87.417C104.243 88.4234 102.826 88.9266 101.157 88.9266C99.6186 88.9266 98.2743 88.3031 97.1242 87.0562C95.9727 85.8093 95.5022 84.3919 95.7126 82.8038C95.8433 81.4458 95.9217 80.1035 95.9479 78.7769C95.9727 77.449 95.9851 76.1067 95.9851 74.75C95.9851 71.885 95.8747 69.0324 95.6538 66.1923C95.4316 63.3508 95.0748 60.5231 94.5833 57.7091H55.612C55.1205 60.5231 54.7637 63.3508 54.5415 66.1923C54.3207 69.0324 54.2102 71.885 54.2102 74.75C54.2102 77.615 54.3207 80.4676 54.5415 83.3077C54.7637 86.1492 55.1205 88.9769 55.612 91.7909H78.5658C80.2349 91.7909 81.6327 92.3542 82.7594 93.4809C83.8847 94.6062 84.4474 96.0034 84.4474 97.6725C84.4474 99.3415 83.8847 100.739 82.7594 101.866C81.6327 102.991 80.2349 103.554 78.5658 103.554H58.3116C60.0317 109.727 62.2712 115.647 65.0304 121.312C67.7908 126.978 71.1465 132.314 75.0977 137.32C76.5053 137.32 77.913 137.328 79.3206 137.344C80.7283 137.358 82.1105 137.275 83.4671 137.095C85.0865 136.883 86.4387 137.3 87.5235 138.346C88.6096 139.391 89.1527 140.724 89.1527 142.343C89.1527 144.092 88.7031 145.55 87.8038 146.717C86.9033 147.883 85.6185 148.571 83.9494 148.781C82.5928 148.963 81.1302 149.087 79.5618 149.152C77.9934 149.217 76.5053 149.25 75.0977 149.25ZM14.6978 91.7909H43.8508C43.358 88.9769 43.0006 86.1492 42.7784 83.3077C42.5575 80.4676 42.447 77.615 42.447 74.75C42.447 71.885 42.5575 69.0324 42.7784 66.1923C43.0006 63.3508 43.358 60.5231 43.8508 57.7091H14.6978C13.8939 60.5231 13.3032 63.3508 12.9254 66.1923C12.549 69.0324 12.3608 71.885 12.3608 74.75C12.3608 77.615 12.549 80.4676 12.9254 83.3077C13.3032 86.1492 13.8939 88.9769 14.6978 91.7909ZM59.9114 135.315C56.755 130.418 54.0429 125.311 51.7752 119.993C49.5076 114.675 47.6601 109.195 46.2328 103.554H19.6304C23.7214 111.628 29.271 118.439 36.2792 123.989C43.2875 129.54 51.1649 133.315 59.9114 135.315ZM19.6304 45.946H46.2328C47.5594 40.2552 49.3442 34.7507 51.587 29.4324C53.8286 24.1129 56.6034 19.0305 59.9114 14.1854C51.1139 16.1355 43.2241 19.8853 36.242 25.4349C29.2586 30.9845 23.7214 37.8215 19.6304 45.946ZM58.3116 45.946H91.8837C90.2146 39.7729 87.962 33.8789 85.1258 28.264C82.2908 22.6477 78.9481 17.2863 75.0977 12.1798C71.1962 17.1857 67.8404 22.5216 65.0304 28.1875C62.2203 33.8534 59.9807 39.7729 58.3116 45.946ZM103.962 45.946H130.565C126.474 37.8215 120.937 30.9721 113.953 25.3977C106.971 19.8219 99.0814 16.0845 90.2839 14.1854C93.4403 19.0815 96.1145 24.2011 98.3064 29.5442C100.498 34.8886 102.384 40.3558 103.962 45.946Z" fill="white"/>
</svg>
