<svg width="150" height="138" viewBox="0 0 150 138" fill="none" xmlns="http://www.w3.org/2000/svg">
<path d="M10.7884 50.7456C10.7884 58.0414 12.0448 65.2675 14.5578 72.424C17.0708 79.5804 20.8506 86.2013 25.8972 92.2868C26.8605 93.4081 27.3674 94.6933 27.4177 96.1424C27.4668 97.5915 26.9696 98.8374 25.9262 99.88C24.8841 100.921 23.625 101.365 22.149 101.212C20.6743 101.058 19.4553 100.421 18.4919 99.2993C12.4523 92.1416 7.95965 84.4561 5.01408 76.2429C2.0698 68.0296 0.597656 59.5305 0.597656 50.7456C0.597656 41.9607 2.0698 33.4617 5.01408 25.2484C7.95965 17.0352 12.4523 9.34967 18.4919 2.19194C19.4553 1.0706 20.6743 0.433155 22.149 0.2796C23.625 0.126045 24.8841 0.569936 25.9262 1.61127C26.9696 2.6539 27.4668 3.89976 27.4177 5.34885C27.3674 6.79795 26.8605 8.08316 25.8972 9.2045C20.8506 15.2899 17.0708 21.9108 14.5578 29.0673C12.0448 36.2237 10.7884 43.4498 10.7884 50.7456ZM36.3571 50.7456C36.3571 54.7858 37.0002 58.8279 38.2864 62.872C39.5726 66.9173 41.6316 70.6917 44.4636 74.195C45.2978 75.3177 45.7272 76.5713 45.7517 77.9558C45.7762 79.3404 45.2674 80.5534 44.2253 81.5947C43.1819 82.6373 41.9674 83.1264 40.5818 83.0619C39.1962 82.9973 38.0462 82.4044 37.1319 81.2831C33.5161 76.7861 30.7843 71.9098 28.9364 66.6541C27.0897 61.3983 26.1664 56.0955 26.1664 50.7456C26.1664 45.3957 27.0897 40.0929 28.9364 34.8372C30.7843 29.5815 33.5161 24.7052 37.1319 20.2082C38.0462 19.0869 39.1962 18.4939 40.5818 18.4294C41.9674 18.3649 43.1819 18.8539 44.2253 19.8966C45.2674 20.9379 45.7562 22.1638 45.6917 23.5741C45.6271 24.9832 45.1532 26.2484 44.2699 27.3698C41.6174 30.7441 39.6352 34.434 38.3232 38.4393C37.0125 42.4446 36.3571 46.5467 36.3571 50.7456ZM57.4552 121.765L53.6703 133.408C53.2532 134.531 52.5604 135.451 51.5918 136.17C50.6233 136.89 49.5386 137.25 48.3376 137.25C46.3502 137.25 44.8206 136.498 43.7488 134.995C42.6757 133.49 42.4271 131.785 43.0031 129.879L64.8915 64.2191C62.7259 62.6616 61.0297 60.6944 59.8029 58.3176C58.5761 55.9394 57.9627 53.4154 57.9627 50.7456C57.9627 45.9712 59.624 41.924 62.9467 38.6038C66.2693 35.2837 70.3197 33.6236 75.0977 33.6236C79.8757 33.6236 83.926 35.2837 87.2486 38.6038C90.5713 41.924 92.2326 45.9712 92.2326 50.7456C92.2326 53.4154 91.6444 55.9142 90.468 58.2421C89.2903 60.5699 87.5689 62.5623 85.3039 64.2191L107.192 129.879C107.768 131.656 107.54 133.329 106.507 134.898C105.473 136.466 103.964 137.25 101.978 137.25C100.776 137.25 99.683 136.91 98.7003 136.23C97.7163 135.55 97.0158 134.609 96.5987 133.408L92.8583 121.765H57.4552ZM61.3002 110.152H88.8951L75.0977 68.76L61.3002 110.152ZM113.838 50.7456C113.838 46.8551 113.183 42.8498 111.872 38.7296C110.56 34.6107 108.513 30.7996 105.732 27.2962C104.898 26.1736 104.468 24.92 104.444 23.5354C104.419 22.1509 104.928 20.9379 105.97 19.8966C107.013 18.8539 108.248 18.3649 109.674 18.4294C111.099 18.4939 112.229 19.0869 113.063 20.2082C116.599 24.7052 119.271 29.5938 121.079 34.874C122.887 40.1542 123.87 45.4693 124.029 50.8192C124.029 56.1704 123.118 61.4609 121.296 66.6908C119.472 71.922 116.728 76.7861 113.063 81.2831C112.149 82.4044 110.999 82.9973 109.614 83.0619C108.228 83.1264 107.013 82.6373 105.97 81.5947C104.928 80.5534 104.439 79.3275 104.504 77.9171C104.568 76.508 105.042 75.2428 105.925 74.1215C108.578 70.7471 110.56 67.0573 111.872 63.052C113.183 59.0466 113.838 54.9445 113.838 50.7456ZM139.407 50.7456C139.407 43.4498 138.15 36.2237 135.637 29.0673C133.125 21.9108 129.345 15.2899 124.298 9.2045C123.335 8.08316 122.828 6.79795 122.778 5.34885C122.729 3.89976 123.226 2.6539 124.269 1.61127C125.311 0.569936 126.57 0.126045 128.046 0.2796C129.521 0.433155 130.74 1.0706 131.703 2.19194C137.743 9.34967 142.236 17.0352 145.181 25.2484C148.126 33.4617 149.598 41.9607 149.598 50.7456C149.598 59.5305 148.197 68.0296 145.396 76.2429C142.595 84.4561 138.07 92.1416 131.822 99.2993C130.779 100.421 129.54 101.078 128.104 101.272C126.67 101.465 125.391 101.001 124.269 99.88C123.226 98.8374 122.729 97.5915 122.778 96.1424C122.828 94.6933 123.335 93.4081 124.298 92.2868C129.345 86.2013 133.125 79.5804 135.637 72.424C138.15 65.2675 139.407 58.0414 139.407 50.7456Z" fill="white"/>
</svg>
