<svg width="150" height="150" viewBox="0 0 150 150" fill="none" xmlns="http://www.w3.org/2000/svg">
<path d="M44.1517 74.75L58.5959 60.3058C59.8989 59.0013 60.565 57.4755 60.5943 55.7284C60.622 53.9813 59.9559 52.4278 58.5959 51.0678C57.2359 49.7092 55.6743 49.03 53.9112 49.03C52.1465 49.03 50.5842 49.7092 49.2242 51.0678L31.0879 69.2041C30.2684 70.0251 29.6899 70.8906 29.3525 71.8007C29.015 72.7107 28.8463 73.6938 28.8463 74.75C28.8463 75.8061 29.015 76.7893 29.3525 77.6993C29.6899 78.6094 30.2684 79.4749 31.0879 80.2959L49.3097 98.5155C50.6127 99.8185 52.1604 100.485 53.9528 100.514C55.7452 100.542 57.3214 99.8755 58.6814 98.5155C60.0399 97.1555 60.7192 95.6158 60.7192 93.8965C60.7192 92.1786 60.0399 90.6397 58.6814 89.2797L44.1517 74.75ZM106.044 74.75L91.5139 89.2797C90.2109 90.5827 89.5455 92.1078 89.5178 93.8549C89.49 95.602 90.1554 97.1555 91.5139 98.5155C92.8739 99.8755 94.4362 100.555 96.2009 100.555C97.964 100.555 99.5256 99.8755 100.886 98.5155L119.107 80.2959C119.927 79.4749 120.505 78.6094 120.843 77.6993C121.18 76.7893 121.349 75.8061 121.349 74.75C121.349 73.6938 121.18 72.7107 120.843 71.8007C120.505 70.8906 119.927 70.0251 119.107 69.2041L100.886 50.9845C100.234 50.333 99.5008 49.8444 98.6857 49.5186C97.872 49.1928 97.0576 49.03 96.2425 49.03C95.4274 49.03 94.5984 49.1928 93.7555 49.5186C92.9141 49.8444 92.1669 50.333 91.5139 50.9845C90.1554 52.3445 89.4762 53.8842 89.4762 55.6035C89.4762 57.3214 90.1554 58.8603 91.5139 60.2203L106.044 74.75ZM16.4421 149.25C12.0144 149.25 8.26677 147.716 5.19913 144.649C2.13148 141.581 0.597656 137.833 0.597656 133.406V16.0944C0.597656 11.6668 2.13148 7.91912 5.19913 4.85147C8.26677 1.78382 12.0144 0.25 16.4421 0.25H133.753C138.181 0.25 141.929 1.78382 144.996 4.85147C148.064 7.91912 149.598 11.6668 149.598 16.0944V133.406C149.598 137.833 148.064 141.581 144.996 144.649C141.929 147.716 138.181 149.25 133.753 149.25H16.4421ZM16.4421 136.103H133.753C134.428 136.103 135.046 135.822 135.607 135.259C136.169 134.698 136.451 134.08 136.451 133.406V16.0944C136.451 15.4195 136.169 14.8016 135.607 14.2407C135.046 13.6783 134.428 13.3971 133.753 13.3971H16.4421C15.7672 13.3971 15.1493 13.6783 14.5883 14.2407C14.0259 14.8016 13.7447 15.4195 13.7447 16.0944V133.406C13.7447 134.08 14.0259 134.698 14.5883 135.259C15.1493 135.822 15.7672 136.103 16.4421 136.103Z" fill="white"/>
</svg>
