<?xml version="1.0" encoding="UTF-8"?>
<svg id="Layer_2" data-name="Layer 2" xmlns="http://www.w3.org/2000/svg" viewBox="0 0 162.36 180.3">
  <defs>
    <style>
      .cls-1 {
        fill: red;
      }
    </style>
  </defs>
  <g id="Layer_1-2" data-name="Layer 1">
    <g>
      <path class="cls-1" d="M162.36,31.84s0,0,0,0C162.36,14.25,126.02,0,81.18,0S0,14.25,0,31.84h0v24.68h0C0,74.1,36.35,88.36,81.18,88.36s81.18-14.25,81.18-31.84c0,0,0,0,0,0v-24.68Z"/>
      <path class="cls-1" d="M162.36,71.23c0,17.58-36.35,31.84-81.18,31.84S0,88.81,0,71.23H0s0,0,0,0v31.84h0C0,120.65,36.35,134.9,81.18,134.9s81.18-14.25,81.18-31.84c0,0,0,0,0,0v-31.84Z"/>
      <path class="cls-1" d="M162.36,116.62c0,17.58-36.35,31.84-81.18,31.84S0,134.2,0,116.62H0s0,0,0,0v31.84h0C0,166.04,36.35,180.3,81.18,180.3s81.18-14.25,81.18-31.84c0,0,0,0,0,0v-31.84Z"/>
    </g>
  </g>
</svg>