<svg width="184" height="88" viewBox="0 0 184 88" fill="none" xmlns="http://www.w3.org/2000/svg">
<path d="M36.1777 13.2261L30.7379 37H21.4701L18.7166 23.5013L15.9632 37H6.69539L1.25561 13.2261H9.28097L11.43 28.2023L14.6536 13.2261H22.7797L26.0033 28.2023L28.1523 13.2261H36.1777ZM46.3054 13.2261V37H38.8509V13.2261H46.3054ZM58.9736 37.2351C56.1306 37.2351 53.78 36.5747 51.922 35.2539C50.0863 33.9107 49.0902 31.952 48.9335 29.3776H56.8581C56.97 30.7431 57.5744 31.4259 58.6714 31.4259C59.0743 31.4259 59.4101 31.3364 59.6787 31.1573C59.9697 30.9558 60.1152 30.6536 60.1152 30.2506C60.1152 29.691 59.813 29.2433 59.2086 28.9075C58.6042 28.5493 57.664 28.1464 56.388 27.6986C54.8657 27.1614 53.6009 26.6353 52.5936 26.1204C51.6086 25.6056 50.7579 24.8556 50.0416 23.8706C49.3252 22.8857 48.9782 21.6209 49.0006 20.0762C49.0006 18.5316 49.3924 17.222 50.1759 16.1475C50.9818 15.0506 52.0675 14.2223 53.433 13.6627C54.821 13.103 56.3768 12.8232 58.1005 12.8232C61.0107 12.8232 63.3164 13.4948 65.0178 14.8379C66.7415 16.1811 67.6481 18.0727 67.7377 20.5128H59.7123C59.6899 19.8412 59.522 19.3599 59.2086 19.0689C58.8952 18.7778 58.5147 18.6323 58.0669 18.6323C57.7535 18.6323 57.4961 18.7443 57.2946 18.9681C57.0931 19.1696 56.9924 19.4606 56.9924 19.8412C56.9924 20.3784 57.2834 20.8262 57.8655 21.1843C58.4699 21.5201 59.4213 21.9343 60.7197 22.4268C62.2195 22.9864 63.4508 23.5237 64.4133 24.0385C65.3983 24.5534 66.249 25.2698 66.9653 26.1876C67.6817 27.1054 68.0399 28.2583 68.0399 29.6462C68.0399 31.1013 67.6817 32.4109 66.9653 33.575C66.249 34.7166 65.2081 35.6121 63.8425 36.2613C62.477 36.9105 60.854 37.2351 58.9736 37.2351ZM78.1135 19.1696V22.091H85.5009V27.6986H78.1135V31.0565H86.5083V37H70.659V13.2261H86.5083V19.1696H78.1135ZM112.118 37H104.663L96.7721 25.0459V37H89.3176V13.2261H96.7721L104.663 25.3817V13.2261H112.118V37ZM124.787 37.2351C121.944 37.2351 119.593 36.5747 117.735 35.2539C115.9 33.9107 114.904 31.952 114.747 29.3776H122.671C122.783 30.7431 123.388 31.4259 124.485 31.4259C124.888 31.4259 125.223 31.3364 125.492 31.1573C125.783 30.9558 125.929 30.6536 125.929 30.2506C125.929 29.691 125.626 29.2433 125.022 28.9075C124.418 28.5493 123.477 28.1464 122.201 27.6986C120.679 27.1614 119.414 26.6353 118.407 26.1204C117.422 25.6056 116.571 24.8556 115.855 23.8706C115.139 22.8857 114.792 21.6209 114.814 20.0762C114.814 18.5316 115.206 17.222 115.989 16.1475C116.795 15.0506 117.881 14.2223 119.246 13.6627C120.634 13.103 122.19 12.8232 123.914 12.8232C126.824 12.8232 129.13 13.4948 130.831 14.8379C132.555 16.1811 133.461 18.0727 133.551 20.5128H125.526C125.503 19.8412 125.335 19.3599 125.022 19.0689C124.709 18.7778 124.328 18.6323 123.88 18.6323C123.567 18.6323 123.309 18.7443 123.108 18.9681C122.907 19.1696 122.806 19.4606 122.806 19.8412C122.806 20.3784 123.097 20.8262 123.679 21.1843C124.283 21.5201 125.235 21.9343 126.533 22.4268C128.033 22.9864 129.264 23.5237 130.227 24.0385C131.212 24.5534 132.062 25.2698 132.779 26.1876C133.495 27.1054 133.853 28.2583 133.853 29.6462C133.853 31.1013 133.495 32.4109 132.779 33.575C132.062 34.7166 131.021 35.6121 129.656 36.2613C128.29 36.9105 126.667 37.2351 124.787 37.2351ZM148.057 37.2351C145.819 37.2351 143.759 36.709 141.879 35.6568C140.021 34.6047 138.543 33.1496 137.446 31.2916C136.349 29.4336 135.801 27.3405 135.801 25.0123C135.801 22.6842 136.349 20.5911 137.446 18.7331C138.543 16.875 140.021 15.4311 141.879 14.4014C143.759 13.3493 145.819 12.8232 148.057 12.8232C150.296 12.8232 152.344 13.3493 154.202 14.4014C156.06 15.4311 157.526 16.875 158.601 18.7331C159.698 20.5911 160.246 22.6842 160.246 25.0123C160.246 27.3405 159.698 29.4336 158.601 31.2916C157.526 33.1496 156.049 34.6047 154.168 35.6568C152.31 36.709 150.273 37.2351 148.057 37.2351ZM148.057 30.2842C149.535 30.2842 150.676 29.8141 151.482 28.8739C152.288 27.9113 152.691 26.6241 152.691 25.0123C152.691 23.3782 152.288 22.091 151.482 21.1508C150.676 20.1882 149.535 19.7069 148.057 19.7069C146.557 19.7069 145.404 20.1882 144.599 21.1508C143.793 22.091 143.39 23.3782 143.39 25.0123C143.39 26.6241 143.793 27.9113 144.599 28.8739C145.404 29.8141 146.557 30.2842 148.057 30.2842ZM174.89 37L170.424 28.471H170.39V37H162.935V13.2261H174.016C175.942 13.2261 177.587 13.5731 178.953 14.2671C180.318 14.9387 181.337 15.8677 182.008 17.0541C182.702 18.2182 183.049 19.539 183.049 21.0164C183.049 22.6058 182.601 24.0162 181.706 25.2474C180.833 26.4786 179.568 27.3629 177.912 27.9001L183.083 37H174.89ZM170.39 23.5013H173.345C174.061 23.5013 174.599 23.3446 174.957 23.0312C175.315 22.6954 175.494 22.1805 175.494 21.4865C175.494 20.8597 175.304 20.3672 174.923 20.0091C174.565 19.6509 174.039 19.4718 173.345 19.4718H170.39V23.5013ZM82.7372 63.2261V87H75.2827V63.2261H82.7372ZM101.349 83.4071H93.4242L92.249 87H84.4251L93.122 63.2261H101.718L110.382 87H102.524L101.349 83.4071ZM99.5356 77.7994L97.3865 71.1843L95.2375 77.7994H99.5356Z" fill="white"/>
<path d="M109.714 40.3323L111.469 49.2275L121 50.8662L111.469 52.5048L109.714 61.4L107.958 52.5048L98.4275 50.8662L107.958 49.2275L109.714 40.3323Z" fill="white"/>
</svg>
