<svg width="30" height="30" viewBox="0 0 30 30" fill="none" xmlns="http://www.w3.org/2000/svg">
<g clip-path="url(#clip0_948_1311)">
<path d="M22.4114 0.675293H7.37213C3.49688 0.675293 0.354004 3.81817 0.354004 7.69342V22.7327C0.354004 26.6079 3.49688 29.7508 7.37213 29.7508H22.4114C26.2866 29.7508 29.4295 26.6079 29.4295 22.7327V7.69342C29.4295 3.81817 26.2866 0.675293 22.4114 0.675293ZM26.9227 22.2305C26.9227 24.9981 24.6768 27.244 21.9092 27.244H7.87292C5.10529 27.244 2.85938 24.9981 2.85938 22.2305V8.19421C2.85938 5.42658 5.10529 3.18067 7.87292 3.18067H21.9092C24.6768 3.18067 26.9227 5.42658 26.9227 8.19421V22.2305Z" fill="#E8E8E8"/>
<path d="M14.9049 7.69336C10.7549 7.69336 7.38599 11.0622 7.38599 15.2123C7.38599 19.3623 10.7549 22.7312 14.9049 22.7312C19.055 22.7312 22.4238 19.3623 22.4238 15.2123C22.4238 11.0622 19.055 7.69336 14.9049 7.69336ZM14.9049 20.2258C12.1429 20.2258 9.89136 17.9743 9.89136 15.2123C9.89136 12.4502 12.1429 10.1987 14.9049 10.1987C17.667 10.1987 19.9184 12.4502 19.9184 15.2123C19.9184 17.9743 17.667 20.2258 14.9049 20.2258Z" fill="#E8E8E8"/>
<path d="M22.9261 5.68896C22.0975 5.68896 21.4224 6.36413 21.4224 7.19275C21.4224 8.02137 22.0975 8.69653 22.9261 8.69653C23.7548 8.69653 24.4299 8.02137 24.4299 7.19275C24.4299 6.36413 23.7548 5.68896 22.9261 5.68896Z" fill="#E8E8E8"/>
</g>
<defs>
<clipPath id="clip0_948_1311">
<rect width="29.0755" height="29.0755" fill="white" transform="translate(0.354004 0.675293)"/>
</clipPath>
</defs>
</svg>
