<svg width="28" height="28" viewBox="0 0 28 28" fill="none" xmlns="http://www.w3.org/2000/svg">
<g clip-path="url(#clip0_948_1307)">
<path d="M4.10941 7.67754C6.07924 7.67754 7.6761 6.0814 7.6761 4.11245C7.6761 2.14351 6.07924 0.547363 4.10941 0.547363C2.13958 0.547363 0.542725 2.14351 0.542725 4.11245C0.542725 6.0814 2.13958 7.67754 4.10941 7.67754Z" fill="#E8E8E8"/>
<path d="M6.81474 10.0542H1.40269C1.25566 10.0542 1.13647 10.1733 1.13647 10.3203V27.6122C1.13647 27.7591 1.25566 27.8783 1.40269 27.8783H6.81474C6.96176 27.8783 7.08095 27.7591 7.08095 27.6122V10.3203C7.08095 10.1733 6.96176 10.0542 6.81474 10.0542Z" fill="#E8E8E8"/>
<path d="M20.7525 9.45947C18.5587 9.45947 16.5921 10.4639 15.4032 12.002V11.2413C15.4032 10.5879 14.868 10.053 14.2143 10.053H10.6476C9.99395 10.053 9.45874 10.5879 9.45874 11.2413V26.69C9.45874 27.3434 9.99395 27.8784 10.6476 27.8784H14.2143C14.868 27.8784 15.4032 27.3434 15.4032 26.69V18.3715C15.4032 16.7318 16.7343 15.4013 18.3748 15.4013C20.0152 15.4013 21.3463 16.7318 21.3463 18.3715V26.69C21.3463 27.3434 21.8815 27.8784 22.5352 27.8784H26.1019C26.7556 27.8784 27.2908 27.3434 27.2908 26.69V16.5897C27.2908 11.8362 24.0335 9.45947 20.7525 9.45947Z" fill="#E8E8E8"/>
</g>
<defs>
<clipPath id="clip0_948_1307">
<rect width="26.7494" height="27.331" fill="white" transform="translate(0.542725 0.547363)"/>
</clipPath>
</defs>
</svg>
