<?xml version="1.0" encoding="UTF-8"?>
<svg id="Layer_2" data-name="Layer 2" xmlns="http://www.w3.org/2000/svg" viewBox="0 0 202.06 160.56">
  <defs>
    <style>
      .cls-1 {
        fill: red;
      }
    </style>
  </defs>
  <g id="Layer_1-2" data-name="Layer 1">
    <path class="cls-1" d="M192.56,89.78c5.25,0,9.5-4.25,9.5-9.5s-4.25-9.5-9.5-9.5h-82.03v-9.59h16.74c8.55,0,15.5-6.95,15.5-15.5V15.5c0-8.55-6.95-15.5-15.5-15.5h-52.48c-8.55,0-15.5,6.95-15.5,15.5v30.18c0,8.55,6.95,15.5,15.5,15.5h16.74v9.59H9.5c-5.25,0-9.5,4.25-9.5,9.5s4.25,9.5,9.5,9.5h31.9v9.59h-16.74c-8.55,0-15.5,6.95-15.5,15.5v30.18c0,8.55,6.95,15.5,15.5,15.5h52.48c8.55,0,15.5-6.95,15.5-15.5v-30.18c0-8.55-6.95-15.5-15.5-15.5h-16.74v-9.59h81.68v9.59h-16.74c-8.55,0-15.5,6.95-15.5,15.5v30.18c0,8.55,6.95,15.5,15.5,15.5h52.48c8.55,0,15.5-6.95,15.5-15.5v-30.18c0-8.55-6.95-15.5-15.5-15.5h-16.74v-9.59h31.47ZM78.29,19h45.48v23.18h-45.48v-23.18ZM73.64,141.56H28.16v-23.18h45.48v23.18ZM174.32,141.56h-45.48v-23.18h45.48v23.18Z"/>
  </g>
</svg>