<svg width="119" height="119" viewBox="0 0 119 119" fill="none" xmlns="http://www.w3.org/2000/svg">
<path d="M118.151 97.145C117.127 95.4617 107.506 89.6435 105.165 88.07C102.458 86.277 92.2514 79.178 89.7639 78.7755C86.9106 78.3364 83.3622 83.7521 83.2159 86.2038L82.7769 87.5211C79.6309 98.6453 73.7779 92.4611 67.9249 87.5211C57.5358 78.7023 32.1119 54.6976 25.7833 43.6101C22.0521 37.0966 30.6852 36.2915 30.795 35.9622C43.7081 31.9004 37.343 24.8746 32.8801 17.5195C31.1242 14.6653 23.7348 2.04088 21.8326 0.796735C19.6377 -0.630375 13.6384 3.98029 11.5533 4.9317C-0.299059 10.2376 -1.21359 23.1914 2.29821 34.1326C5.44419 43.976 11.5167 53.0509 17.9184 61.1013C32.368 79.3976 72.5341 121.369 97.7386 118.222C105.567 117.234 108.786 113.465 113.139 107.171L114.639 105.598C115.627 103.695 119.395 99.121 118.151 97.1084V97.145Z" fill="#FF3030"/>
</svg>
