<svg width="172" height="192" viewBox="0 0 172 192" fill="none" xmlns="http://www.w3.org/2000/svg">
    <g clip-path="url(#clip0_441_438)" filter="url(#filter0_d_441_438)">
        <path
            d="M167.356 32.4768C167.356 14.5339 129.898 -0.00195312 83.6779 -0.00195312C37.4582 -0.00195312 0 14.5339 0 32.4768V57.6519C0 75.5846 37.4685 90.1307 83.6779 90.1307C129.887 90.1307 167.356 75.5948 167.356 57.6519V32.4768Z"
            fill="#E24242" />
        <path
            d="M167.356 72.6586C167.356 90.5913 129.887 105.137 83.6779 105.137C37.4685 105.137 0 90.5913 0 72.6586V105.137C0 123.07 37.4685 137.606 83.6779 137.606C129.887 137.606 167.356 123.07 167.356 105.127V72.6484V72.6586Z"
            fill="#E24242" />
        <path
            d="M167.356 118.957C167.356 136.89 129.887 151.436 83.6779 151.436C37.4685 151.436 0 136.89 0 118.957V151.436C0 169.368 37.4685 183.915 83.6779 183.915C129.887 183.915 167.356 169.379 167.356 151.436V118.957Z"
            fill="#E24242" />
    </g>
    <defs>
        <filter id="filter0_d_441_438" x="-4" y="0" width="175.355" height="191.918"
            filterUnits="userSpaceOnUse" color-interpolation-filters="sRGB">
            <feFlood flood-opacity="0" result="BackgroundImageFix" />
            <feColorMatrix in="SourceAlpha" type="matrix"
                values="0 0 0 0 0 0 0 0 0 0 0 0 0 0 0 0 0 0 127 0" result="hardAlpha" />
            <feOffset dy="4" />
            <feGaussianBlur stdDeviation="2" />
            <feComposite in2="hardAlpha" operator="out" />
            <feColorMatrix type="matrix" values="0 0 0 0 0 0 0 0 0 0 0 0 0 0 0 0 0 0 0.25 0" />
            <feBlend mode="normal" in2="BackgroundImageFix" result="effect1_dropShadow_441_438" />
            <feBlend mode="normal" in="SourceGraphic" in2="effect1_dropShadow_441_438"
                result="shape" />
        </filter>
        <clipPath id="clip0_441_438">
            <rect width="167.356" height="183.917" fill="white" />
        </clipPath>
    </defs>
</svg>