<svg width="183" height="183" viewBox="0 0 183 183" fill="none" xmlns="http://www.w3.org/2000/svg">
    <mask id="mask0_1376_3664" style="mask-type:alpha" maskUnits="userSpaceOnUse" x="0" y="0"
        width="183" height="183">
        <rect width="183" height="183" fill="#D9D9D9" />
    </mask>
    <g mask="url(#mask0_1376_3664)">
        <path
            d="M49.5625 148.689C39.0248 148.689 30.0361 145.034 22.5967 137.723C15.1572 130.412 11.4375 121.476 11.4375 110.917C11.4375 101.615 14.424 93.3256 20.3969 86.0501C26.3698 78.7746 33.9897 74.4722 43.2566 73.1429C45.7004 61.7448 51.4319 52.4238 60.451 45.1801C69.4688 37.9363 79.8185 34.3145 91.5 34.3145C105.306 34.3145 117.018 39.1233 126.636 48.741C136.254 58.3586 141.062 70.0706 141.062 83.877V87.6895H143.409C151.445 88.3147 158.146 91.5458 163.512 97.3827C168.879 103.218 171.562 110.154 171.562 118.189C171.562 126.694 168.605 133.903 162.691 139.818C156.776 145.732 149.567 148.689 141.062 148.689H49.5625ZM49.5625 137.252H141.062C146.4 137.252 150.911 135.409 154.597 131.724C158.282 128.038 160.125 123.527 160.125 118.189C160.125 112.852 158.282 108.34 154.597 104.655C150.911 100.97 146.4 99.127 141.062 99.127H129.625V83.877C129.625 73.329 125.908 64.3379 118.473 56.9035C111.039 49.4691 102.048 45.752 91.5 45.752C80.9521 45.752 71.9609 49.4691 64.5266 56.9035C57.0922 64.3379 53.375 73.329 53.375 83.877H49.5625C42.1917 83.877 35.901 86.4822 30.6906 91.6926C25.4802 96.903 22.875 103.194 22.875 110.564C22.875 117.935 25.4802 124.226 30.6906 129.436C35.901 134.647 42.1917 137.252 49.5625 137.252ZM91.5019 118.115C93.1235 118.115 94.4814 117.567 95.5756 116.472C96.671 115.375 97.2188 114.016 97.2188 112.394C97.2188 110.774 96.6704 109.416 95.5737 108.321C94.4769 107.227 93.1184 106.68 91.4981 106.68C89.8765 106.68 88.5186 107.227 87.4244 108.323C86.329 109.419 85.7812 110.779 85.7812 112.4C85.7812 114.02 86.3296 115.378 87.4263 116.474C88.5231 117.568 89.8816 118.115 91.5019 118.115ZM91.5019 95.242C93.1235 95.242 94.4814 94.6936 95.5756 93.5969C96.671 92.5015 97.2188 91.1436 97.2188 89.5233V68.627C97.2188 67.0066 96.6704 65.6488 95.5737 64.5533C94.4769 63.4566 93.1184 62.9082 91.4981 62.9082C89.8765 62.9082 88.5186 63.4566 87.4244 64.5533C86.329 65.6488 85.7812 67.0066 85.7812 68.627V89.5233C85.7812 91.1436 86.3296 92.5015 87.4263 93.5969C88.5231 94.6936 89.8816 95.242 91.5019 95.242Z"
            fill="url(#paint0_linear_1376_3664)" />
    </g>
    <defs>
        <linearGradient id="paint0_linear_1376_3664" x1="162.116" y1="42.2446" x2="67.9699"
            y2="173.662" gradientUnits="userSpaceOnUse">
            <stop stop-color="#FFA32C" />
            <stop offset="0.471154" stop-color="#FF2C2C" />
            <stop offset="1" stop-color="#FF6CB3" />
        </linearGradient>
    </defs>
</svg>