<svg width="183" height="183" viewBox="0 0 183 183" fill="none" xmlns="http://www.w3.org/2000/svg">
    <mask id="mask0_1376_3634" style="mask-type:alpha" maskUnits="userSpaceOnUse" x="0" y="0"
        width="183" height="183">
        <rect width="183" height="183" fill="#D9D9D9" />
    </mask>
    <g mask="url(#mask0_1376_3634)">
        <path
            d="M31.9659 133.438C26.2472 133.438 21.3964 131.445 17.4136 127.461C13.4295 123.479 11.4375 118.628 11.4375 112.909V70.0909C11.4375 64.3722 13.4295 59.5214 17.4136 55.5386C21.3964 51.5545 26.2472 49.5625 31.9659 49.5625H119.375L93.6121 61H31.9659C29.4153 61 27.2626 61.8775 25.5075 63.6325C23.7525 65.3876 22.875 67.5403 22.875 70.0909V112.909C22.875 115.46 23.7525 117.612 25.5075 119.367C27.2626 121.122 29.4153 122 31.9659 122H109.903C111.603 124.346 113.389 126.46 115.261 128.342C117.133 130.224 119.101 131.923 121.163 133.438H31.9659ZM141.062 126.691C131.775 123.299 124.175 116.352 118.262 105.848C112.347 95.3449 109.39 83.5236 109.39 70.3845C113.916 69.993 118.742 68.6491 123.87 66.3528C128.997 64.0551 134.727 60.7071 141.062 56.3087C147.398 60.7071 153.128 64.0551 158.255 66.3528C163.383 68.6491 168.209 69.993 172.735 70.3845C172.735 83.5236 169.778 95.3449 163.863 105.848C157.95 116.352 150.35 123.299 141.062 126.691ZM141.062 114.053C146 111.228 150.228 106.687 153.747 100.431C157.266 94.1745 159.563 87.155 160.638 79.3724C157.667 78.5032 154.578 77.2889 151.372 75.7296C148.165 74.1703 144.729 72.2418 141.062 69.9441V114.053ZM104.11 112.909H31.9659V70.0909H92.8935C93.1375 78.3615 94.2469 86.0774 96.2218 93.2385C98.1967 100.398 100.826 106.955 104.11 112.909Z"
            fill="url(#paint0_linear_1376_3634)" />
    </g>
    <defs>
        <linearGradient id="paint0_linear_1376_3634" x1="163.219" y1="55.3779" x2="103.426"
            y2="170.026" gradientUnits="userSpaceOnUse">
            <stop stop-color="#FFA32C" />
            <stop offset="0.471154" stop-color="#FF2C2C" />
            <stop offset="1" stop-color="#FF6CB3" />
        </linearGradient>
    </defs>
</svg>