<svg width="183" height="183" viewBox="0 0 183 183" fill="none" xmlns="http://www.w3.org/2000/svg">
    <mask id="mask0_1376_3658" style="mask-type:alpha" maskUnits="userSpaceOnUse" x="0" y="0"
        width="183" height="183">
        <rect width="183" height="183" fill="#D9D9D9" />
    </mask>
    <g mask="url(#mask0_1376_3658)">
        <path
            d="M55.6794 90.3561C57.7521 86.2119 59.9615 82.2184 62.3074 78.3754C64.6534 74.5336 67.2389 70.7408 70.064 66.9969L58.8762 64.7533C58.4848 64.6554 58.1061 64.6675 57.7401 64.7895C57.3728 64.9128 57.0424 65.1206 56.7488 65.4129L39.4896 82.672C39.3435 82.8195 39.2946 82.991 39.3429 83.1867C39.3924 83.3812 39.5151 83.5273 39.7108 83.6252L55.6794 90.3561ZM145.286 35.662C134.974 36.2097 125.059 38.8029 115.541 43.4414C106.025 48.08 97.235 54.4316 89.1703 62.4963C83.6854 67.9799 78.8461 73.7718 74.6523 79.8717C70.4586 85.9718 67.1741 91.8614 64.7989 97.5408L86.4577 119.081C92.1371 116.706 98.0388 113.422 104.163 109.228C110.287 105.034 116.092 100.196 121.577 94.7119C129.641 86.6472 135.993 77.888 140.631 68.4343C145.27 58.9818 147.863 49.0985 148.411 38.7844C148.411 38.374 148.352 37.9756 148.234 37.5892C148.117 37.2029 147.892 36.8439 147.561 36.5122C147.228 36.1792 146.868 35.9543 146.482 35.8374C146.095 35.7205 145.697 35.662 145.286 35.662ZM103.936 80.0185C101.355 77.4375 100.065 74.2998 100.065 70.6055C100.065 66.9099 101.355 63.7716 103.936 61.1905C106.517 58.6094 109.675 57.3189 113.408 57.3189C117.143 57.3189 120.301 58.6094 122.88 61.1905C125.462 63.7716 126.752 66.9099 126.752 70.6055C126.752 74.2998 125.462 77.4375 122.88 80.0185C120.301 82.5996 117.143 83.8901 113.408 83.8901C109.675 83.8901 106.517 82.5996 103.936 80.0185ZM93.6424 128.275L100.373 144.362C100.471 144.558 100.617 144.668 100.812 144.692C101.008 144.716 101.179 144.655 101.326 144.509L118.586 127.322C118.878 127.029 119.086 126.699 119.209 126.333C119.331 125.966 119.343 125.587 119.245 125.197L117.002 114.009C113.258 116.834 109.465 119.4 105.623 121.706C101.78 124.013 97.7866 126.203 93.6424 128.275ZM159.305 32.0554C159.784 45.3991 157.436 58.0751 152.26 70.0832C147.083 82.0925 139.119 93.4741 128.365 104.228C128.121 104.472 127.889 104.692 127.669 104.887C127.449 105.083 127.217 105.303 126.973 105.547L130.492 122.879C130.951 125.176 130.836 127.41 130.147 129.581C129.458 131.75 128.297 133.652 126.664 135.285L104.039 157.91C102.329 159.62 100.261 160.266 97.8361 159.847C95.4114 159.426 93.7396 158.067 92.8208 155.769L82.4394 131.369L52.6294 101.485L28.2294 91.1034C25.9318 90.1846 24.5656 88.5134 24.131 86.0899C23.6964 83.6652 24.3343 81.5975 26.0449 79.887L48.6701 57.2617C50.3032 55.6287 52.224 54.4799 54.4327 53.8152C56.6414 53.1506 58.8946 53.0476 61.1923 53.5064L78.5239 57.0272C78.7692 56.782 78.977 56.5615 79.1473 56.3658C79.3188 56.1714 79.5266 55.9515 79.7706 55.7062C90.5244 44.9537 101.906 36.9767 113.915 31.7752C125.925 26.5749 138.601 24.2143 151.945 24.6934C152.864 24.7722 153.77 24.9972 154.663 25.3683C155.558 25.7393 156.362 26.282 157.077 26.9962C157.79 27.7091 158.32 28.5009 158.666 29.3714C159.013 30.2406 159.226 31.1353 159.305 32.0554ZM34.4762 122.543C38.1908 118.829 42.7195 116.964 48.062 116.948C53.4034 116.934 57.9313 118.785 61.646 122.499C65.3606 126.214 67.1989 130.742 67.1608 136.083C67.1214 141.426 65.2443 145.954 61.5297 149.669C56.3587 154.84 50.2587 157.985 43.2297 159.105C36.2007 160.225 29.1279 161.21 22.0112 162.06C22.8627 154.895 23.8603 147.81 25.004 140.805C26.1478 133.801 29.3052 127.714 34.4762 122.543ZM42.6292 130.65C40.4193 132.86 38.8892 135.49 38.039 138.54C37.1888 141.59 36.5337 144.728 36.0736 147.953C39.3003 147.495 42.4386 146.847 45.4886 146.011C48.5386 145.175 51.168 143.652 53.3767 141.444C54.9017 139.919 55.7036 138.088 55.7824 135.952C55.8599 133.815 55.1361 131.985 53.6111 130.46C52.0861 128.935 50.2555 128.204 48.1192 128.268C45.9842 128.331 44.1542 129.125 42.6292 130.65Z"
            fill="url(#paint0_linear_1376_3658)" />
    </g>
    <defs>
        <linearGradient id="paint0_linear_1376_3658" x1="151.263" y1="34.1613" x2="31.7921"
            y2="153.218" gradientUnits="userSpaceOnUse">
            <stop stop-color="#FFA32C" />
            <stop offset="0.471154" stop-color="#FF2C2C" />
            <stop offset="1" stop-color="#FF6CB3" />
        </linearGradient>
    </defs>
</svg>