<svg width="183" height="183" viewBox="0 0 183 183" fill="none" xmlns="http://www.w3.org/2000/svg">
    <mask id="mask0_1376_3652" style="mask-type:alpha" maskUnits="userSpaceOnUse" x="0" y="0"
        width="183" height="183">
        <rect width="183" height="183" fill="#D9D9D9" />
    </mask>
    <g mask="url(#mask0_1376_3652)">
        <path
            d="M40.0312 97.2188C38.4109 97.2188 37.0531 96.6704 35.9576 95.5737C34.8609 94.4769 34.3125 93.1184 34.3125 91.4981C34.3125 89.8765 34.8609 88.5186 35.9576 87.4244C37.0531 86.329 38.4109 85.7812 40.0312 85.7812H88.2308C88.5231 85.7812 88.8039 85.7323 89.0733 85.6345C89.3428 85.5366 89.5995 85.3657 89.8435 85.1217L129.215 45.75H112.469C110.848 45.75 109.49 45.2016 108.393 44.1049C107.298 43.0082 106.75 41.6497 106.75 40.0293C106.75 38.4078 107.298 37.0499 108.393 35.9557C109.49 34.8602 110.848 34.3125 112.469 34.3125H141.795C143.748 34.3125 145.385 34.9733 146.705 36.295C148.027 37.6154 148.688 39.2522 148.688 41.2055V70.5312C148.688 72.1516 148.139 73.5101 147.042 74.6068C145.946 75.7023 144.587 76.25 142.967 76.25C141.345 76.25 139.987 75.7023 138.893 74.6068C137.798 73.5101 137.25 72.1516 137.25 70.5312V53.7848L97.8345 93.2004C96.5827 94.4521 95.1143 95.4345 93.4291 96.1474C91.744 96.8616 89.9718 97.2188 88.1126 97.2188H40.0312ZM112.469 148.688C110.848 148.688 109.49 148.139 108.393 147.042C107.298 145.946 106.75 144.587 106.75 142.967C106.75 141.345 107.298 139.987 108.393 138.893C109.49 137.798 110.848 137.25 112.469 137.25H129.215L106.456 114.609C105.323 113.476 104.744 112.129 104.72 110.57C104.694 109.011 105.273 107.64 106.456 106.456C107.64 105.273 109.018 104.682 110.591 104.682C112.166 104.682 113.544 105.273 114.726 106.456L137.25 129.215V112.469C137.25 110.848 137.798 109.49 138.895 108.393C139.992 107.298 141.35 106.75 142.971 106.75C144.592 106.75 145.95 107.298 147.044 108.393C148.14 109.49 148.688 110.848 148.688 112.469V141.794C148.688 143.748 148.027 145.385 146.705 146.705C145.385 148.027 143.748 148.688 141.795 148.688H112.469Z"
            fill="url(#paint0_linear_1376_3652)" />
    </g>
    <defs>
        <linearGradient id="paint0_linear_1376_3652" x1="141.94" y1="42.2426" x2="42.5091"
            y2="141.381" gradientUnits="userSpaceOnUse">
            <stop stop-color="#FFA32C" />
            <stop offset="0.471154" stop-color="#FF2C2C" />
            <stop offset="1" stop-color="#FF6CB3" />
        </linearGradient>
    </defs>
</svg>