<svg width="20" height="37" viewBox="0 0 20 37" fill="none" xmlns="http://www.w3.org/2000/svg">
<path d="M19.1801 16.216L18.7198 19.9119C18.6419 20.5292 18.119 20.9937 17.4988 20.9937H11.5119V36.4461C10.8806 36.5031 10.2409 36.5323 9.59421 36.5323C8.14792 36.5323 6.73639 36.3877 5.37215 36.1123V20.9937H0.767648C0.344885 20.9937 0 20.6474 0 20.2233V15.5986C0 15.1745 0.344885 14.8283 0.767648 14.8283H5.37215V7.89256C5.37215 3.6363 8.80849 0.186523 13.0486 0.186523H18.4208C18.8435 0.186523 19.1884 0.532753 19.1884 0.956849V5.58158C19.1884 6.00568 18.8435 6.35191 18.4208 6.35191H14.5825C12.8873 6.35191 11.5133 7.73127 11.5133 9.4346V14.8297H17.9605C18.7003 14.8297 19.2719 15.4804 19.1815 16.2174L19.1801 16.216Z" fill="#E8E8E8"/>
</svg>
