<?xml version="1.0" encoding="UTF-8"?>
<svg id="Layer_2" data-name="Layer 2" xmlns="http://www.w3.org/2000/svg" viewBox="0 0 197.53 197.89">
  <defs>
    <style>
      .cls-1 {
        fill: red;
      }
    </style>
  </defs>
  <g id="Layer_1-2" data-name="Layer 1">
    <g>
      <path class="cls-1" d="M82.59,37.2c-3.48-.26-6.44,2.51-6.44,5.99v7.02c0,3.14,2.43,5.72,5.57,5.98,31.74,2.68,57.12,28.06,59.8,59.8.26,3.13,2.84,5.57,5.98,5.57h7.02c3.48,0,6.26-2.96,5.99-6.44-3.14-41.53-36.39-74.78-77.92-77.92Z"/>
      <path class="cls-1" d="M75.67,132.83l9.72-9.72c.83.16,1.68.25,2.55.25,7.41,0,13.41-6,13.41-13.41s-6-13.41-13.41-13.41-13.41,6-13.41,13.41c0,.87.09,1.73.25,2.55l-9.72,9.72-43.37-43.37c-2.71-2.71-7.21-2.19-9.31,1.02-19.34,29.6-16.03,69.67,9.97,95.67,26,26,66.07,29.31,95.67,9.97,3.21-2.1,3.74-6.59,1.02-9.31l-43.37-43.37Z"/>
      <path class="cls-1" d="M197.52,115.22c-1.62-30.91-15.04-60.56-37.38-82.18C138.66,12.25,111.21.66,82.23,0c-3.46-.08-6.3,2.74-6.18,6.2l.23,7.01c.1,3.16,2.65,5.71,5.81,5.79,24.06.62,46.91,10.34,64.83,27.69,18.83,18.23,30.17,43.21,31.61,69.26.17,3.16,2.82,5.62,5.98,5.62h7.01c3.45,0,6.18-2.9,6-6.34Z"/>
    </g>
  </g>
</svg>