<?xml version="1.0" encoding="UTF-8"?>
<svg id="Layer_2" data-name="Layer 2" xmlns="http://www.w3.org/2000/svg" viewBox="0 0 194.63 136.88">
  <defs>
    <style>
      .cls-1 {
        fill: red;
      }
    </style>
  </defs>
  <g id="Layer_1-2" data-name="Layer 1">
    <path class="cls-1" d="M158.07,71.41c-34.71-30.26-86.8-30.26-121.51,0-2.61,2.28-2.72,6.3-.27,8.75l4.96,4.96c2.22,2.22,5.78,2.34,8.16.29,27.46-23.61,68.35-23.61,95.81,0,2.38,2.05,5.94,1.93,8.16-.29l4.96-4.96c2.45-2.45,2.34-6.48-.27-8.75Z"/>
    <path class="cls-1" d="M192.72,37.02C138.88-12.34,55.75-12.34,1.91,37.02c-2.5,2.29-2.54,6.23-.14,8.63l4.95,4.96c2.28,2.28,5.94,2.32,8.33.15,22.55-20.56,51.55-31.82,82.27-31.82s59.71,11.26,82.27,31.82c2.39,2.17,6.04,2.13,8.33-.15l4.95-4.96c2.4-2.4,2.36-6.34-.14-8.63Z"/>
    <circle class="cls-1" cx="97.31" cy="117.05" r="19.83" transform="translate(-24.29 25.49) rotate(-13.28)"/>
  </g>
</svg>