<svg width="150" height="150" viewBox="0 0 150 150" fill="none" xmlns="http://www.w3.org/2000/svg">
    <path
        d="M32.9816 149.25C23.9292 149.25 16.2688 146.057 10.0003 139.671C3.73189 133.285 0.597656 125.573 0.597656 116.537C0.597656 107.5 3.73319 99.8474 10.0043 93.5789C16.2753 87.3104 23.9325 84.1762 32.9757 84.1762C36.0028 84.1762 38.9063 84.5657 41.6864 85.3447C44.4664 86.1237 47.0327 87.2268 49.3854 88.6541C52.3706 84.1096 53.9416 79.3971 54.0985 74.5167C54.254 69.635 52.9444 64.9474 50.1696 60.4538C47.6862 62.0118 45.0219 63.2058 42.1765 64.0357C39.3311 64.8644 36.3296 65.2787 33.1718 65.2787C24.1233 65.2787 16.4322 62.1118 10.0984 55.778C3.76456 49.4442 0.597656 41.753 0.597656 32.7046C0.597656 23.6561 3.76456 15.9852 10.0984 9.69189C16.4322 3.39729 24.1233 0.25 33.1718 0.25C42.2203 0.25 49.9121 3.39273 56.2472 9.67818C62.581 15.9636 65.7479 23.6391 65.7479 32.7046C65.7479 35.861 65.3003 38.8619 64.4049 41.7073C63.5096 44.5527 62.283 47.217 60.725 49.7004C65.2199 52.4752 69.9206 53.805 74.8271 53.69C79.7323 53.5737 84.4572 52.0478 89.0017 49.1122C87.5744 46.7596 86.4589 44.1932 85.6551 41.4132C84.85 38.6332 84.4474 35.7303 84.4474 32.7046C84.4474 23.66 87.5888 16.0022 93.8717 9.7311C100.153 3.46134 107.824 0.326463 116.884 0.326463C125.945 0.326463 133.662 3.46199 140.036 9.73306C146.41 16.0041 149.598 23.6626 149.598 32.7085C149.598 41.7543 146.407 49.4644 140.024 55.8388C133.641 62.2131 125.933 65.4002 116.902 65.4002C113.621 65.4002 110.511 64.9323 107.572 63.9965C104.632 63.062 101.881 61.7249 99.318 59.9853C96.4125 64.6108 95.0375 69.4344 95.1931 74.4559C95.3486 79.4775 96.9445 84.3664 99.9807 89.1226C102.464 87.5647 105.116 86.3504 107.936 85.48C110.757 84.6108 113.746 84.1762 116.902 84.1762C125.933 84.1762 133.641 87.3117 140.024 93.5828C146.407 99.8552 149.598 107.514 149.598 116.558C149.598 125.604 146.405 133.314 140.019 139.689C133.632 146.063 125.921 149.25 116.884 149.25C107.848 149.25 100.183 146.059 93.8893 139.677C87.5947 133.293 84.4474 125.586 84.4474 116.554C84.4474 113.398 84.8826 110.397 85.7531 107.552C86.6223 104.706 87.8359 102.042 89.3938 99.5585C84.6389 96.5223 79.7755 94.9186 74.8036 94.7474C69.8317 94.5761 65.0081 95.9688 60.3329 98.9253C62.0726 101.488 63.4097 104.245 64.3442 107.197C65.28 110.148 65.7479 113.267 65.7479 116.554C65.7479 125.586 62.5496 133.293 56.1531 139.677C49.7565 146.059 42.0327 149.25 32.9816 149.25ZM116.902 53.6371C122.705 53.6371 127.644 51.6001 131.72 47.5261C135.796 43.4535 137.835 38.5169 137.835 32.7163C137.835 26.9171 135.798 22.0295 131.724 18.0535C127.651 14.0763 122.714 12.0877 116.914 12.0877C111.114 12.0877 106.214 14.0763 102.214 18.0535C98.2116 22.0295 96.2106 26.9132 96.2106 32.7046C96.2106 34.3527 96.4092 35.959 96.8066 37.5235C97.2039 39.0867 97.7594 40.5421 98.473 41.8896L111.593 28.7678C112.764 27.602 114.13 27.019 115.692 27.019C117.253 27.019 118.616 27.602 119.782 28.7678C120.999 29.9847 121.595 31.3498 121.57 32.8634C121.544 34.3756 120.948 35.7401 119.782 36.9569L106.421 50.5159C107.899 51.5707 109.526 52.3549 111.303 52.8686C113.08 53.3809 114.947 53.6371 116.902 53.6371ZM33.1718 53.5155C34.982 53.5155 36.7014 53.2594 38.3299 52.747C39.9585 52.2347 41.472 51.5812 42.8705 50.7865L29.041 36.9569C27.8751 35.7911 27.2791 34.439 27.253 32.9006C27.2281 31.3622 27.8241 29.9847 29.041 28.7678C30.2578 27.5523 31.6347 26.9445 33.1718 26.9445C34.7102 26.9445 36.0878 27.5523 37.3046 28.7678L51.2557 42.5974C52.1 41.2002 52.766 39.6501 53.2535 37.947C53.741 36.244 53.9848 34.4965 53.9848 32.7046C53.9848 26.9132 51.9641 21.9968 47.9228 17.9555C43.8802 13.9129 38.9632 11.8916 33.1718 11.8916C27.3817 11.8916 22.4654 13.9129 18.4228 17.9555C14.3815 21.9968 12.3608 26.9132 12.3608 32.7046C12.3608 38.4959 14.3815 43.4123 18.4228 47.4536C22.4654 51.4949 27.3817 53.5155 33.1718 53.5155ZM116.914 137.487C122.714 137.487 127.651 135.45 131.724 131.376C135.798 127.303 137.835 122.367 137.835 116.566C137.835 110.767 135.796 105.879 131.72 101.903C127.644 97.9273 122.705 95.9394 116.902 95.9394C115.092 95.9394 113.372 96.1629 111.744 96.6099C110.115 97.0569 108.602 97.6777 107.205 98.4724L121.35 112.618C122.516 113.789 123.099 115.155 123.099 116.717C123.099 118.278 122.508 119.641 121.327 120.807C120.046 121.973 118.624 122.569 117.061 122.595C115.498 122.62 114.108 122.024 112.891 120.807L98.9396 106.858C98.1463 108.255 97.4928 109.768 96.9791 111.396C96.4667 113.025 96.2106 114.744 96.2106 116.554C96.2106 122.357 98.2116 127.297 102.214 131.372C106.214 135.449 111.114 137.487 116.914 137.487ZM33.011 137.487C38.826 137.487 43.775 135.449 47.8581 131.372C51.9425 127.297 53.9848 122.357 53.9848 116.554C53.9848 114.613 53.7286 112.743 53.2162 110.943C52.7026 109.144 51.9184 107.505 50.8636 106.028L35.9322 120.807C34.7154 122.024 33.3182 122.632 31.7406 122.632C30.1617 122.632 28.7639 122.024 27.5471 120.807C26.3315 119.59 25.7238 118.225 25.7238 116.713C25.7238 115.2 26.3315 113.834 27.5471 112.618L41.9648 98.1999C40.6172 97.4862 39.1945 96.9307 37.6967 96.5334C36.1989 96.1374 34.6252 95.9394 32.9757 95.9394C27.1857 95.9394 22.302 97.9273 18.3247 101.903C14.3488 105.879 12.3608 110.767 12.3608 116.566C12.3608 122.367 14.3488 127.303 18.3247 131.376C22.302 135.45 27.1974 137.487 33.011 137.487ZM75.0957 81.6118C77.017 81.6118 78.6286 80.9616 79.9304 79.6611C81.2321 78.3606 81.883 76.7497 81.883 74.8284C81.883 72.9058 81.2335 71.2936 79.9343 69.9918C78.6338 68.69 77.0222 68.0391 75.0996 68.0391C73.1783 68.0391 71.5667 68.6894 70.265 69.9898C68.9632 71.2903 68.3123 72.9012 68.3123 74.8225C68.3123 76.7452 68.9619 78.3574 70.261 79.6592C71.5615 80.961 73.1731 81.6118 75.0957 81.6118Z"
        fill="white" />
</svg>