<?xml version="1.0" encoding="UTF-8"?>
<svg height="120" width="120" id="Layer_2" data-name="Layer 2" xmlns="http://www.w3.org/2000/svg" viewBox="0 0 193.04 185.06">
  <defs>
    <style>
      .cls-1 {
      fill: white;
      }
    </style>
  </defs>
  <g id="Layer_1-2" data-name="Layer 1">
    <g>
      <path class="cls-1" d="M29.52,129.08s0,0,0,0c0-.02,0-.01,0,0Z" />
      <path class="cls-1"
        d="M29.52,129.08c-15.77,14.07-24.21,31.02-28.87,43.05-1.9,4.89.53,10.39,5.43,12.29,1.13.44,2.29.64,3.43.64,3.81,0,7.4-2.31,8.86-6.07,3.58-9.25,10.05-21.54,21.32-32.52,8.31,10.35,19.54,18.14,32.54,22.24,6.67,1.49,13.53,2.24,20.41,2.24s13.76-.75,20.42-2.24c.82-.18,1.64-.37,2.45-.58,14.48-3.63,28.16-11.42,39.56-22.52,9.84-9.59,18-20.63,24.24-32.81,9.12-17.81,13.75-37.06,13.75-57.21,0-18.58-3.97-36.48-11.79-53.19-.71-1.52-2.2-2.48-3.89-2.39-1.68.05-3.12,1.05-3.74,2.61-2.24,5.62-5.34,10.83-9.22,15.51-11.03,13.29-27.25,20.91-44.51,20.91-3.28,0-6.58-.28-9.81-.83-1.91-.33-3.75-.73-5.51-1.22-3.94-.7-7.96-1.05-11.96-1.05-37.47,0-67.95,30.48-67.95,67.95,0,3.85.33,7.75.99,11.57l.15.85.67-.55c4.74-3.94,9.8-7.5,15.06-10.59,37.72-22.17,75.53-15.77,90.03-12,1.55.4,2.85,1.39,3.66,2.77.81,1.38,1.04,3,.63,4.55-.4,1.55-1.39,2.85-2.77,3.67-1.38.81-3,1.04-4.55.63-13.05-3.4-47.07-9.16-80.92,10.73-6.38,3.75-12.38,8.23-17.85,13.33l-.25.24" />
    </g>
  </g>
</svg>