<?xml version="1.0" encoding="UTF-8"?>
<svg id="Layer_2" data-name="Layer 2" xmlns="http://www.w3.org/2000/svg" viewBox="0 0 157.06 164.58">
  <defs>
    <style>
      .cls-1 {
        fill: white;
      }
    </style>
  </defs>
  <g id="Layer_1-2" data-name="Layer 1">
    <path class="cls-1" d="M76.53,0L0,25.37v41.57c0,12.65,3.2,25.11,9.42,36.14,7.84,13.91,15.31,23.43,20.88,29.22,16.33,16.99,34.42,26.71,48.24,32.29,12.11-3.81,30.29-11.5,47-27.48,5.2-4.97,13.58-14.62,21.94-29.18,6.36-11.08,9.59-23.68,9.59-36.45V25.37L76.53,0ZM94.14,90.65c0,4.43-3.59,8.02-8.02,8.02h-44.89c-4.43,0-8.02-3.59-8.02-8.02v-35.57c0-4.43,3.59-8.02,8.02-8.02h44.89c4.43,0,8.02,3.59,8.02,8.02v35.57ZM123.85,90.52c0,3.94-3.62,6.65-7,5.25l-15.78-6.56c-2-.83-3.32-2.92-3.32-5.25v-22.19c0-2.33,1.32-4.42,3.32-5.25l15.78-6.56c3.38-1.4,7,1.31,7,5.25v35.3Z"/>
  </g>
</svg>