<svg width="20" height="29" viewBox="0 0 204 29" fill="none" xmlns="http://www.w3.org/2000/svg">
    <path
        d="M39.2303 1.10763L33.1312 27.7632H22.74L19.6528 12.6283L16.5655 27.7632H6.17438L0.0752142 1.10763H9.07336L11.4829 17.8992L15.0972 1.10763H24.2083L27.8226 17.8992L30.2322 1.10763H39.2303ZM50.5857 1.10763V27.7632H42.2276V1.10763H50.5857Z"
        fill="white" />
    <path
        d="M64.7894 28.0268C61.6018 28.0268 58.9663 27.2863 56.8831 25.8055C54.8249 24.2995 53.708 22.1033 53.5323 19.2169H62.4175C62.543 20.7479 63.2207 21.5135 64.4506 21.5135C64.9023 21.5135 65.2788 21.4131 65.58 21.2123C65.9063 20.9864 66.0695 20.6475 66.0695 20.1958C66.0695 19.5683 65.7306 19.0663 65.0529 18.6898C64.3753 18.2882 63.3211 17.8364 61.8904 17.3344C60.1836 16.732 58.7655 16.1422 57.6361 15.5649C56.5317 14.9876 55.5779 14.1468 54.7747 13.0424C53.9715 11.938 53.5825 10.5199 53.6076 8.78806C53.6076 7.0562 54.0468 5.58788 54.9253 4.38311C55.8289 3.15324 57.0462 2.22456 58.5773 1.59707C60.1334 0.969585 61.8779 0.655842 63.8105 0.655842C67.0734 0.655842 69.6587 1.40883 71.5662 2.91479C73.4989 4.42076 74.5154 6.54166 74.6158 9.2775H65.6177C65.5926 8.52451 65.4043 7.98488 65.0529 7.65858C64.7015 7.33229 64.2749 7.16914 63.7729 7.16914C63.4215 7.16914 63.1328 7.29464 62.9069 7.54564C62.681 7.77153 62.5681 8.09782 62.5681 8.52451C62.5681 9.1269 62.8944 9.62889 63.547 10.0305C64.2247 10.407 65.2914 10.8713 66.7471 11.4235C68.4288 12.051 69.8093 12.6534 70.8886 13.2307C71.9929 13.8079 72.9467 14.6111 73.7499 15.6402C74.5531 16.6693 74.9547 17.9619 74.9547 19.5181C74.9547 21.1495 74.5531 22.6178 73.7499 23.923C72.9467 25.2031 71.7796 26.2071 70.2485 26.9349C68.7175 27.6628 66.8977 28.0268 64.7894 28.0268ZM86.2494 7.77153V11.047H94.5322V17.3344H86.2494V21.0993H95.6617V27.7632H77.8913V1.10763H95.6617V7.77153H86.2494ZM124.375 27.7632H116.017L107.17 14.3601V27.7632H98.8116V1.10763H107.17L116.017 14.7366V1.10763H124.375V27.7632ZM138.58 28.0268C135.393 28.0268 132.757 27.2863 130.674 25.8055C128.616 24.2995 127.499 22.1033 127.323 19.2169H136.208C136.334 20.7479 137.012 21.5135 138.241 21.5135C138.693 21.5135 139.07 21.4131 139.371 21.2123C139.697 20.9864 139.86 20.6475 139.86 20.1958C139.86 19.5683 139.521 19.0663 138.844 18.6898C138.166 18.2882 137.112 17.8364 135.681 17.3344C133.975 16.732 132.556 16.1422 131.427 15.5649C130.323 14.9876 129.369 14.1468 128.566 13.0424C127.762 11.938 127.373 10.5199 127.398 8.78806C127.398 7.0562 127.838 5.58788 128.716 4.38311C129.62 3.15324 130.837 2.22456 132.368 1.59707C133.924 0.969585 135.669 0.655842 137.601 0.655842C140.864 0.655842 143.45 1.40883 145.357 2.91479C147.29 4.42076 148.306 6.54166 148.407 9.2775H139.409C139.383 8.52451 139.195 7.98488 138.844 7.65858C138.492 7.33229 138.066 7.16914 137.564 7.16914C137.212 7.16914 136.924 7.29464 136.698 7.54564C136.472 7.77153 136.359 8.09782 136.359 8.52451C136.359 9.1269 136.685 9.62889 137.338 10.0305C138.016 10.407 139.082 10.8713 140.538 11.4235C142.22 12.051 143.6 12.6534 144.679 13.2307C145.784 13.8079 146.738 14.6111 147.541 15.6402C148.344 16.6693 148.746 17.9619 148.746 19.5181C148.746 21.1495 148.344 22.6178 147.541 23.923C146.738 25.2031 145.57 26.2071 144.039 26.9349C142.508 27.6628 140.689 28.0268 138.58 28.0268ZM164.671 28.0268C162.161 28.0268 159.852 27.4369 157.744 26.2573C155.66 25.0776 154.004 23.4461 152.774 21.3629C151.544 19.2796 150.929 16.9328 150.929 14.3225C150.929 11.7121 151.544 9.36535 152.774 7.28209C154.004 5.19884 155.66 3.57993 157.744 2.42535C159.852 1.24568 162.161 0.655842 164.671 0.655842C167.181 0.655842 169.478 1.24568 171.561 2.42535C173.644 3.57993 175.288 5.19884 176.493 7.28209C177.723 9.36535 178.338 11.7121 178.338 14.3225C178.338 16.9328 177.723 19.2796 176.493 21.3629C175.288 23.4461 173.632 25.0776 171.523 26.2573C169.44 27.4369 167.156 28.0268 164.671 28.0268ZM164.671 20.2334C166.328 20.2334 167.608 19.7063 168.511 18.6521C169.415 17.5729 169.867 16.1296 169.867 14.3225C169.867 12.4902 169.415 11.047 168.511 9.99283C167.608 8.91355 166.328 8.37392 164.671 8.37392C162.989 8.37392 161.697 8.91355 160.793 9.99283C159.89 11.047 159.438 12.4902 159.438 14.3225C159.438 16.1296 159.89 17.5729 160.793 18.6521C161.697 19.7063 162.989 20.2334 164.671 20.2334ZM194.756 27.7632L189.749 18.2003H189.711V27.7632H181.353V1.10763H193.777C195.936 1.10763 197.78 1.49667 199.312 2.27476C200.843 3.02774 201.985 4.06937 202.738 5.39963C203.516 6.7048 203.905 8.18567 203.905 9.84223C203.905 11.6243 203.403 13.2056 202.399 14.586C201.42 15.9665 200.002 16.9579 198.144 17.5603L203.942 27.7632H194.756ZM189.711 12.6283H193.024C193.827 12.6283 194.43 12.4526 194.831 12.1012C195.233 11.7247 195.434 11.1474 195.434 10.3693C195.434 9.66654 195.22 9.11435 194.794 8.71276C194.392 8.31117 193.802 8.11037 193.024 8.11037H189.711V12.6283Z"
        fill="#353535" />
</svg>