<svg width="78" height="77" viewBox="0 0 78 77" fill="none" xmlns="http://www.w3.org/2000/svg">
<g filter="url(#filter0_d_923_3462)">
<path d="M63.1273 0.662109H15.2752C10.107 0.662109 5.90063 4.86846 5.90063 10.0367V57.8887C5.90063 63.0569 10.107 67.2633 15.2752 67.2633H63.1273C68.2955 67.2633 72.5018 63.0569 72.5018 57.8887V10.0367C72.5018 4.86846 68.2955 0.662109 63.1273 0.662109ZM66.9294 10.0367V21.0039H52.1636V6.23806H63.1308C65.2252 6.23806 66.9294 7.9422 66.9294 10.0367ZM31.8183 41.3491V26.5833H46.5841V41.3491H31.8183ZM46.5876 46.925V61.6908H31.8218V46.925H46.5876ZM26.2424 41.3491H11.4766V26.5833H26.2424V41.3491ZM31.8183 21.0039V6.23806H46.5841V21.0039H31.8183ZM52.1636 26.5798H66.9294V41.3456H52.1636V26.5798ZM15.2752 6.23806H26.2424V21.0039H11.4766V10.0367C11.4766 7.9422 13.1807 6.23806 15.2752 6.23806ZM11.4766 57.8887V46.9216H26.2424V61.6874H15.2752C13.1807 61.6874 11.4766 59.9832 11.4766 57.8887ZM63.1273 61.6908H52.1601V46.925H66.9259V57.8922C66.9259 59.9867 65.2217 61.6908 63.1273 61.6908Z" fill="white"/>
<rect x="51.149" y="44.6055" width="17.0619" height="17.0619" fill="white"/>
</g>
<defs>
<filter id="filter0_d_923_3462" x="0.962959" y="0.31762" width="76.4765" height="76.4769" filterUnits="userSpaceOnUse" color-interpolation-filters="sRGB">
<feFlood flood-opacity="0" result="BackgroundImageFix"/>
<feColorMatrix in="SourceAlpha" type="matrix" values="0 0 0 0 0 0 0 0 0 0 0 0 0 0 0 0 0 0 127 0" result="hardAlpha"/>
<feOffset dy="4.59319"/>
<feGaussianBlur stdDeviation="2.46884"/>
<feComposite in2="hardAlpha" operator="out"/>
<feColorMatrix type="matrix" values="0 0 0 0 0 0 0 0 0 0 0 0 0 0 0 0 0 0 0.08 0"/>
<feBlend mode="normal" in2="BackgroundImageFix" result="effect1_dropShadow_923_3462"/>
<feBlend mode="normal" in="SourceGraphic" in2="effect1_dropShadow_923_3462" result="shape"/>
</filter>
</defs>
</svg>
