<svg width="96" height="71" viewBox="0 0 96 71" fill="none" xmlns="http://www.w3.org/2000/svg">
<path d="M52.6155 12.6716L48.8312 21.3869C46.6366 22.1046 44.5555 23.203 42.6621 24.6513C42.2326 23.6841 41.7018 22.758 41.0699 21.8885C38.7667 18.7142 35.4143 16.664 31.6324 16.1161C23.8217 14.9868 16.5887 20.6872 15.505 28.8263C14.9792 32.7672 15.9592 36.6849 18.2624 39.8593C18.6426 40.3815 19.0499 40.8728 19.4844 41.3333C16.5961 43.0928 14.3423 45.5391 12.9722 48.3379L6.4699 49.4286C5.98606 49.5083 5.60836 48.9964 5.81079 48.5282L11.459 35.5196L0.355169 27.1542C-0.0422763 26.8558 0.0391877 26.2153 0.498348 26.0327L13.3203 20.9959L11.1454 6.89919C11.0664 6.395 11.5602 6.00142 12.007 6.21236L24.4907 12.098L32.5186 0.527367C32.8074 0.113211 33.4221 0.1981 33.5949 0.679138L38.4285 14.0376L51.9564 11.7713C52.4427 11.6916 52.818 12.2035 52.6155 12.6716Z" fill="white"/>
<path d="M41.0677 25.9967L41.0158 26.043C37.2339 29.5672 34.7999 34.2875 34.0815 39.4503C29.8429 38.1796 25.3377 38.496 21.346 40.3404C18.4651 37.5854 16.8828 33.4464 17.4604 29.1119C18.317 22.6938 23.6097 18.0352 29.6578 18.0352C30.2206 18.0352 30.7884 18.0763 31.3611 18.1586C34.6222 18.6294 37.5104 20.3966 39.4952 23.1311C40.142 24.0263 40.6702 24.9883 41.0677 25.9967Z" fill="white"/>
<path d="M92.9665 63.5045C90.6658 67.3451 86.8888 69.9535 82.591 70.6687H28.9062C24.053 70.3805 19.5823 67.9419 16.6323 63.9753C14.0526 60.5051 12.9393 56.1964 13.6552 52.4535C14.376 48.6901 17.01 45.1454 20.6981 42.9743C24.917 40.4893 29.9776 40.0546 34.5816 41.7807L35.7887 42.2334L35.8998 40.9035C36.3293 35.769 38.6103 31.0358 42.3256 27.5733C46.0285 24.1263 50.7534 22.3128 55.6215 22.4594C65.9896 22.7784 74.3557 31.9052 74.2693 42.8071L74.2594 44.3299L75.6196 43.7717C79.5102 42.1794 83.8944 42.3389 87.6418 44.2142C91.0632 45.9248 93.6059 48.8625 94.623 52.2709C95.6943 55.8645 95.0895 59.9572 92.9665 63.5045Z" fill="white"/>
</svg>
