<svg width="78" height="71" viewBox="0 0 78 71" fill="none" xmlns="http://www.w3.org/2000/svg">
<path d="M46.632 27.9496C48.8734 25.9408 50.2784 23.0544 50.2784 19.8448C50.2784 13.7807 45.2624 8.86523 39.0741 8.86523C32.8858 8.86523 27.8697 13.7807 27.8697 19.8448C27.8697 23.0544 29.2747 25.9436 31.5162 27.9496L11.6082 65.9539C10.8659 67.3711 11.4373 69.1116 12.8835 69.8389C14.3297 70.5663 16.1058 70.0063 16.848 68.5891L22.73 57.3613H55.4181L61.3001 68.5891C61.8214 69.5849 62.8523 70.1593 63.9215 70.1593C64.3751 70.1593 64.8346 70.0554 65.2646 69.8389C66.7108 69.1116 67.2822 67.3711 66.54 65.9539L46.632 27.9496ZM39.0741 30.8244C39.8693 30.8244 40.644 30.7407 41.3921 30.5877L44.8235 37.1368H33.3276L36.759 30.5877C37.5071 30.7407 38.2818 30.8244 39.077 30.8244H39.0741ZM25.752 51.5915L30.2997 42.9095H47.8425L52.3902 51.5915H25.7491H25.752Z" fill="white"/>
<path d="M55.1114 29.7904C55.6858 30.3533 56.4398 30.6361 57.1938 30.6361C57.9478 30.6361 58.7019 30.3533 59.2762 29.7904C65.2966 23.8908 65.2966 14.2908 59.2762 8.3883C58.1246 7.25975 56.2601 7.26263 55.1114 8.3883C53.9598 9.51686 53.9598 11.3439 55.1114 12.4696C58.8344 16.1179 58.8344 22.058 55.1114 25.7063C53.9598 26.8348 53.9598 28.6619 55.1114 29.7875V29.7904Z" fill="white"/>
<path d="M69.9585 1.52893C68.8068 0.400373 66.9424 0.403259 65.7937 1.52893C64.642 2.65748 64.642 4.48453 65.7937 5.6102C69.4666 9.20945 71.4901 13.995 71.4901 19.0865C71.4901 24.1779 69.4666 28.9635 65.7937 32.5627C64.642 33.6913 64.642 35.5183 65.7937 36.644C66.368 37.2068 67.122 37.4897 67.8761 37.4897C68.6301 37.4897 69.3841 37.2068 69.9585 36.644C74.7448 31.9537 77.3809 25.7192 77.3809 19.0865C77.3809 12.4537 74.7448 6.21921 69.9585 1.52893Z" fill="white"/>
<path d="M20.7626 30.6341C21.5166 30.6341 22.2706 30.3512 22.845 29.7884C23.9966 28.6599 23.9966 26.8328 22.845 25.7071C21.0394 23.9407 20.0468 21.5884 20.0468 19.0888C20.0468 16.5892 21.0394 14.2369 22.845 12.4704C23.9966 11.3419 23.9966 9.51484 22.845 8.38917C21.6933 7.2635 19.8289 7.2635 18.6801 8.38917C15.7642 11.2466 14.156 15.0479 14.156 19.0888C14.156 23.1297 15.7613 26.9309 18.6801 29.7884C19.2545 30.3512 20.0085 30.6341 20.7626 30.6341Z" fill="white"/>
<path d="M12.1702 32.5627C4.58869 25.1333 4.58869 13.0425 12.1702 5.6102C13.3218 4.48164 13.3218 2.6546 12.1702 1.52893C11.0185 0.400373 9.15407 0.403259 8.00536 1.52893C-1.87353 11.2097 -1.87353 26.9633 8.00536 36.644C8.57971 37.2068 9.33374 37.4897 10.0878 37.4897C10.8418 37.4897 11.5958 37.2068 12.1702 36.644C13.3218 35.5154 13.3218 33.6884 12.1702 32.5627Z" fill="white"/>
</svg>
