<svg width="65" height="72" viewBox="0 0 65 72" fill="none" xmlns="http://www.w3.org/2000/svg">
<path d="M31.2301 0.561853C33.0462 0.271101 33.8556 0.721412 35.471 1.271C43.7386 4.08633 52.0742 9.07876 60.3723 12.0678C62.9128 13.5287 64.0113 15.2271 64.2221 18.2977C65.4974 36.9165 53.4685 60.9709 37.3143 69.4204C33.1584 71.594 31.7641 71.6152 27.5708 69.5481C10.8521 61.2971 0.880666 38.6433 0.445353 20.0954C0.360331 16.4504 0.914674 14.0747 4.0775 12.1955L31.2301 0.561853ZM32.3388 9.66026V61.9389C44.9255 55.6983 52.9788 41.5401 55.0159 27.4493C55.3832 24.907 55.2778 22.3044 55.7675 19.7798L32.3388 9.66026Z" fill="white"/>
</svg>
