<svg width="98" height="61" viewBox="0 0 98 61" fill="none" xmlns="http://www.w3.org/2000/svg">
<path d="M89.9548 12.3616L89.4966 11.9082C73.6215 -3.80275 47.8848 -3.80275 32.0115 11.9082L23.4994 20.3324L5.82437 10.2337C2.57696 8.38008 -1.16131 11.7444 0.397905 15.1183L5.80512 26.8229C6.86385 29.1147 6.86385 31.7513 5.80512 34.0431L0.397905 45.7477C-1.16131 49.1216 2.57696 52.4878 5.82437 50.6323L23.4974 40.5336L31.5515 48.5043C47.6788 64.4649 73.8274 64.4649 89.9548 48.5043C100.04 38.5238 100.04 22.3422 89.9548 12.3635V12.3616ZM75.3212 30.433C72.6032 30.433 70.3991 28.2517 70.3991 25.5618C70.3991 22.8718 72.6032 20.6905 75.3212 20.6905C78.0393 20.6905 80.2433 22.8718 80.2433 25.5618C80.2433 28.2517 78.0393 30.433 75.3212 30.433Z" fill="white"/>
</svg>
