<svg width="61" height="67" viewBox="0 0 61 67" fill="none" xmlns="http://www.w3.org/2000/svg">
<path d="M48.9641 58.0642C49.6042 59.5789 58.4408 65.5686 54.1522 66.6105C46.5048 68.4659 43.4088 63.1443 38.7429 58.7025L22.0299 58.4743C16.2017 62.5688 13.9681 69.2333 5.29664 66.1607L4.99344 65.1718L11.3707 58.0675C6.20286 57.6309 1.9547 53.2023 0.997941 48.3172C-0.059888 42.8931 0.0411785 12.9413 1.81658 8.34729C2.89799 5.54592 5.69079 2.81401 8.51392 1.74571C12.8834 0.0953211 41.5424 0.201158 47.4616 0.753494C53.3807 1.30583 58.6227 5.26479 59.3672 11.1354C60.2263 17.9057 60.2802 41.6561 59.3369 48.3139C58.6766 52.9807 53.8456 57.7896 48.9641 58.0642ZM11.9502 13.3481C10.8351 13.6061 9.59533 15.0018 9.38309 16.0965C9.02936 17.8925 9.05968 28.3174 9.35614 30.2423C9.68966 32.4053 11.0507 33.4009 13.2236 33.6919C15.3965 33.983 24.8564 33.9896 26.4566 32.8485C28.7811 31.1882 28.5453 20.3234 28.1545 17.3963C27.9221 15.6533 26.908 13.6689 24.9473 13.2985C23.5627 13.0372 13.2405 13.0504 11.9535 13.3481H11.9502ZM35.1079 13.3481C34.3937 13.5135 33.4302 14.3469 33.0394 14.9422C31.7356 16.9333 31.6817 30.11 33.036 32.0316C34.6396 34.3038 44.379 34.0557 47.1146 33.6919C49.2606 33.4042 50.6452 32.4252 50.9821 30.2423C51.2819 28.2909 51.1572 16.2123 50.4565 14.9389C50.0657 14.2278 48.9439 13.4572 48.1017 13.2985C46.7204 13.0372 36.3881 13.0504 35.1079 13.3481ZM17.5594 46.0417C17.5594 43.7828 15.693 41.9505 13.3887 41.9505C11.0844 41.9505 9.21801 43.7828 9.21801 46.0417C9.21801 48.3007 11.0844 50.133 13.3887 50.133C15.693 50.133 17.5594 48.3007 17.5594 46.0417ZM51.1202 46.0417C51.1202 43.7828 49.2538 41.9505 46.9495 41.9505C44.6452 41.9505 42.7788 43.7828 42.7788 46.0417C42.7788 48.3007 44.6452 50.133 46.9495 50.133C49.2538 50.133 51.1202 48.3007 51.1202 46.0417Z" fill="white"/>
</svg>
