<svg width="1914" height="116" viewBox="0 0 1914 116" fill="none" xmlns="http://www.w3.org/2000/svg">
    <path
        d="M44.3963 43.2614C44.1236 40.5114 42.9531 38.375 40.8849 36.8523C38.8168 35.3295 36.0099 34.5682 32.4645 34.5682C30.0554 34.5682 28.0213 34.9091 26.3622 35.5909C24.7031 36.25 23.4304 37.1705 22.544 38.3523C21.6804 39.5341 21.2486 40.875 21.2486 42.375C21.2031 43.625 21.4645 44.7159 22.0327 45.6477C22.6236 46.5795 23.4304 47.3864 24.4531 48.0682C25.4759 48.7273 26.6577 49.3068 27.9986 49.8068C29.3395 50.2841 30.7713 50.6932 32.294 51.0341L38.5668 52.5341C41.6122 53.2159 44.4077 54.125 46.9531 55.2614C49.4986 56.3977 51.7031 57.7955 53.5668 59.4545C55.4304 61.1136 56.8736 63.0682 57.8963 65.3182C58.9418 67.5682 59.4759 70.1477 59.4986 73.0568C59.4759 77.3295 58.3849 81.0341 56.2259 84.1705C54.0895 87.2841 50.9986 89.7045 46.9531 91.4318C42.9304 93.1364 38.0781 93.9886 32.3963 93.9886C26.7599 93.9886 21.8509 93.125 17.669 91.3977C13.5099 89.6705 10.2599 87.1136 7.91903 83.7273C5.60085 80.3182 4.38494 76.1023 4.27131 71.0795H18.5554C18.7145 73.4205 19.3849 75.375 20.5668 76.9432C21.7713 78.4886 23.3736 79.6591 25.3736 80.4545C27.3963 81.2273 29.6804 81.6136 32.2259 81.6136C34.7259 81.6136 36.8963 81.25 38.7372 80.5227C40.6009 79.7955 42.044 78.7841 43.0668 77.4886C44.0895 76.1932 44.6009 74.7045 44.6009 73.0227C44.6009 71.4545 44.1349 70.1364 43.2031 69.0682C42.294 68 40.9531 67.0909 39.1804 66.3409C37.4304 65.5909 35.2827 64.9091 32.7372 64.2955L25.1349 62.3864C19.2486 60.9545 14.6009 58.7159 11.1918 55.6705C7.78267 52.625 6.08949 48.5227 6.11222 43.3636C6.08949 39.1364 7.21449 35.4432 9.48722 32.2841C11.7827 29.125 14.9304 26.6591 18.9304 24.8864C22.9304 23.1136 27.4759 22.2273 32.5668 22.2273C37.7486 22.2273 42.2713 23.1136 46.1349 24.8864C50.0213 26.6591 53.044 29.125 55.2031 32.2841C57.3622 35.4432 58.4759 39.1023 58.544 43.2614H44.3963ZM97.0071 40.6364V51.5455H65.473V40.6364H97.0071ZM72.6321 28.0909H87.1548V76.9091C87.1548 78.25 87.3594 79.2955 87.7685 80.0455C88.1776 80.7727 88.7457 81.2841 89.473 81.5795C90.223 81.875 91.0866 82.0227 92.0639 82.0227C92.7457 82.0227 93.4276 81.9659 94.1094 81.8523C94.7912 81.7159 95.3139 81.6136 95.6776 81.5455L97.9616 92.3523C97.2344 92.5795 96.2116 92.8409 94.8935 93.1364C93.5753 93.4545 91.973 93.6477 90.0866 93.7159C86.5866 93.8523 83.5185 93.3864 80.8821 92.3182C78.2685 91.25 76.2344 89.5909 74.7798 87.3409C73.3253 85.0909 72.6094 82.25 72.6321 78.8182V28.0909ZM121.399 93.9886C118.058 93.9886 115.081 93.4091 112.467 92.25C109.854 91.0682 107.786 89.3295 106.263 87.0341C104.763 84.7159 104.013 81.8295 104.013 78.375C104.013 75.4659 104.547 73.0227 105.615 71.0455C106.683 69.0682 108.138 67.4773 109.979 66.2727C111.82 65.0682 113.911 64.1591 116.251 63.5455C118.615 62.9318 121.092 62.5 123.683 62.25C126.729 61.9318 129.183 61.6364 131.047 61.3636C132.911 61.0682 134.263 60.6364 135.104 60.0682C135.945 59.5 136.365 58.6591 136.365 57.5455V57.3409C136.365 55.1818 135.683 53.5114 134.32 52.3295C132.979 51.1477 131.07 50.5568 128.592 50.5568C125.979 50.5568 123.899 51.1364 122.354 52.2955C120.808 53.4318 119.786 54.8636 119.286 56.5909L105.854 55.5C106.536 52.3182 107.876 49.5682 109.876 47.25C111.876 44.9091 114.456 43.1136 117.615 41.8636C120.797 40.5909 124.479 39.9545 128.661 39.9545C131.57 39.9545 134.354 40.2955 137.013 40.9773C139.695 41.6591 142.07 42.7159 144.138 44.1477C146.229 45.5795 147.876 47.4205 149.081 49.6705C150.286 51.8977 150.888 54.5682 150.888 57.6818V93H137.115V85.7386H136.706C135.865 87.375 134.74 88.8182 133.331 90.0682C131.922 91.2955 130.229 92.2614 128.251 92.9659C126.274 93.6477 123.99 93.9886 121.399 93.9886ZM125.558 83.9659C127.695 83.9659 129.581 83.5455 131.217 82.7045C132.854 81.8409 134.138 80.6818 135.07 79.2273C136.001 77.7727 136.467 76.125 136.467 74.2841V68.7273C136.013 69.0227 135.388 69.2955 134.592 69.5455C133.82 69.7727 132.945 69.9886 131.967 70.1932C130.99 70.375 130.013 70.5455 129.036 70.7045C128.058 70.8409 127.172 70.9659 126.376 71.0795C124.672 71.3295 123.183 71.7273 121.911 72.2727C120.638 72.8182 119.649 73.5568 118.945 74.4886C118.24 75.3977 117.888 76.5341 117.888 77.8977C117.888 79.875 118.604 81.3864 120.036 82.4318C121.49 83.4545 123.331 83.9659 125.558 83.9659ZM162.155 93V40.6364H176.234V49.7727H176.78C177.734 46.5227 179.337 44.0682 181.587 42.4091C183.837 40.7273 186.428 39.8864 189.359 39.8864C190.087 39.8864 190.871 39.9318 191.712 40.0227C192.553 40.1136 193.291 40.2386 193.928 40.3977V53.2841C193.246 53.0795 192.303 52.8977 191.098 52.7386C189.893 52.5795 188.791 52.5 187.791 52.5C185.655 52.5 183.746 52.9659 182.064 53.8977C180.405 54.8068 179.087 56.0795 178.109 57.7159C177.155 59.3523 176.678 61.2386 176.678 63.375V93H162.155ZM215.959 23.1818V93H201.436V23.1818H215.959ZM227.592 93V40.6364H242.115V93H227.592ZM234.888 33.8864C232.729 33.8864 230.876 33.1705 229.331 31.7386C227.808 30.2841 227.047 28.5455 227.047 26.5227C227.047 24.5227 227.808 22.8068 229.331 21.375C230.876 19.9205 232.729 19.1932 234.888 19.1932C237.047 19.1932 238.888 19.9205 240.411 21.375C241.956 22.8068 242.729 24.5227 242.729 26.5227C242.729 28.5455 241.956 30.2841 240.411 31.7386C238.888 33.1705 237.047 33.8864 234.888 33.8864ZM268.271 62.7273V93H253.749V40.6364H267.589V49.875H268.203C269.362 46.8295 271.305 44.4205 274.033 42.6477C276.76 40.8523 280.067 39.9545 283.953 39.9545C287.589 39.9545 290.76 40.75 293.464 42.3409C296.169 43.9318 298.271 46.2045 299.771 49.1591C301.271 52.0909 302.021 55.5909 302.021 59.6591V93H287.499V62.25C287.521 59.0455 286.703 56.5455 285.044 54.75C283.385 52.9318 281.101 52.0227 278.192 52.0227C276.237 52.0227 274.51 52.4432 273.01 53.2841C271.533 54.125 270.374 55.3523 269.533 56.9659C268.714 58.5568 268.294 60.4773 268.271 62.7273ZM326.626 77.9318L326.661 60.5114H328.774L345.547 40.6364H362.217L339.683 66.9545H336.24L326.626 77.9318ZM313.467 93V23.1818H327.99V93H313.467ZM346.195 93L330.786 70.1932L340.467 59.9318L363.206 93H346.195Z"
        fill="#FF4B4B" />
    <path
        d="M783.477 93H767.659L791.761 23.1818H810.784L834.852 93H819.034L801.545 39.1364H801L783.477 93ZM782.489 65.5568H819.852V77.0795H782.489V65.5568ZM879.537 43.2614C879.264 40.5114 878.094 38.375 876.026 36.8523C873.957 35.3295 871.151 34.5682 867.605 34.5682C865.196 34.5682 863.162 34.9091 861.503 35.5909C859.844 36.25 858.571 37.1705 857.685 38.3523C856.821 39.5341 856.389 40.875 856.389 42.375C856.344 43.625 856.605 44.7159 857.173 45.6477C857.764 46.5795 858.571 47.3864 859.594 48.0682C860.616 48.7273 861.798 49.3068 863.139 49.8068C864.48 50.2841 865.912 50.6932 867.435 51.0341L873.707 52.5341C876.753 53.2159 879.548 54.125 882.094 55.2614C884.639 56.3977 886.844 57.7955 888.707 59.4545C890.571 61.1136 892.014 63.0682 893.037 65.3182C894.082 67.5682 894.616 70.1477 894.639 73.0568C894.616 77.3295 893.526 81.0341 891.366 84.1705C889.23 87.2841 886.139 89.7045 882.094 91.4318C878.071 93.1364 873.219 93.9886 867.537 93.9886C861.901 93.9886 856.991 93.125 852.81 91.3977C848.651 89.6705 845.401 87.1136 843.06 83.7273C840.741 80.3182 839.526 76.1023 839.412 71.0795H853.696C853.855 73.4205 854.526 75.375 855.707 76.9432C856.912 78.4886 858.514 79.6591 860.514 80.4545C862.537 81.2273 864.821 81.6136 867.366 81.6136C869.866 81.6136 872.037 81.25 873.878 80.5227C875.741 79.7955 877.185 78.7841 878.207 77.4886C879.23 76.1932 879.741 74.7045 879.741 73.0227C879.741 71.4545 879.276 70.1364 878.344 69.0682C877.435 68 876.094 67.0909 874.321 66.3409C872.571 65.5909 870.423 64.9091 867.878 64.2955L860.276 62.3864C854.389 60.9545 849.741 58.7159 846.332 55.6705C842.923 52.625 841.23 48.5227 841.253 43.3636C841.23 39.1364 842.355 35.4432 844.628 32.2841C846.923 29.125 850.071 26.6591 854.071 24.8864C858.071 23.1136 862.616 22.2273 867.707 22.2273C872.889 22.2273 877.412 23.1136 881.276 24.8864C885.162 26.6591 888.185 29.125 890.344 32.2841C892.503 35.4432 893.616 39.1023 893.685 43.2614H879.537ZM901.909 35.3523V23.1818H959.25V35.3523H937.875V93H923.284V35.3523H901.909Z"
        fill="black" />
    <path
        d="M1367.49 35.3523V23.1818H1424.83V35.3523H1403.45V93H1388.86V35.3523H1367.49ZM1460.45 70.7045V40.6364H1474.98V93H1461.03V83.4886H1460.49C1459.31 86.5568 1457.34 89.0227 1454.59 90.8864C1451.86 92.75 1448.53 93.6818 1444.6 93.6818C1441.1 93.6818 1438.02 92.8864 1435.36 91.2955C1432.7 89.7045 1430.62 87.4432 1429.12 84.5114C1427.65 81.5795 1426.9 78.0682 1426.87 73.9773V40.6364H1441.4V71.3864C1441.42 74.4773 1442.25 76.9205 1443.88 78.7159C1445.52 80.5114 1447.71 81.4091 1450.46 81.4091C1452.21 81.4091 1453.85 81.0114 1455.37 80.2159C1456.9 79.3977 1458.12 78.1932 1459.06 76.6023C1460.01 75.0114 1460.48 73.0455 1460.45 70.7045ZM1509.08 93V23.1818H1556.13V35.3523H1523.85V51.9886H1553.71V64.1591H1523.85V80.8295H1556.27V93H1509.08ZM1567.59 93V40.6364H1581.43V49.875H1582.05C1583.14 46.8068 1584.96 44.3864 1587.5 42.6136C1590.05 40.8409 1593.09 39.9545 1596.64 39.9545C1600.23 39.9545 1603.29 40.8523 1605.81 42.6477C1608.33 44.4205 1610.01 46.8295 1610.85 49.875H1611.4C1612.47 46.875 1614.4 44.4773 1617.19 42.6818C1620.01 40.8636 1623.34 39.9545 1627.18 39.9545C1632.07 39.9545 1636.04 41.5114 1639.08 44.625C1642.15 47.7159 1643.68 52.1023 1643.68 57.7841V93H1629.19V60.6477C1629.19 57.7386 1628.42 55.5568 1626.88 54.1023C1625.33 52.6477 1623.4 51.9205 1621.08 51.9205C1618.44 51.9205 1616.39 52.7614 1614.91 54.4432C1613.43 56.1023 1612.69 58.2955 1612.69 61.0227V93H1598.62V60.3409C1598.62 57.7727 1597.88 55.7273 1596.4 54.2045C1594.94 52.6818 1593.02 51.9205 1590.64 51.9205C1589.02 51.9205 1587.57 52.3295 1586.27 53.1477C1585 53.9432 1583.99 55.0682 1583.24 56.5227C1582.49 57.9545 1582.12 59.6364 1582.12 61.5682V93H1567.59ZM1655.15 112.636V40.6364H1669.47V49.4318H1670.12C1670.76 48.0227 1671.68 46.5909 1672.88 45.1364C1674.11 43.6591 1675.7 42.4318 1677.65 41.4545C1679.63 40.4545 1682.09 39.9545 1685.02 39.9545C1688.84 39.9545 1692.36 40.9545 1695.59 42.9545C1698.81 44.9318 1701.39 47.9205 1703.33 51.9205C1705.26 55.8977 1706.22 60.8864 1706.22 66.8864C1706.22 72.7273 1705.28 77.6591 1703.39 81.6818C1701.53 85.6818 1698.98 88.7159 1695.76 90.7841C1692.55 92.8295 1688.96 93.8523 1684.98 93.8523C1682.17 93.8523 1679.77 93.3864 1677.79 92.4545C1675.84 91.5227 1674.23 90.3523 1672.98 88.9432C1671.73 87.5114 1670.78 86.0682 1670.12 84.6136H1669.68V112.636H1655.15ZM1669.37 66.8182C1669.37 69.9318 1669.8 72.6477 1670.67 74.9659C1671.53 77.2841 1672.78 79.0909 1674.42 80.3864C1676.05 81.6591 1678.04 82.2955 1680.38 82.2955C1682.75 82.2955 1684.75 81.6477 1686.38 80.3523C1688.02 79.0341 1689.26 77.2159 1690.1 74.8977C1690.96 72.5568 1691.39 69.8636 1691.39 66.8182C1691.39 63.7955 1690.97 61.1364 1690.13 58.8409C1689.29 56.5455 1688.05 54.75 1686.42 53.4545C1684.78 52.1591 1682.77 51.5114 1680.38 51.5114C1678.02 51.5114 1676.02 52.1364 1674.38 53.3864C1672.77 54.6364 1671.53 56.4091 1670.67 58.7045C1669.8 61 1669.37 63.7045 1669.37 66.8182ZM1715.9 93V40.6364H1729.98V49.7727H1730.53C1731.48 46.5227 1733.09 44.0682 1735.34 42.4091C1737.59 40.7273 1740.18 39.8864 1743.11 39.8864C1743.84 39.8864 1744.62 39.9318 1745.46 40.0227C1746.3 40.1136 1747.04 40.2386 1747.68 40.3977V53.2841C1747 53.0795 1746.05 52.8977 1744.85 52.7386C1743.64 52.5795 1742.54 52.5 1741.54 52.5C1739.4 52.5 1737.5 52.9659 1735.81 53.8977C1734.15 54.8068 1732.84 56.0795 1731.86 57.7159C1730.9 59.3523 1730.43 61.2386 1730.43 63.375V93H1715.9ZM1776.61 94.0227C1771.23 94.0227 1766.59 92.9318 1762.7 90.75C1758.84 88.5455 1755.86 85.4318 1753.77 81.4091C1751.68 77.3636 1750.63 72.5795 1750.63 67.0568C1750.63 61.6705 1751.68 56.9432 1753.77 52.875C1755.86 48.8068 1758.81 45.6364 1762.6 43.3636C1766.42 41.0909 1770.9 39.9545 1776.03 39.9545C1779.49 39.9545 1782.7 40.5114 1785.68 41.625C1788.68 42.7159 1791.29 44.3636 1793.52 46.5682C1795.77 48.7727 1797.52 51.5455 1798.77 54.8864C1800.02 58.2045 1800.65 62.0909 1800.65 66.5455V70.5341H1756.43V61.5341H1786.98C1786.98 59.4432 1786.52 57.5909 1785.61 55.9773C1784.7 54.3636 1783.44 53.1023 1781.83 52.1932C1780.24 51.2614 1778.38 50.7955 1776.27 50.7955C1774.07 50.7955 1772.11 51.3068 1770.41 52.3295C1768.73 53.3295 1767.41 54.6818 1766.45 56.3864C1765.5 58.0682 1765.01 59.9432 1764.99 62.0114V70.5682C1764.99 73.1591 1765.46 75.3977 1766.42 77.2841C1767.4 79.1705 1768.77 80.625 1770.54 81.6477C1772.32 82.6705 1774.42 83.1818 1776.85 83.1818C1778.46 83.1818 1779.94 82.9545 1781.28 82.5C1782.62 82.0455 1783.77 81.3636 1784.73 80.4545C1785.68 79.5455 1786.41 78.4318 1786.91 77.1136L1800.34 78C1799.66 81.2273 1798.26 84.0455 1796.15 86.4545C1794.06 88.8409 1791.35 90.7045 1788.03 92.0455C1784.74 93.3636 1780.93 94.0227 1776.61 94.0227ZM1853.69 55.5682L1840.4 56.3864C1840.17 55.25 1839.68 54.2273 1838.93 53.3182C1838.18 52.3864 1837.19 51.6477 1835.96 51.1023C1834.76 50.5341 1833.32 50.25 1831.63 50.25C1829.38 50.25 1827.49 50.7273 1825.94 51.6818C1824.4 52.6136 1823.62 53.8636 1823.62 55.4318C1823.62 56.6818 1824.12 57.7386 1825.12 58.6023C1826.12 59.4659 1827.84 60.1591 1830.27 60.6818L1839.75 62.5909C1844.84 63.6364 1848.63 65.3182 1851.13 67.6364C1853.63 69.9545 1854.88 73 1854.88 76.7727C1854.88 80.2045 1853.87 83.2159 1851.85 85.8068C1849.85 88.3977 1847.1 90.4205 1843.6 91.875C1840.12 93.3068 1836.11 94.0227 1831.57 94.0227C1824.63 94.0227 1819.11 92.5795 1815 89.6932C1810.91 86.7841 1808.51 82.8295 1807.81 77.8295L1822.09 77.0795C1822.52 79.1932 1823.57 80.8068 1825.23 81.9205C1826.88 83.0114 1829.01 83.5568 1831.6 83.5568C1834.15 83.5568 1836.19 83.0682 1837.74 82.0909C1839.31 81.0909 1840.1 79.8068 1840.12 78.2386C1840.1 76.9205 1839.54 75.8409 1838.45 75C1837.36 74.1364 1835.68 73.4773 1833.41 73.0227L1824.34 71.2159C1819.23 70.1932 1815.42 68.4205 1812.92 65.8977C1810.44 63.375 1809.2 60.1591 1809.2 56.25C1809.2 52.8864 1810.11 49.9886 1811.93 47.5568C1813.77 45.125 1816.35 43.25 1819.67 41.9318C1823.01 40.6136 1826.92 39.9545 1831.4 39.9545C1838.01 39.9545 1843.21 41.3523 1847.01 44.1477C1850.83 46.9432 1853.06 50.75 1853.69 55.5682ZM1878.96 93.9886C1875.62 93.9886 1872.64 93.4091 1870.03 92.25C1867.42 91.0682 1865.35 89.3295 1863.83 87.0341C1862.33 84.7159 1861.58 81.8295 1861.58 78.375C1861.58 75.4659 1862.11 73.0227 1863.18 71.0455C1864.25 69.0682 1865.7 67.4773 1867.54 66.2727C1869.38 65.0682 1871.47 64.1591 1873.81 63.5455C1876.18 62.9318 1878.65 62.5 1881.25 62.25C1884.29 61.9318 1886.75 61.6364 1888.61 61.3636C1890.47 61.0682 1891.83 60.6364 1892.67 60.0682C1893.51 59.5 1893.93 58.6591 1893.93 57.5455V57.3409C1893.93 55.1818 1893.25 53.5114 1891.88 52.3295C1890.54 51.1477 1888.63 50.5568 1886.15 50.5568C1883.54 50.5568 1881.46 51.1364 1879.92 52.2955C1878.37 53.4318 1877.35 54.8636 1876.85 56.5909L1863.42 55.5C1864.1 52.3182 1865.44 49.5682 1867.44 47.25C1869.44 44.9091 1872.02 43.1136 1875.18 41.8636C1878.36 40.5909 1882.04 39.9545 1886.22 39.9545C1889.13 39.9545 1891.92 40.2955 1894.58 40.9773C1897.26 41.6591 1899.63 42.7159 1901.7 44.1477C1903.79 45.5795 1905.44 47.4205 1906.64 49.6705C1907.85 51.8977 1908.45 54.5682 1908.45 57.6818V93H1894.68V85.7386H1894.27C1893.43 87.375 1892.3 88.8182 1890.89 90.0682C1889.48 91.2955 1887.79 92.2614 1885.81 92.9659C1883.84 93.6477 1881.55 93.9886 1878.96 93.9886ZM1883.12 83.9659C1885.26 83.9659 1887.14 83.5455 1888.78 82.7045C1890.42 81.8409 1891.7 80.6818 1892.63 79.2273C1893.56 77.7727 1894.03 76.125 1894.03 74.2841V68.7273C1893.58 69.0227 1892.95 69.2955 1892.15 69.5455C1891.38 69.7727 1890.51 69.9886 1889.53 70.1932C1888.55 70.375 1887.58 70.5455 1886.6 70.7045C1885.62 70.8409 1884.73 70.9659 1883.94 71.0795C1882.23 71.3295 1880.75 71.7273 1879.47 72.2727C1878.2 72.8182 1877.21 73.5568 1876.51 74.4886C1875.8 75.3977 1875.45 76.5341 1875.45 77.8977C1875.45 79.875 1876.17 81.3864 1877.6 82.4318C1879.05 83.4545 1880.89 83.9659 1883.12 83.9659Z"
        fill="black" />
    <line x1="405" y1="58" x2="725" y2="58" stroke="black" stroke-width="10" stroke-linecap="round" />
    <line x1="405" y1="58" x2="407" y2="58" stroke="#FF4B4B" stroke-width="10"
        stroke-linecap="round" />
    <line x1="1003" y1="58" x2="1323" y2="58" stroke="black" stroke-width="10"
        stroke-linecap="round" />
    <mask id="mask0_1225_2939" style="mask-type:alpha" maskUnits="userSpaceOnUse" x="1108" y="8"
        width="111" height="111">
        <rect x="1112" y="12" width="103" height="103" fill="#D9D9D9" stroke="white"
            stroke-width="8" />
    </mask>
    <g mask="url(#mask0_1225_2939)">
        <path
            d="M1163.5 20.5098C1164.73 20.5098 1165.94 20.704 1167.12 21.0703L1167.62 21.2373L1167.68 21.2588L1191.43 30.165L1191.45 30.1758L1191.48 30.1855C1193.71 31.0584 1195.56 32.4934 1196.97 34.4326C1198.43 36.4435 1199.17 38.7518 1199.17 41.2334V59.9365C1199.17 69.9862 1196.28 79.3729 1190.59 88.0146C1184.83 96.7616 1177.02 102.827 1167.24 106.086C1166.65 106.281 1166.05 106.432 1165.44 106.533C1164.8 106.64 1164.15 106.687 1163.5 106.687C1162.85 106.687 1162.2 106.64 1161.56 106.533C1160.95 106.432 1160.35 106.281 1159.76 106.086C1149.98 102.827 1142.17 96.7614 1136.41 88.0146C1130.72 79.3729 1127.83 69.9862 1127.83 59.9365V41.2334C1127.83 38.7518 1128.57 36.4435 1130.03 34.4326C1131.44 32.4933 1133.29 31.0584 1135.52 30.1855L1135.55 30.1758L1135.58 30.165L1159.33 21.2588L1159.35 21.248L1159.38 21.2373C1160.71 20.7629 1162.09 20.5098 1163.5 20.5098Z"
            fill="#1C1B1F" stroke="white" stroke-width="8" />
    </g>
    <circle cx="400.5" cy="57.5" r="17.5" fill="#FF4B4B" />
    <circle cx="565" cy="64" r="38" fill="white" />
    <mask id="mask1_1225_2939" style="mask-type:alpha" maskUnits="userSpaceOnUse" x="517" y="16"
        width="96" height="96">
        <rect x="517" y="16" width="95.2461" height="95.2461" fill="#D9D9D9" />
    </mask>
    <g mask="url(#mask1_1225_2939)">
        <path
            d="M564.623 103.309C559.2 103.309 554.074 102.267 549.245 100.184C544.417 98.1003 540.2 95.2562 536.595 91.6514C532.99 88.0466 530.146 83.8299 528.063 79.0015C525.979 74.173 524.938 69.0469 524.938 63.6232C524.938 58.1333 525.979 52.9907 528.063 48.1953C530.146 43.4 532.99 39.1999 536.595 35.5951C540.2 31.9903 544.417 29.1461 549.245 27.0626C554.074 24.9791 559.2 23.9373 564.623 23.9373C566.145 23.9373 567.616 24.0035 569.038 24.1358C570.461 24.2681 571.866 24.4996 573.255 24.8303C574.247 25.0287 575.041 25.5248 575.636 26.3185C576.231 27.1122 576.529 28.0382 576.529 29.0965V35.8431C576.529 38.0258 575.752 39.8944 574.198 41.4487C572.643 43.0031 570.775 43.7803 568.592 43.7803H560.655V51.7174C560.655 52.8419 560.274 53.7844 559.514 54.5451C558.753 55.3057 557.811 55.686 556.686 55.686H548.749V63.6232H572.561C573.685 63.6232 574.628 64.0035 575.388 64.7642C576.149 65.5248 576.529 66.4674 576.529 67.5918V79.4976H580.498C582.284 79.4976 583.854 80.0267 585.21 81.085C586.566 82.1433 587.509 83.4661 588.038 85.0536C590.618 82.1433 592.652 78.8857 594.14 75.2809C595.628 71.6761 596.372 67.7902 596.372 63.6232C596.372 62.5649 596.719 61.6389 597.414 60.8452C598.108 60.0515 599.051 59.6546 600.241 59.6546C601.366 59.6546 602.325 60.0184 603.119 60.746C603.912 61.4736 604.309 62.3996 604.309 63.524C604.309 69.0139 603.267 74.173 601.184 79.0015C599.1 83.8299 596.256 88.0466 592.652 91.6514C589.047 95.2562 584.847 98.1003 580.051 100.184C575.256 102.267 570.113 103.309 564.623 103.309ZM560.655 95.1735V87.4347C558.472 87.4347 556.604 86.6576 555.049 85.1032C553.495 83.5488 552.718 81.6803 552.718 79.4976V75.529L533.668 56.4798C533.47 57.6703 533.288 58.8609 533.123 60.0515C532.957 61.2421 532.875 62.4326 532.875 63.6232C532.875 71.825 535.537 78.8857 540.861 84.8055C546.186 90.7253 552.784 94.1813 560.655 95.1735ZM588.435 51.7174C587.31 51.7174 586.368 51.3371 585.607 50.5765C584.847 49.8158 584.466 48.8733 584.466 47.7489V35.8431C584.466 34.7187 584.847 33.7761 585.607 33.0155C586.368 32.2548 587.31 31.8745 588.435 31.8745V27.9059C588.435 25.7232 589.212 23.8547 590.766 22.3003C592.321 20.7459 594.189 19.9688 596.372 19.9688C598.555 19.9688 600.423 20.7459 601.978 22.3003C603.532 23.8547 604.309 25.7232 604.309 27.9059V31.8745C605.434 31.8745 606.376 32.2548 607.137 33.0155C607.898 33.7761 608.278 34.7187 608.278 35.8431V47.7489C608.278 48.8733 607.898 49.8158 607.137 50.5765C606.376 51.3371 605.434 51.7174 604.309 51.7174H588.435ZM592.403 31.8745H600.341V27.9059C600.341 26.7815 599.96 25.839 599.2 25.0783C598.439 24.3177 597.496 23.9373 596.372 23.9373C595.248 23.9373 594.305 24.3177 593.544 25.0783C592.784 25.839 592.403 26.7815 592.403 27.9059V31.8745Z"
            fill="#1C1B1F" />
    </g>
</svg>