<svg width="900" height="600" viewBox="0 0 900 600" fill="none" xmlns="http://www.w3.org/2000/svg">
    <g clip-path="url(#clip0_858_1926)">
        <path
            d="M697.861 354.38C701.303 417.802 577.307 546.764 424.474 499.031C353.393 476.829 359.414 439.978 305.364 391.412C273.147 362.466 226.857 340.578 213.983 298.503C202.861 262.186 209.681 223.15 228.963 197.76C272.328 140.659 359.873 101.559 446.133 191.526C532.393 281.493 688.966 190.809 697.861 354.38Z"
            fill="url(#paint0_linear_858_1926)" />
        <path
            d="M644.056 191.92C632.694 212.199 607.808 214.985 567.94 211.131C537.957 208.228 510.614 205.981 480.628 189.632C459.64 178.197 443.027 162.726 430.901 147.7C417.761 131.422 399.42 112.844 408.411 94.388C420.767 69.034 492.22 47.68 561.603 82.6C637.82 120.971 655.172 172.1 644.056 191.92Z"
            fill="url(#paint1_linear_858_1926)" />
        <path
            d="M304.876 516.864C277.006 477.874 248.463 436.435 211.096 416.024C172.552 394.961 165.444 407.942 162.776 428.581C160.108 449.219 171.999 498.119 224.6 525.941C277.215 553.771 330.953 553.354 304.876 516.864Z"
            fill="url(#paint2_linear_858_1926)" />
        <path
            d="M708.176 253.49C688.452 258.162 667.592 241.435 667.592 241.435C667.592 241.435 678.724 217.142 698.454 212.484C718.177 207.811 739.031 224.524 739.031 224.524C739.031 224.524 727.899 248.817 708.176 253.49Z"
            fill="url(#paint3_linear_858_1926)" />
        <path
            d="M740.872 435.734C758.754 448.05 786.072 439.441 786.072 439.441C786.072 439.441 784.38 410.865 766.487 398.56C748.605 386.244 721.299 394.841 721.299 394.841C721.299 394.841 722.99 423.417 740.872 435.734Z"
            fill="url(#paint4_linear_858_1926)" />
        <path
            d="M133.966 308.878C153.351 328.608 189.602 324.448 189.602 324.448C189.602 324.448 194.399 288.299 174.995 268.58C155.61 248.85 119.377 252.998 119.377 252.998C119.377 252.998 114.58 289.147 133.966 308.878Z"
            fill="url(#paint5_linear_858_1926)" />
        <path
            d="M727.4 315.839C719.443 315.839 712.993 322.009 712.993 329.619C712.993 337.23 719.443 343.399 727.4 343.399C735.357 343.399 741.807 337.23 741.807 329.619C741.807 322.009 735.357 315.839 727.4 315.839Z"
            fill="#FF3030" />
        <path
            d="M242.228 428.339C231.504 428.339 222.81 436.752 222.81 447.13C222.81 457.508 231.504 465.921 242.228 465.921C252.952 465.921 261.646 457.508 261.646 447.13C261.646 436.752 252.952 428.339 242.228 428.339Z"
            fill="#FF3030" />
        <path
            d="M230.907 206.74C223.097 206.74 216.766 200.409 216.766 192.599C216.766 184.789 223.097 178.458 230.907 178.458C238.717 178.458 245.048 184.789 245.048 192.599C245.048 200.409 238.717 206.74 230.907 206.74Z"
            fill="#FF3030" />
        <path
            d="M539.981 156.476C532.716 156.476 526.827 150.587 526.827 143.322C526.827 136.057 532.716 130.168 539.981 130.168C547.246 130.168 553.135 136.057 553.135 143.322C553.135 150.587 547.246 156.476 539.981 156.476Z"
            fill="#FF3030" />
        <path
            d="M698.533 465.686C691.999 465.686 686.703 460.39 686.703 453.856C686.703 447.323 691.999 442.026 698.533 442.026C705.066 442.026 710.363 447.323 710.363 453.856C710.363 460.39 705.066 465.686 698.533 465.686Z"
            fill="#E1E4E5" />
        <path
            d="M203.6 373.587C196.728 373.587 191.157 368.016 191.157 361.144C191.157 354.272 196.728 348.701 203.6 348.701C210.472 348.701 216.043 354.272 216.043 361.144C216.043 368.016 210.472 373.587 203.6 373.587Z"
            fill="#E1E4E5" />
        <path
            d="M340.129 514.321C336.743 514.321 333.998 511.576 333.998 508.19C333.998 504.804 336.743 502.059 340.129 502.059C343.515 502.059 346.26 504.804 346.26 508.19C346.26 511.576 343.515 514.321 340.129 514.321Z"
            fill="#E1E4E5" />
        <path
            d="M636.445 156.64C631.276 156.64 627.087 152.45 627.087 147.282C627.087 142.114 631.276 137.924 636.445 137.924C641.613 137.924 645.803 142.114 645.803 147.282C645.803 152.45 641.613 156.64 636.445 156.64Z"
            fill="#E1E4E5" />
        <path
            d="M243.455 286.419C244.33 289.684 242.392 293.04 239.127 293.915C235.861 294.79 232.505 292.853 231.63 289.587C230.755 286.322 232.693 282.966 235.958 282.091C239.224 281.216 242.58 283.153 243.455 286.419Z"
            fill="#E1E4E5" />
        <path
            d="M345.354 146.454C340.857 146.454 337.211 142.808 337.211 138.311C337.211 133.814 340.857 130.168 345.354 130.168C349.851 130.168 353.497 133.814 353.497 138.311C353.497 142.808 349.851 146.454 345.354 146.454Z"
            fill="#E1E4E5" />
        <path
            d="M628.56 314.031C625.101 314.031 622.296 311.787 622.296 309.02C622.296 306.252 625.101 304.009 628.56 304.009C632.02 304.009 634.824 306.252 634.824 309.02C634.824 311.787 632.02 314.031 628.56 314.031Z"
            fill="#E1E4E5" />
        <path
            d="M511.358 84.2244C513.179 91.0202 509.146 98.0055 502.35 99.8264C495.554 101.647 488.569 97.6144 486.748 90.8186C484.927 84.0228 488.96 77.0375 495.756 75.2166C502.551 73.3956 509.537 77.4286 511.358 84.2244Z"
            fill="#E1E4E5" />
        <path
            d="M774.13 258.004H774.294C775.264 271.752 785.489 271.964 785.489 271.964C785.489 271.964 774.214 272.184 774.214 288.07C774.214 272.184 762.94 271.964 762.94 271.964C762.94 271.964 773.16 271.752 774.13 258.004ZM302.44 68.7227H302.722C304.393 92.7827 322.002 93.1527 322.002 93.1527C322.002 93.1527 302.585 93.5377 302.585 121.339C302.585 93.5387 283.167 93.1527 283.167 93.1527C283.167 93.1527 300.769 92.7827 302.44 68.7227Z"
            fill="#E1E4E5" />
        <path fill-rule="evenodd" clip-rule="evenodd"
            d="M398.491 151.489L410.177 125.014C417.274 108.913 433.121 98.5391 450.609 98.5391C468.097 98.5391 483.944 108.913 491.041 125.014L502.727 151.489C506.872 160.866 513.868 168.697 522.721 173.868C531.601 179.033 541.896 181.236 552.112 180.157L580.704 177.091C598.091 175.238 614.931 183.878 623.668 199.135C632.417 214.383 631.425 233.393 621.136 247.632L604.208 271.063C598.175 279.484 594.956 289.596 595.01 299.955C595.005 310.286 598.254 320.356 604.296 328.736L621.225 352.167C631.514 366.406 632.506 385.416 623.757 400.664C615.02 415.921 598.18 424.56 580.792 422.708L552.201 419.642C541.985 418.563 531.69 420.765 522.81 425.93C513.939 431.13 506.941 439.003 502.816 448.422L491.041 474.897C483.944 490.998 468.097 501.372 450.609 501.372C433.121 501.372 417.274 490.998 410.177 474.897L398.491 448.422C394.366 439.003 387.367 431.13 378.497 425.93C369.617 420.765 359.322 418.563 349.106 419.642L320.426 422.708C303.038 424.56 286.199 415.921 277.461 400.664C268.712 385.416 269.705 366.406 279.993 352.167L296.922 328.736C302.964 320.356 306.213 310.286 306.208 299.955C306.213 289.624 302.964 279.555 296.922 271.175L279.993 247.744C269.705 233.505 268.712 214.495 277.461 199.247C286.207 183.999 303.04 175.362 320.426 177.203L349.017 180.269C359.233 181.348 369.528 179.145 378.408 173.98C387.312 168.795 394.343 160.921 398.491 151.489Z"
            fill="#FF3030" />
    </g>
    <defs>
        <linearGradient id="paint0_linear_858_1926" x1="549.66" y1="734.544" x2="317.719"
            y2="-311.893" gradientUnits="userSpaceOnUse">
            <stop stop-color="white" />
            <stop offset="1" stop-color="#EEEEEE" />
        </linearGradient>
        <linearGradient id="paint1_linear_858_1926" x1="567.51" y1="323.346" x2="466.232"
            y2="-131.754" gradientUnits="userSpaceOnUse">
            <stop stop-color="white" />
            <stop offset="1" stop-color="#EEEEEE" />
        </linearGradient>
        <linearGradient id="paint2_linear_858_1926" x1="273.756" y1="644.857" x2="182.317"
            y2="222.001" gradientUnits="userSpaceOnUse">
            <stop stop-color="white" />
            <stop offset="1" stop-color="#EEEEEE" />
        </linearGradient>
        <linearGradient id="paint3_linear_858_1926" x1="633.903" y1="265.107" x2="806.561"
            y2="183.538" gradientUnits="userSpaceOnUse">
            <stop stop-color="white" />
            <stop offset="1" stop-color="#EEEEEE" />
        </linearGradient>
        <linearGradient id="paint4_linear_858_1926" x1="810.528" y1="476.146" x2="669.769"
            y2="327.72" gradientUnits="userSpaceOnUse">
            <stop stop-color="white" />
            <stop offset="1" stop-color="#EEEEEE" />
        </linearGradient>
        <linearGradient id="paint5_linear_858_1926" x1="211.31" y1="376.273" x2="71.1638"
            y2="156.582" gradientUnits="userSpaceOnUse">
            <stop stop-color="white" />
            <stop offset="1" stop-color="#EEEEEE" />
        </linearGradient>
        <clipPath id="clip0_858_1926">
            <rect width="900" height="600" fill="white" />
        </clipPath>
    </defs>
</svg>