<svg width="218" height="211" viewBox="0 0 218 211" fill="none" xmlns="http://www.w3.org/2000/svg">
<path d="M184.648 90.7953C189.878 110.312 188.387 131.02 180.415 149.586C172.444 168.152 158.456 183.495 140.704 193.144C122.952 202.793 102.469 206.186 82.5535 202.778C62.6382 199.37 44.4494 189.359 30.916 174.356C17.3827 159.353 9.29243 140.232 7.94803 120.072C6.60363 99.9119 12.0833 79.886 23.5047 63.219C34.9261 46.5521 51.6245 34.2141 70.911 28.1918C90.1974 22.1694 110.949 22.8133 129.825 30.0197" stroke="#FF3030" stroke-width="13.6222" stroke-linecap="round" stroke-linejoin="round"/>
<path d="M151.077 99.7906C154.287 111.769 153.372 124.479 148.479 135.874C143.587 147.269 135.001 156.685 124.106 162.608C113.211 168.53 100.639 170.613 88.4159 168.521C76.1927 166.429 65.0292 160.284 56.7231 151.076C48.4169 141.868 43.4514 130.133 42.6263 117.759C41.8012 105.386 45.1644 93.0949 52.1743 82.8655C59.1843 72.636 69.433 65.0635 81.2702 61.3672C93.1074 57.671 105.844 58.0662 117.429 62.4892" stroke="#FF3030" stroke-width="13.6222" stroke-linecap="round" stroke-linejoin="round"/>
<path d="M122.565 107.43C124.059 113.007 123.633 118.923 121.355 124.228C119.078 129.532 115.081 133.916 110.009 136.673C104.937 139.43 99.0849 140.399 93.3948 139.426C87.7047 138.452 82.5079 135.591 78.6413 131.305C74.7746 127.018 72.4631 121.555 72.079 115.795C71.6949 110.035 73.2605 104.313 76.5237 99.5515C79.787 94.7895 84.558 91.2644 90.0684 89.5437C95.5788 87.8231 101.508 88.007 106.901 90.066" stroke="#FF3030" stroke-width="13.6222" stroke-linecap="round" stroke-linejoin="round"/>
<path d="M97.7319 114.084L140.819 75.9965" stroke="#FF3030" stroke-width="13.6222" stroke-linecap="round"/>
<path d="M140.353 77.1269L143.769 43.7714L180.54 7.00014L175.827 41.6534L210.48 36.9398L173.709 73.7111L140.353 77.1269Z" stroke="#FF3030" stroke-width="13.6222" stroke-linejoin="round"/>
</svg>
