<svg width="229" height="152" viewBox="0 0 229 152" fill="none" xmlns="http://www.w3.org/2000/svg">
<path d="M2.12867 138.349C-0.70717 141.861 -0.159037 147.007 3.35296 149.843C6.86496 152.679 12.0109 152.131 14.8467 148.619L8.48771 143.484L2.12867 138.349ZM77.7475 57.7106L82.8822 51.3516C79.3702 48.5158 74.2243 49.0639 71.3884 52.5759L77.7475 57.7106ZM135.595 104.421L130.46 110.78C133.972 113.616 139.118 113.067 141.954 109.555L135.595 104.421ZM220.805 8.09276C220.327 3.60416 216.301 0.353019 211.812 0.831134L138.666 8.62247C134.178 9.10058 130.926 13.1269 131.405 17.6155C131.883 22.1041 135.909 25.3552 140.398 24.8771L205.416 17.9515L212.342 82.9702C212.82 87.4588 216.846 90.7099 221.335 90.2318C225.824 89.7537 229.075 85.7274 228.597 81.2388L220.805 8.09276ZM8.48771 143.484L14.8467 148.619L84.1065 62.8454L77.7475 57.7106L71.3884 52.5759L2.12867 138.349L8.48771 143.484ZM77.7475 57.7106L72.6127 64.0697L130.46 110.78L135.595 104.421L140.729 98.0617L82.8822 51.3516L77.7475 57.7106ZM135.595 104.421L141.954 109.555L219.037 14.0932L212.678 8.95847L206.319 3.82372L129.236 99.286L135.595 104.421Z" fill="#FF3030"/>
</svg>
