<svg width="1915" height="464" viewBox="0 0 1915 464" fill="none" xmlns="http://www.w3.org/2000/svg">
    <rect x="0.916992" y="60.499" width="1914.08" height="403.036" rx="39.0904"
        fill="url(#paint0_linear_558_720)" />
    <g filter="url(#filter0_f_558_720)">
        <circle cx="259.049" cy="208.099" r="65.3753" fill="white" fill-opacity="0.68" />
    </g>
    <g filter="url(#filter1_f_558_720)">
        <circle cx="606.82" cy="208.099" r="65.3753" fill="white" fill-opacity="0.68" />
    </g>
    <g filter="url(#filter2_f_558_720)">
        <circle cx="955.937" cy="208.099" r="65.3753" fill="white" fill-opacity="0.68" />
    </g>
    <g filter="url(#filter3_f_558_720)">
        <circle cx="1303.71" cy="205.403" r="65.3753" fill="white" fill-opacity="0.68" />
    </g>
    <g filter="url(#filter4_f_558_720)">
        <circle cx="1651.48" cy="205.403" r="65.3753" fill="white" fill-opacity="0.68" />
    </g>
    <mask id="mask0_558_720" style="mask-type:alpha" maskUnits="userSpaceOnUse" x="203" y="152"
        width="112" height="112">
        <rect x="203.784" y="152.159" width="110.981" height="110.981" fill="#D9D9D9" />
    </mask>
    <g mask="url(#mask0_558_720)">
        <path
            d="M231.708 233.084L222.451 242.34C221.135 243.657 219.622 243.955 217.911 243.235C216.201 242.514 215.346 241.217 215.346 239.344V172.08C215.346 169.744 216.155 167.767 217.773 166.148C219.392 164.53 221.369 163.721 223.705 163.721H294.846C297.182 163.721 299.159 164.53 300.778 166.148C302.396 167.767 303.206 169.744 303.206 172.08V224.724C303.206 227.06 302.396 229.038 300.778 230.656C299.159 232.274 297.182 233.084 294.846 233.084H231.708ZM228.756 226.147H294.846C295.202 226.147 295.528 225.999 295.824 225.702C296.121 225.406 296.269 225.08 296.269 224.724V172.08C296.269 171.724 296.121 171.398 295.824 171.102C295.528 170.805 295.202 170.657 294.846 170.657H223.705C223.349 170.657 223.023 170.805 222.727 171.102C222.43 171.398 222.282 171.724 222.282 172.08V232.551L228.756 226.147Z"
            fill="#1C1B1F" />
    </g>
    <mask id="mask1_558_720" style="mask-type:alpha" maskUnits="userSpaceOnUse" x="552" y="152"
        width="111" height="112">
        <rect x="552.003" y="152.159" width="110.981" height="110.981" fill="#D9D9D9" />
    </mask>
    <g mask="url(#mask1_558_720)">
        <path
            d="M571.924 251.579C569.625 251.579 567.657 250.761 566.02 249.124C564.383 247.487 563.564 245.519 563.564 243.22V172.079C563.564 169.78 564.383 167.812 566.02 166.175C567.657 164.538 569.625 163.72 571.924 163.72H597.49C598.473 163.72 599.296 164.052 599.962 164.717C600.626 165.382 600.958 166.206 600.958 167.189C600.958 168.172 600.626 168.996 599.962 169.659C599.296 170.324 598.473 170.656 597.49 170.656H571.924C571.508 170.656 571.167 170.789 570.901 171.056C570.634 171.323 570.501 171.664 570.501 172.079V243.22C570.501 243.635 570.634 243.976 570.901 244.243C571.167 244.51 571.508 244.643 571.924 244.643H619.944C620.359 244.643 620.7 244.51 620.967 244.243C621.234 243.976 621.367 243.635 621.367 243.22V237.707C621.367 236.724 621.7 235.9 622.365 235.235C623.03 234.571 623.854 234.239 624.836 234.239C625.82 234.239 626.643 234.571 627.307 235.235C627.971 235.9 628.303 236.724 628.303 237.707V243.22C628.303 245.519 627.485 247.487 625.848 249.124C624.211 250.761 622.243 251.579 619.944 251.579H571.924ZM584.373 234.239C583.391 234.239 582.567 233.906 581.903 233.241C581.238 232.576 580.905 231.752 580.905 230.769C580.905 229.786 581.238 228.962 581.903 228.299C582.567 227.635 583.391 227.302 584.373 227.302H607.494C608.477 227.302 609.301 227.635 609.965 228.3C610.63 228.965 610.963 229.789 610.963 230.772C610.963 231.755 610.63 232.579 609.965 233.242C609.301 233.907 608.477 234.239 607.494 234.239H584.373ZM584.373 220.899C583.391 220.899 582.567 220.567 581.903 219.903C581.238 219.237 580.905 218.413 580.905 217.43C580.905 216.447 581.238 215.624 581.903 214.959C582.567 214.296 583.391 213.964 584.373 213.964H598.246C599.229 213.964 600.052 214.296 600.716 214.962C601.382 215.626 601.714 216.45 601.714 217.433C601.714 218.416 601.382 219.239 600.716 219.904C600.052 220.567 599.229 220.899 598.246 220.899H584.373ZM595.756 202.314C594.2 202.314 592.877 201.769 591.788 200.68C590.698 199.591 590.154 198.268 590.154 196.712V187.108C590.154 185.552 590.698 184.229 591.788 183.139C592.877 182.05 594.2 181.505 595.756 181.505H603.359L613.684 171.181C614.01 170.855 614.403 170.587 614.862 170.376C615.321 170.166 615.815 170.061 616.343 170.061C617.416 170.061 618.328 170.441 619.081 171.2C619.834 171.96 620.211 172.879 620.211 173.955V209.863C620.211 210.94 619.834 211.858 619.081 212.618C618.328 213.379 617.416 213.759 616.343 213.759C615.815 213.759 615.321 213.654 614.862 213.443C614.403 213.232 614.01 212.964 613.684 212.638L603.359 202.314H595.756ZM637.552 191.91C637.552 194.186 637.132 196.376 636.293 198.481C635.454 200.586 634.243 202.465 632.66 204.119C632.092 204.736 631.416 204.866 630.633 204.511C629.85 204.155 629.459 203.505 629.459 202.563V181.256C629.459 180.39 629.854 179.768 630.642 179.389C631.43 179.01 632.103 179.113 632.66 179.7C634.273 181.354 635.491 183.233 636.316 185.338C637.14 187.443 637.552 189.633 637.552 191.91ZM646.8 191.91C646.8 186.734 645.546 181.921 643.038 177.472C640.53 173.023 637.041 169.506 632.571 166.921C631.679 166.451 631.054 165.759 630.697 164.847C630.341 163.935 630.349 163.052 630.722 162.197C631.096 161.285 631.739 160.661 632.651 160.323C633.564 159.985 634.427 160.05 635.24 160.519C641.007 163.696 645.532 168.08 648.814 173.671C652.096 179.262 653.736 185.341 653.736 191.91C653.736 198.479 652.096 204.558 648.814 210.148C645.532 215.738 641.007 220.123 635.24 223.3C634.427 223.769 633.564 223.834 632.651 223.497C631.739 223.158 631.096 222.533 630.722 221.622C630.349 220.767 630.341 219.884 630.697 218.972C631.054 218.06 631.679 217.369 632.571 216.898C637.041 214.313 640.53 210.796 643.038 206.347C645.546 201.897 646.8 197.085 646.8 191.91Z"
            fill="#1C1B1F" />
    </g>
    <mask id="mask2_558_720" style="mask-type:alpha" maskUnits="userSpaceOnUse" x="900" y="152"
        width="112" height="111">
        <rect x="900.223" y="152.426" width="110.981" height="110.447" fill="#D9D9D9" />
    </mask>
    <g mask="url(#mask2_558_720)">
        <path
            d="M955.713 251.366C949.69 251.366 944.006 250.217 938.661 247.919C933.317 245.621 928.655 242.493 924.678 238.534C920.699 234.575 917.556 229.936 915.247 224.617C912.938 219.298 911.783 213.641 911.783 207.647C911.783 201.606 912.938 195.937 915.247 190.642C917.556 185.347 920.699 180.72 924.678 176.761C928.655 172.802 933.317 169.674 938.661 167.376C944.006 165.078 949.69 163.929 955.713 163.929C961.784 163.929 967.48 165.078 972.801 167.376C978.122 169.674 982.771 172.802 986.748 176.761C990.727 180.72 993.87 185.347 996.179 190.642C998.489 195.937 999.643 201.606 999.643 207.647C999.643 213.641 998.489 219.298 996.179 224.617C993.87 229.936 990.727 234.575 986.748 238.534C982.771 242.493 978.122 245.621 972.801 247.919C967.48 250.217 961.784 251.366 955.713 251.366ZM955.713 244.365C958.073 241.251 960.059 238.109 961.671 234.941C963.284 231.772 964.597 228.309 965.611 224.55H945.815C946.889 228.427 948.217 231.949 949.8 235.118C951.382 238.286 953.353 241.369 955.713 244.365ZM946.758 243.1C944.986 240.569 943.394 237.691 941.983 234.468C940.572 231.243 939.475 227.938 938.693 224.55H923.006C925.448 229.33 928.724 233.345 932.833 236.596C936.941 239.847 941.583 242.015 946.758 243.1ZM964.668 243.1C969.843 242.015 974.485 239.847 978.594 236.596C982.702 233.345 985.978 229.33 988.42 224.55H972.734C971.803 227.967 970.632 231.287 969.22 234.511C967.81 237.736 966.293 240.599 964.668 243.1ZM920.098 217.647H937.288C936.997 215.937 936.787 214.26 936.656 212.616C936.525 210.973 936.46 209.317 936.46 207.647C936.46 205.978 936.525 204.321 936.656 202.678C936.787 201.035 936.997 199.358 937.288 197.647H920.098C919.653 199.21 919.312 200.836 919.076 202.523C918.838 204.211 918.72 205.919 918.72 207.647C918.72 209.376 918.838 211.084 919.076 212.772C919.312 214.459 919.653 216.084 920.098 217.647ZM944.223 217.647H967.203C967.493 215.937 967.703 214.275 967.834 212.661C967.965 211.048 968.03 209.376 968.03 207.647C968.03 205.919 967.965 204.247 967.834 202.634C967.703 201.02 967.493 199.358 967.203 197.647H944.223C943.933 199.358 943.723 201.02 943.592 202.634C943.462 204.247 943.397 205.919 943.397 207.647C943.397 209.376 943.462 211.048 943.592 212.661C943.723 214.275 943.933 215.937 944.223 217.647ZM974.138 217.647H991.329C991.773 216.084 992.114 214.459 992.351 212.772C992.588 211.084 992.707 209.376 992.707 207.647C992.707 205.919 992.588 204.211 992.351 202.523C992.114 200.836 991.773 199.21 991.329 197.647H974.138C974.429 199.358 974.64 201.035 974.771 202.678C974.901 204.321 974.966 205.978 974.966 207.647C974.966 209.317 974.901 210.973 974.771 212.616C974.64 214.26 974.429 215.937 974.138 217.647ZM972.734 190.744H988.42C985.948 185.906 982.695 181.891 978.661 178.699C974.626 175.507 969.962 173.324 964.668 172.15C966.44 174.828 968.017 177.758 969.398 180.939C970.78 184.119 971.892 187.387 972.734 190.744ZM945.815 190.744H965.611C964.538 186.897 963.187 183.352 961.56 180.11C959.933 176.868 957.984 173.808 955.713 170.929C953.443 173.808 951.494 176.868 949.866 180.11C948.239 183.352 946.889 186.897 945.815 190.744ZM923.006 190.744H938.693C939.534 187.387 940.646 184.119 942.028 180.939C943.409 177.758 944.986 174.828 946.758 172.15C941.434 173.324 936.763 175.515 932.744 178.722C928.724 181.928 925.478 185.935 923.006 190.744Z"
            fill="#1C1B1F" />
    </g>
    <mask id="mask3_558_720" style="mask-type:alpha" maskUnits="userSpaceOnUse" x="1248" y="152"
        width="112" height="112">
        <rect x="1248.44" y="152.159" width="110.981" height="110.981" fill="#D9D9D9" />
    </mask>
    <g mask="url(#mask3_558_720)">
        <path
            d="M1303.93 214.587C1300.7 214.587 1297.97 213.468 1295.73 211.23C1293.49 208.992 1292.37 206.257 1292.37 203.026V175.281C1292.37 172.05 1293.49 169.316 1295.73 167.078C1297.97 164.84 1300.7 163.721 1303.93 163.721C1307.16 163.721 1309.9 164.84 1312.13 167.078C1314.37 169.316 1315.49 172.05 1315.49 175.281V203.026C1315.49 206.257 1314.37 208.992 1312.13 211.23C1309.9 213.468 1307.16 214.587 1303.93 214.587ZM1300.46 244.644V232.87C1293.58 232.075 1287.68 229.248 1282.77 224.387C1277.85 219.525 1274.97 213.6 1274.13 206.61C1274.01 205.626 1274.27 204.783 1274.91 204.081C1275.55 203.378 1276.36 203.026 1277.34 203.026C1278.33 203.026 1279.15 203.366 1279.81 204.045C1280.48 204.723 1280.92 205.554 1281.14 206.538C1281.98 212.201 1284.57 216.884 1288.91 220.589C1293.24 224.295 1298.25 226.147 1303.93 226.147C1309.69 226.147 1314.71 224.275 1319.01 220.531C1323.31 216.788 1325.88 212.124 1326.72 206.538C1326.94 205.554 1327.38 204.723 1328.05 204.045C1328.71 203.366 1329.54 203.026 1330.52 203.026C1331.5 203.026 1332.32 203.378 1332.96 204.081C1333.6 204.783 1333.85 205.626 1333.73 206.61C1332.89 213.446 1330.03 219.325 1325.15 224.249C1320.28 229.172 1314.36 232.046 1307.4 232.87V244.644C1307.4 245.628 1307.07 246.452 1306.4 247.116C1305.74 247.78 1304.92 248.112 1303.93 248.112C1302.95 248.112 1302.12 247.78 1301.46 247.116C1300.8 246.452 1300.46 245.628 1300.46 244.644ZM1303.93 207.651C1305.24 207.651 1306.34 207.207 1307.23 206.321C1308.11 205.435 1308.56 204.337 1308.56 203.026V175.281C1308.56 173.971 1308.11 172.873 1307.23 171.986C1306.34 171.1 1305.24 170.657 1303.93 170.657C1302.62 170.657 1301.52 171.1 1300.64 171.986C1299.75 172.873 1299.31 173.971 1299.31 175.281V203.026C1299.31 204.337 1299.75 205.435 1300.64 206.321C1301.52 207.207 1302.62 207.651 1303.93 207.651Z"
            fill="#1C1B1F" />
    </g>
    <mask id="mask4_558_720" style="mask-type:alpha" maskUnits="userSpaceOnUse" x="1596" y="152"
        width="112" height="112">
        <rect x="1596.66" y="152.159" width="110.981" height="110.981" fill="#D9D9D9" />
    </mask>
    <g mask="url(#mask4_558_720)">
        <path
            d="M1638.28 216.897V198.401C1638.28 197.09 1638.72 195.992 1639.61 195.106C1640.49 194.22 1641.59 193.776 1642.9 193.776H1661.4C1662.71 193.776 1663.81 194.22 1664.69 195.106C1665.58 195.992 1666.02 197.09 1666.02 198.401V216.897C1666.02 218.208 1665.58 219.306 1664.69 220.192C1663.81 221.079 1662.71 221.522 1661.4 221.522H1642.9C1641.59 221.522 1640.49 221.079 1639.61 220.192C1638.72 219.306 1638.28 218.208 1638.28 216.897ZM1647.53 212.273H1656.77V203.025H1647.53V212.273ZM1638.28 244.643V240.018H1629.03C1626.49 240.018 1624.31 239.113 1622.5 237.302C1620.69 235.491 1619.78 233.313 1619.78 230.77V221.522H1615.16C1613.85 221.522 1612.75 221.079 1611.86 220.192C1610.98 219.306 1610.53 218.208 1610.53 216.897C1610.53 215.587 1610.98 214.489 1611.86 213.603C1612.75 212.716 1613.85 212.273 1615.16 212.273H1619.78V203.025H1615.16C1613.85 203.025 1612.75 202.582 1611.86 201.695C1610.98 200.809 1610.53 199.711 1610.53 198.401C1610.53 197.09 1610.98 195.992 1611.86 195.106C1612.75 194.22 1613.85 193.776 1615.16 193.776H1619.78V184.528C1619.78 181.985 1620.69 179.808 1622.5 177.996C1624.31 176.185 1626.49 175.28 1629.03 175.28H1638.28V170.655C1638.28 169.345 1638.72 168.247 1639.61 167.361C1640.49 166.474 1641.59 166.031 1642.9 166.031C1644.21 166.031 1645.31 166.474 1646.2 167.361C1647.08 168.247 1647.53 169.345 1647.53 170.655V175.28H1656.77V170.655C1656.77 169.345 1657.22 168.247 1658.1 167.361C1658.99 166.474 1660.09 166.031 1661.4 166.031C1662.71 166.031 1663.81 166.474 1664.69 167.361C1665.58 168.247 1666.02 169.345 1666.02 170.655V175.28H1675.27C1677.81 175.28 1679.99 176.185 1681.8 177.996C1683.61 179.808 1684.52 181.985 1684.52 184.528V193.776H1689.14C1690.45 193.776 1691.55 194.22 1692.44 195.106C1693.32 195.992 1693.77 197.09 1693.77 198.401C1693.77 199.711 1693.32 200.809 1692.44 201.695C1691.55 202.582 1690.45 203.025 1689.14 203.025H1684.52V212.273H1689.14C1690.45 212.273 1691.55 212.716 1692.44 213.603C1693.32 214.489 1693.77 215.587 1693.77 216.897C1693.77 218.208 1693.32 219.306 1692.44 220.192C1691.55 221.079 1690.45 221.522 1689.14 221.522H1684.52V230.77C1684.52 233.313 1683.61 235.491 1681.8 237.302C1679.99 239.113 1677.81 240.018 1675.27 240.018H1666.02V244.643C1666.02 245.953 1665.58 247.051 1664.69 247.937C1663.81 248.824 1662.71 249.267 1661.4 249.267C1660.09 249.267 1658.99 248.824 1658.1 247.937C1657.22 247.051 1656.77 245.953 1656.77 244.643V240.018H1647.53V244.643C1647.53 245.953 1647.08 247.051 1646.2 247.937C1645.31 248.824 1644.21 249.267 1642.9 249.267C1641.59 249.267 1640.49 248.824 1639.61 247.937C1638.72 247.051 1638.28 245.953 1638.28 244.643ZM1675.27 230.77V184.528H1629.03V230.77H1675.27Z"
            fill="#1C1B1F" />
    </g>
    <path
        d="M246.1 311.854H243.113C242.998 311.216 242.784 310.655 242.472 310.169C242.159 309.684 241.776 309.273 241.323 308.935C240.87 308.596 240.362 308.341 239.801 308.169C239.245 307.996 238.655 307.91 238.03 307.91C236.9 307.91 235.888 308.194 234.995 308.762C234.108 309.33 233.406 310.163 232.889 311.261C232.378 312.359 232.123 313.699 232.123 315.282C232.123 316.877 232.378 318.224 232.889 319.322C233.406 320.419 234.111 321.249 235.004 321.811C235.898 322.372 236.903 322.653 238.02 322.653C238.639 322.653 239.226 322.57 239.782 322.404C240.343 322.232 240.851 321.98 241.304 321.648C241.757 321.316 242.14 320.911 242.453 320.432C242.772 319.947 242.992 319.392 243.113 318.766L246.1 318.776C245.941 319.74 245.631 320.627 245.171 321.437C244.718 322.242 244.134 322.937 243.42 323.524C242.711 324.105 241.901 324.555 240.988 324.874C240.075 325.193 239.08 325.353 238.001 325.353C236.303 325.353 234.791 324.951 233.463 324.147C232.136 323.336 231.089 322.178 230.323 320.672C229.563 319.165 229.184 317.369 229.184 315.282C229.184 313.188 229.567 311.392 230.333 309.892C231.098 308.386 232.145 307.23 233.473 306.426C234.8 305.616 236.31 305.21 238.001 305.21C239.041 305.21 240.011 305.36 240.911 305.66C241.818 305.954 242.631 306.388 243.352 306.962C244.074 307.53 244.67 308.226 245.143 309.049C245.615 309.866 245.934 310.801 246.1 311.854ZM252.273 316.354V325.085H249.41V305.478H252.234V312.773H252.416C252.761 311.982 253.287 311.353 253.996 310.887C254.704 310.422 255.63 310.189 256.772 310.189C257.781 310.189 258.661 310.396 259.414 310.811C260.174 311.226 260.761 311.845 261.176 312.668C261.597 313.485 261.808 314.506 261.808 315.732V325.085H258.945V316.076C258.945 314.998 258.668 314.162 258.112 313.568C257.557 312.968 256.785 312.668 255.796 312.668C255.119 312.668 254.513 312.812 253.977 313.099C253.447 313.386 253.029 313.807 252.723 314.363C252.423 314.912 252.273 315.575 252.273 316.354ZM269.907 325.41C268.975 325.41 268.133 325.238 267.38 324.893C266.626 324.542 266.03 324.035 265.589 323.371C265.155 322.708 264.938 321.894 264.938 320.93C264.938 320.1 265.098 319.417 265.417 318.881C265.736 318.345 266.167 317.921 266.709 317.608C267.252 317.295 267.858 317.059 268.528 316.9C269.198 316.74 269.881 316.619 270.577 316.536C271.458 316.434 272.173 316.351 272.722 316.287C273.27 316.217 273.669 316.105 273.918 315.952C274.167 315.799 274.292 315.55 274.292 315.205V315.138C274.292 314.302 274.055 313.654 273.583 313.195C273.117 312.735 272.422 312.505 271.496 312.505C270.532 312.505 269.773 312.719 269.218 313.147C268.669 313.568 268.289 314.037 268.078 314.554L265.388 313.941C265.707 313.048 266.173 312.327 266.786 311.778C267.405 311.223 268.117 310.82 268.921 310.572C269.725 310.316 270.571 310.189 271.458 310.189C272.045 310.189 272.667 310.259 273.325 310.399C273.988 310.533 274.607 310.782 275.182 311.146C275.763 311.51 276.238 312.03 276.608 312.706C276.979 313.377 277.164 314.248 277.164 315.32V325.085H274.368V323.075H274.253C274.068 323.445 273.791 323.808 273.42 324.166C273.05 324.523 272.575 324.82 271.994 325.056C271.413 325.292 270.717 325.41 269.907 325.41ZM270.529 323.113C271.321 323.113 271.997 322.956 272.559 322.644C273.127 322.331 273.558 321.923 273.851 321.418C274.151 320.908 274.301 320.362 274.301 319.781V317.886C274.199 317.988 274.001 318.084 273.708 318.173C273.42 318.256 273.092 318.329 272.722 318.393C272.351 318.451 271.991 318.505 271.64 318.556C271.289 318.601 270.995 318.639 270.759 318.671C270.204 318.741 269.696 318.859 269.237 319.025C268.784 319.191 268.42 319.43 268.145 319.743C267.877 320.049 267.743 320.458 267.743 320.968C267.743 321.677 268.005 322.213 268.528 322.577C269.052 322.934 269.719 323.113 270.529 323.113ZM287.84 310.38V312.678H279.808V310.38H287.84ZM281.962 306.857H284.825V320.767C284.825 321.323 284.908 321.741 285.074 322.021C285.24 322.296 285.453 322.484 285.715 322.586C285.983 322.682 286.274 322.73 286.586 322.73C286.816 322.73 287.017 322.714 287.189 322.682C287.362 322.65 287.496 322.625 287.592 322.605L288.108 324.97C287.943 325.034 287.706 325.098 287.4 325.162C287.094 325.232 286.711 325.27 286.251 325.276C285.498 325.289 284.796 325.155 284.145 324.874C283.494 324.594 282.968 324.16 282.565 323.572C282.163 322.985 281.962 322.248 281.962 321.361V306.857Z"
        fill="black" />
    <path
        d="M557.895 308.025V305.478H573.069V308.025H566.951V325.085H564.003V308.025H557.895ZM580.397 325.382C578.948 325.382 577.701 325.072 576.654 324.453C575.614 323.828 574.809 322.95 574.241 321.82C573.68 320.684 573.399 319.354 573.399 317.828C573.399 316.322 573.68 314.995 574.241 313.846C574.809 312.697 575.601 311.8 576.616 311.156C577.637 310.511 578.83 310.189 580.196 310.189C581.026 310.189 581.83 310.326 582.609 310.6C583.387 310.875 584.086 311.306 584.705 311.893C585.324 312.48 585.812 313.243 586.17 314.181C586.527 315.113 586.706 316.245 586.706 317.579V318.594H575.017V316.45H583.901C583.901 315.697 583.748 315.03 583.441 314.449C583.135 313.862 582.704 313.399 582.149 313.061C581.6 312.722 580.956 312.553 580.215 312.553C579.411 312.553 578.709 312.751 578.109 313.147C577.515 313.536 577.056 314.047 576.73 314.679C576.411 315.304 576.252 315.984 576.252 316.718V318.393C576.252 319.376 576.424 320.212 576.769 320.901C577.12 321.591 577.608 322.117 578.233 322.481C578.859 322.838 579.59 323.017 580.426 323.017C580.968 323.017 581.463 322.941 581.91 322.787C582.356 322.628 582.743 322.392 583.068 322.079C583.394 321.766 583.642 321.38 583.815 320.92L586.524 321.409C586.307 322.207 585.918 322.905 585.356 323.505C584.801 324.099 584.102 324.562 583.26 324.893C582.423 325.219 581.469 325.382 580.397 325.382ZM591.799 310.38L595.044 316.105L598.319 310.38H601.449L596.863 317.733L601.487 325.085H598.357L595.044 319.59L591.742 325.085H588.602L593.178 317.733L588.659 310.38H591.799ZM611.252 310.38V312.678H603.22V310.38H611.252ZM605.374 306.857H608.237V320.767C608.237 321.323 608.32 321.741 608.486 322.021C608.652 322.296 608.865 322.484 609.127 322.586C609.395 322.682 609.686 322.73 609.998 322.73C610.228 322.73 610.429 322.714 610.601 322.682C610.774 322.65 610.908 322.625 611.003 322.605L611.52 324.97C611.355 325.034 611.118 325.098 610.812 325.162C610.506 325.232 610.123 325.27 609.663 325.276C608.91 325.289 608.208 325.155 607.557 324.874C606.906 324.594 606.379 324.16 605.977 323.572C605.575 322.985 605.374 322.248 605.374 321.361V306.857ZM628.418 310.38V312.678H620.385V310.38H628.418ZM622.54 306.857H625.402V320.767C625.402 321.323 625.485 321.741 625.651 322.021C625.817 322.296 626.031 322.484 626.292 322.586C626.56 322.682 626.851 322.73 627.163 322.73C627.393 322.73 627.594 322.714 627.767 322.682C627.939 322.65 628.073 322.625 628.169 322.605L628.686 324.97C628.52 325.034 628.284 325.098 627.977 325.162C627.671 325.232 627.288 325.27 626.828 325.276C626.075 325.289 625.373 325.155 624.722 324.874C624.071 324.594 623.545 324.16 623.143 323.572C622.741 322.985 622.54 322.248 622.54 321.361V306.857ZM637.62 325.382C636.242 325.382 635.038 325.066 634.011 324.434C632.983 323.802 632.186 322.918 631.618 321.782C631.05 320.646 630.766 319.319 630.766 317.8C630.766 316.274 631.05 314.94 631.618 313.798C632.186 312.655 632.983 311.768 634.011 311.136C635.038 310.505 636.242 310.189 637.62 310.189C638.999 310.189 640.202 310.505 641.229 311.136C642.257 311.768 643.055 312.655 643.623 313.798C644.191 314.94 644.475 316.274 644.475 317.8C644.475 319.319 644.191 320.646 643.623 321.782C643.055 322.918 642.257 323.802 641.229 324.434C640.202 325.066 638.999 325.382 637.62 325.382ZM637.63 322.979C638.523 322.979 639.264 322.743 639.851 322.27C640.438 321.798 640.872 321.169 641.153 320.384C641.44 319.599 641.584 318.735 641.584 317.79C641.584 316.852 641.44 315.99 641.153 315.205C640.872 314.414 640.438 313.779 639.851 313.3C639.264 312.821 638.523 312.582 637.63 312.582C636.73 312.582 635.983 312.821 635.39 313.3C634.802 313.779 634.365 314.414 634.078 315.205C633.797 315.99 633.657 316.852 633.657 317.79C633.657 318.735 633.797 319.599 634.078 320.384C634.365 321.169 634.802 321.798 635.39 322.27C635.983 322.743 636.73 322.979 637.63 322.979ZM565.501 343.629C565.399 342.723 564.977 342.021 564.237 341.523C563.497 341.019 562.565 340.767 561.442 340.767C560.637 340.767 559.942 340.894 559.355 341.149C558.767 341.398 558.311 341.743 557.986 342.183C557.666 342.617 557.507 343.112 557.507 343.667C557.507 344.133 557.615 344.535 557.832 344.874C558.056 345.212 558.346 345.496 558.704 345.726C559.067 345.949 559.457 346.137 559.872 346.29C560.286 346.437 560.685 346.558 561.068 346.654L562.983 347.152C563.608 347.305 564.25 347.513 564.907 347.774C565.565 348.036 566.174 348.381 566.736 348.808C567.297 349.236 567.751 349.766 568.095 350.397C568.446 351.029 568.622 351.786 568.622 352.666C568.622 353.777 568.334 354.763 567.76 355.625C567.192 356.486 566.366 357.166 565.281 357.664C564.202 358.162 562.897 358.41 561.365 358.41C559.897 358.41 558.627 358.178 557.555 357.712C556.483 357.246 555.643 356.585 555.037 355.73C554.431 354.868 554.096 353.847 554.032 352.666H557C557.057 353.375 557.287 353.965 557.689 354.437C558.097 354.903 558.617 355.251 559.249 355.481C559.888 355.704 560.586 355.816 561.346 355.816C562.182 355.816 562.925 355.685 563.576 355.424C564.234 355.155 564.751 354.785 565.127 354.313C565.504 353.834 565.692 353.276 565.692 352.638C565.692 352.057 565.526 351.581 565.194 351.211C564.869 350.841 564.425 350.535 563.864 350.292C563.308 350.05 562.68 349.836 561.978 349.651L559.661 349.019C558.091 348.591 556.846 347.963 555.927 347.133C555.015 346.303 554.558 345.205 554.558 343.84C554.558 342.71 554.865 341.724 555.477 340.881C556.09 340.039 556.92 339.385 557.966 338.919C559.013 338.447 560.194 338.21 561.509 338.21C562.836 338.21 564.007 338.443 565.022 338.909C566.043 339.375 566.847 340.017 567.435 340.834C568.022 341.644 568.328 342.576 568.354 343.629H565.501ZM571.927 363.599V343.38H574.722V345.764H574.962C575.128 345.458 575.367 345.103 575.68 344.701C575.992 344.299 576.426 343.948 576.982 343.648C577.537 343.342 578.271 343.189 579.184 343.189C580.371 343.189 581.43 343.489 582.362 344.089C583.294 344.688 584.025 345.553 584.554 346.683C585.09 347.813 585.359 349.172 585.359 350.761C585.359 352.35 585.094 353.713 584.564 354.849C584.034 355.979 583.307 356.85 582.381 357.463C581.456 358.069 580.399 358.372 579.212 358.372C578.319 358.372 577.588 358.222 577.02 357.922C576.458 357.622 576.018 357.271 575.699 356.869C575.38 356.467 575.134 356.11 574.962 355.797H574.789V363.599H571.927ZM574.732 350.733C574.732 351.766 574.882 352.673 575.182 353.451C575.482 354.23 575.916 354.84 576.484 355.28C577.052 355.714 577.748 355.931 578.571 355.931C579.426 355.931 580.141 355.704 580.715 355.251C581.29 354.792 581.724 354.169 582.017 353.384C582.317 352.599 582.467 351.715 582.467 350.733C582.467 349.762 582.321 348.891 582.027 348.119C581.74 347.347 581.306 346.737 580.725 346.29C580.151 345.844 579.433 345.62 578.571 345.62C577.741 345.62 577.039 345.834 576.465 346.262C575.897 346.689 575.466 347.286 575.172 348.052C574.879 348.818 574.732 349.711 574.732 350.733ZM594.903 358.382C593.454 358.382 592.207 358.072 591.16 357.453C590.12 356.828 589.316 355.95 588.748 354.82C588.186 353.684 587.905 352.354 587.905 350.828C587.905 349.322 588.186 347.995 588.748 346.846C589.316 345.697 590.107 344.8 591.122 344.156C592.143 343.511 593.336 343.189 594.702 343.189C595.532 343.189 596.336 343.326 597.115 343.6C597.893 343.875 598.592 344.306 599.211 344.893C599.83 345.48 600.319 346.243 600.676 347.181C601.033 348.113 601.212 349.245 601.212 350.579V351.594H589.523V349.45H598.407C598.407 348.697 598.254 348.03 597.948 347.449C597.641 346.862 597.21 346.399 596.655 346.061C596.106 345.722 595.462 345.553 594.721 345.553C593.917 345.553 593.215 345.751 592.615 346.147C592.022 346.536 591.562 347.047 591.237 347.679C590.918 348.304 590.758 348.984 590.758 349.718V351.393C590.758 352.376 590.93 353.212 591.275 353.901C591.626 354.591 592.114 355.117 592.74 355.481C593.365 355.838 594.096 356.017 594.932 356.017C595.474 356.017 595.969 355.941 596.416 355.787C596.863 355.628 597.249 355.392 597.574 355.079C597.9 354.766 598.149 354.38 598.321 353.92L601.03 354.409C600.813 355.207 600.424 355.905 599.862 356.505C599.307 357.099 598.608 357.562 597.766 357.893C596.93 358.219 595.976 358.382 594.903 358.382ZM610.726 358.382C609.277 358.382 608.029 358.072 606.983 357.453C605.942 356.828 605.138 355.95 604.57 354.82C604.008 353.684 603.728 352.354 603.728 350.828C603.728 349.322 604.008 347.995 604.57 346.846C605.138 345.697 605.93 344.8 606.944 344.156C607.965 343.511 609.159 343.189 610.525 343.189C611.354 343.189 612.159 343.326 612.937 343.6C613.716 343.875 614.415 344.306 615.034 344.893C615.653 345.48 616.141 346.243 616.499 347.181C616.856 348.113 617.035 349.245 617.035 350.579V351.594H605.346V349.45H614.23C614.23 348.697 614.077 348.03 613.77 347.449C613.464 346.862 613.033 346.399 612.478 346.061C611.929 345.722 611.284 345.553 610.544 345.553C609.74 345.553 609.038 345.751 608.438 346.147C607.844 346.536 607.385 347.047 607.059 347.679C606.74 348.304 606.581 348.984 606.581 349.718V351.393C606.581 352.376 606.753 353.212 607.097 353.901C607.449 354.591 607.937 355.117 608.562 355.481C609.188 355.838 609.918 356.017 610.755 356.017C611.297 356.017 611.792 355.941 612.238 355.787C612.685 355.628 613.071 355.392 613.397 355.079C613.722 354.766 613.971 354.38 614.144 353.92L616.853 354.409C616.636 355.207 616.247 355.905 615.685 356.505C615.13 357.099 614.431 357.562 613.588 357.893C612.752 358.219 611.798 358.382 610.726 358.382ZM626.405 358.382C624.982 358.382 623.756 358.059 622.729 357.415C621.707 356.764 620.922 355.867 620.374 354.725C619.825 353.582 619.55 352.274 619.55 350.8C619.55 349.306 619.831 347.988 620.393 346.846C620.954 345.697 621.746 344.8 622.767 344.156C623.788 343.511 624.991 343.189 626.376 343.189C627.493 343.189 628.489 343.396 629.363 343.811C630.237 344.219 630.943 344.794 631.479 345.534C632.021 346.274 632.344 347.139 632.446 348.129H629.66C629.507 347.439 629.156 346.846 628.607 346.348C628.064 345.85 627.337 345.601 626.424 345.601C625.626 345.601 624.927 345.812 624.327 346.233C623.734 346.648 623.271 347.241 622.939 348.014C622.607 348.78 622.441 349.686 622.441 350.733C622.441 351.805 622.604 352.73 622.93 353.509C623.255 354.287 623.715 354.891 624.308 355.318C624.908 355.746 625.613 355.96 626.424 355.96C626.966 355.96 627.458 355.861 627.898 355.663C628.345 355.459 628.718 355.168 629.018 354.792C629.325 354.415 629.539 353.962 629.66 353.432H632.446C632.344 354.383 632.034 355.232 631.517 355.979C631 356.726 630.308 357.313 629.44 357.74C628.578 358.168 627.566 358.382 626.405 358.382ZM638.369 349.354V358.085H635.507V338.478H638.331V345.773H638.513C638.857 344.982 639.384 344.353 640.092 343.887C640.801 343.422 641.726 343.189 642.869 343.189C643.877 343.189 644.758 343.396 645.511 343.811C646.271 344.226 646.858 344.845 647.273 345.668C647.694 346.485 647.904 347.506 647.904 348.732V358.085H645.042V349.076C645.042 347.998 644.764 347.162 644.209 346.568C643.654 345.968 642.882 345.668 641.892 345.668C641.216 345.668 640.609 345.812 640.073 346.099C639.544 346.386 639.126 346.807 638.819 347.363C638.519 347.912 638.369 348.575 638.369 349.354Z"
        fill="black" />
    <path
        d="M904.524 305.478H908.114L914.356 320.719H914.586L920.828 305.478H924.418V325.085H921.603V310.897H921.421L915.639 325.056H913.303L907.52 310.887H907.339V325.085H904.524V305.478ZM932.768 325.41C931.836 325.41 930.994 325.238 930.241 324.893C929.488 324.542 928.891 324.035 928.45 323.371C928.016 322.708 927.799 321.894 927.799 320.93C927.799 320.1 927.959 319.417 928.278 318.881C928.597 318.345 929.028 317.921 929.571 317.608C930.113 317.295 930.719 317.059 931.39 316.9C932.06 316.74 932.743 316.619 933.438 316.536C934.319 316.434 935.034 316.351 935.583 316.287C936.132 316.217 936.53 316.105 936.779 315.952C937.028 315.799 937.153 315.55 937.153 315.205V315.138C937.153 314.302 936.917 313.654 936.444 313.195C935.978 312.735 935.283 312.505 934.357 312.505C933.394 312.505 932.634 312.719 932.079 313.147C931.53 313.568 931.15 314.037 930.94 314.554L928.249 313.941C928.569 313.048 929.034 312.327 929.647 311.778C930.266 311.223 930.978 310.82 931.782 310.572C932.586 310.316 933.432 310.189 934.319 310.189C934.906 310.189 935.528 310.259 936.186 310.399C936.85 310.533 937.469 310.782 938.043 311.146C938.624 311.51 939.099 312.03 939.47 312.706C939.84 313.377 940.025 314.248 940.025 315.32V325.085H937.229V323.075H937.114C936.929 323.445 936.652 323.808 936.282 324.166C935.911 324.523 935.436 324.82 934.855 325.056C934.274 325.292 933.579 325.41 932.768 325.41ZM933.39 323.113C934.182 323.113 934.858 322.956 935.42 322.644C935.988 322.331 936.419 321.923 936.712 321.418C937.012 320.908 937.162 320.362 937.162 319.781V317.886C937.06 317.988 936.862 318.084 936.569 318.173C936.282 318.256 935.953 318.329 935.583 318.393C935.213 318.451 934.852 318.505 934.501 318.556C934.15 318.601 933.856 318.639 933.62 318.671C933.065 318.741 932.558 318.859 932.098 319.025C931.645 319.191 931.281 319.43 931.007 319.743C930.739 320.049 930.605 320.458 930.605 320.968C930.605 321.677 930.866 322.213 931.39 322.577C931.913 322.934 932.58 323.113 933.39 323.113ZM943.837 330.599V310.38H946.633V312.764H946.872C947.038 312.458 947.278 312.103 947.59 311.701C947.903 311.299 948.337 310.948 948.892 310.648C949.448 310.342 950.181 310.189 951.094 310.189C952.281 310.189 953.341 310.489 954.273 311.089C955.204 311.688 955.935 312.553 956.465 313.683C957.001 314.813 957.269 316.172 957.269 317.761C957.269 319.35 957.004 320.713 956.474 321.849C955.945 322.979 955.217 323.85 954.292 324.463C953.366 325.069 952.31 325.372 951.123 325.372C950.229 325.372 949.499 325.222 948.931 324.922C948.369 324.622 947.929 324.271 947.609 323.869C947.29 323.467 947.045 323.11 946.872 322.797H946.7V330.599H943.837ZM946.642 317.733C946.642 318.766 946.792 319.673 947.092 320.451C947.392 321.23 947.826 321.84 948.394 322.28C948.962 322.714 949.658 322.931 950.481 322.931C951.337 322.931 952.051 322.704 952.626 322.251C953.2 321.792 953.634 321.169 953.928 320.384C954.228 319.599 954.378 318.715 954.378 317.733C954.378 316.762 954.231 315.891 953.937 315.119C953.65 314.347 953.216 313.737 952.635 313.29C952.061 312.844 951.343 312.62 950.481 312.62C949.652 312.62 948.95 312.834 948.375 313.262C947.807 313.689 947.376 314.286 947.083 315.052C946.789 315.818 946.642 316.711 946.642 317.733ZM964.755 325.41C963.824 325.41 962.981 325.238 962.228 324.893C961.475 324.542 960.878 324.035 960.438 323.371C960.004 322.708 959.787 321.894 959.787 320.93C959.787 320.1 959.946 319.417 960.266 318.881C960.585 318.345 961.015 317.921 961.558 317.608C962.1 317.295 962.707 317.059 963.377 316.9C964.047 316.74 964.73 316.619 965.426 316.536C966.306 316.434 967.021 316.351 967.57 316.287C968.119 316.217 968.518 316.105 968.767 315.952C969.016 315.799 969.14 315.55 969.14 315.205V315.138C969.14 314.302 968.904 313.654 968.432 313.195C967.966 312.735 967.27 312.505 966.345 312.505C965.381 312.505 964.621 312.719 964.066 313.147C963.517 313.568 963.138 314.037 962.927 314.554L960.237 313.941C960.556 313.048 961.022 312.327 961.635 311.778C962.254 311.223 962.965 310.82 963.769 310.572C964.574 310.316 965.419 310.189 966.306 310.189C966.894 310.189 967.516 310.259 968.173 310.399C968.837 310.533 969.456 310.782 970.03 311.146C970.611 311.51 971.087 312.03 971.457 312.706C971.827 313.377 972.012 314.248 972.012 315.32V325.085H969.217V323.075H969.102C968.917 323.445 968.639 323.808 968.269 324.166C967.899 324.523 967.423 324.82 966.843 325.056C966.262 325.292 965.566 325.41 964.755 325.41ZM965.378 323.113C966.169 323.113 966.846 322.956 967.407 322.644C967.975 322.331 968.406 321.923 968.7 321.418C969 320.908 969.15 320.362 969.15 319.781V317.886C969.048 317.988 968.85 318.084 968.556 318.173C968.269 318.256 967.94 318.329 967.57 318.393C967.2 318.451 966.839 318.505 966.488 318.556C966.137 318.601 965.844 318.639 965.608 318.671C965.052 318.741 964.545 318.859 964.085 319.025C963.632 319.191 963.268 319.43 962.994 319.743C962.726 320.049 962.592 320.458 962.592 320.968C962.592 321.677 962.854 322.213 963.377 322.577C963.9 322.934 964.567 323.113 965.378 323.113ZM989.297 325.382C987.848 325.382 986.601 325.072 985.554 324.453C984.514 323.828 983.709 322.95 983.141 321.82C982.58 320.684 982.299 319.354 982.299 317.828C982.299 316.322 982.58 314.995 983.141 313.846C983.709 312.697 984.501 311.8 985.516 311.156C986.537 310.511 987.73 310.189 989.096 310.189C989.926 310.189 990.73 310.326 991.509 310.6C992.287 310.875 992.986 311.306 993.605 311.893C994.224 312.48 994.712 313.243 995.07 314.181C995.427 315.113 995.606 316.245 995.606 317.579V318.594H983.917V316.45H992.801C992.801 315.697 992.648 315.03 992.341 314.449C992.035 313.862 991.604 313.399 991.049 313.061C990.5 312.722 989.856 312.553 989.115 312.553C988.311 312.553 987.609 312.751 987.009 313.147C986.415 313.536 985.956 314.047 985.63 314.679C985.311 315.304 985.152 315.984 985.152 316.718V318.393C985.152 319.376 985.324 320.212 985.669 320.901C986.02 321.591 986.508 322.117 987.133 322.481C987.759 322.838 988.49 323.017 989.326 323.017C989.868 323.017 990.363 322.941 990.81 322.787C991.256 322.628 991.643 322.392 991.968 322.079C992.294 321.766 992.542 321.38 992.715 320.92L995.424 321.409C995.207 322.207 994.818 322.905 994.256 323.505C993.701 324.099 993.002 324.562 992.16 324.893C991.323 325.219 990.369 325.382 989.297 325.382ZM1001.64 316.354V325.085H998.782V310.38H1001.53V312.773H1001.71C1002.05 311.995 1002.58 311.369 1003.3 310.897C1004.03 310.425 1004.94 310.189 1006.05 310.189C1007.05 310.189 1007.93 310.399 1008.68 310.82C1009.43 311.235 1010.02 311.854 1010.43 312.678C1010.85 313.501 1011.06 314.519 1011.06 315.732V325.085H1008.19V316.076C1008.19 315.01 1007.92 314.178 1007.36 313.578C1006.8 312.971 1006.04 312.668 1005.07 312.668C1004.41 312.668 1003.82 312.812 1003.3 313.099C1002.79 313.386 1002.38 313.807 1002.08 314.363C1001.79 314.912 1001.64 315.575 1001.64 316.354ZM894.401 343.38V345.678H886.369V343.38H894.401ZM888.523 339.857H891.386V353.767C891.386 354.323 891.469 354.741 891.634 355.021C891.8 355.296 892.014 355.484 892.276 355.586C892.544 355.682 892.834 355.73 893.147 355.73C893.377 355.73 893.578 355.714 893.75 355.682C893.923 355.65 894.057 355.625 894.152 355.605L894.669 357.97C894.503 358.034 894.267 358.098 893.961 358.162C893.654 358.232 893.272 358.27 892.812 358.276C892.059 358.289 891.357 358.155 890.706 357.874C890.055 357.594 889.528 357.16 889.126 356.572C888.724 355.985 888.523 355.248 888.523 354.361V339.857ZM897.568 358.085V343.38H900.43V358.085H897.568ZM899.013 341.111C898.515 341.111 898.088 340.945 897.73 340.613C897.379 340.275 897.204 339.873 897.204 339.407C897.204 338.935 897.379 338.533 897.73 338.201C898.088 337.863 898.515 337.693 899.013 337.693C899.511 337.693 899.935 337.863 900.287 338.201C900.644 338.533 900.823 338.935 900.823 339.407C900.823 339.873 900.644 340.275 900.287 340.613C899.935 340.945 899.511 341.111 899.013 341.111ZM910.619 358.382C909.17 358.382 907.922 358.072 906.875 357.453C905.835 356.828 905.031 355.95 904.463 354.82C903.901 353.684 903.62 352.354 903.62 350.828C903.62 349.322 903.901 347.995 904.463 346.846C905.031 345.697 905.822 344.8 906.837 344.156C907.858 343.511 909.052 343.189 910.418 343.189C911.247 343.189 912.052 343.326 912.83 343.6C913.609 343.875 914.308 344.306 914.927 344.893C915.546 345.48 916.034 346.243 916.391 347.181C916.749 348.113 916.928 349.245 916.928 350.579V351.594H905.238V349.45H914.123C914.123 348.697 913.969 348.03 913.663 347.449C913.357 346.862 912.926 346.399 912.371 346.061C911.822 345.722 911.177 345.553 910.437 345.553C909.633 345.553 908.931 345.751 908.331 346.147C907.737 346.536 907.278 347.047 906.952 347.679C906.633 348.304 906.473 348.984 906.473 349.718V351.393C906.473 352.376 906.646 353.212 906.99 353.901C907.341 354.591 907.83 355.117 908.455 355.481C909.081 355.838 909.811 356.017 910.647 356.017C911.19 356.017 911.685 355.941 912.131 355.787C912.578 355.628 912.964 355.392 913.29 355.079C913.615 354.766 913.864 354.38 914.036 353.92L916.746 354.409C916.529 355.207 916.139 355.905 915.578 356.505C915.022 357.099 914.324 357.562 913.481 357.893C912.645 358.219 911.691 358.382 910.619 358.382ZM920.104 358.085V343.38H922.851V345.773H923.033C923.339 344.963 923.84 344.331 924.536 343.878C925.232 343.418 926.065 343.189 927.035 343.189C928.018 343.189 928.841 343.418 929.505 343.878C930.175 344.337 930.67 344.969 930.989 345.773H931.142C931.493 344.988 932.051 344.363 932.817 343.897C933.583 343.425 934.496 343.189 935.555 343.189C936.889 343.189 937.977 343.607 938.82 344.443C939.669 345.279 940.093 346.539 940.093 348.224V358.085H937.231V348.492C937.231 347.497 936.959 346.775 936.417 346.329C935.874 345.882 935.227 345.659 934.473 345.659C933.542 345.659 932.817 345.946 932.3 346.52C931.783 347.088 931.525 347.819 931.525 348.713V358.085H928.672V348.31C928.672 347.513 928.423 346.871 927.925 346.386C927.427 345.901 926.78 345.659 925.982 345.659C925.439 345.659 924.938 345.802 924.479 346.089C924.026 346.37 923.659 346.763 923.378 347.267C923.103 347.771 922.966 348.355 922.966 349.019V358.085H920.104ZM943.93 363.599V343.38H946.725V345.764H946.964C947.13 345.458 947.37 345.103 947.682 344.701C947.995 344.299 948.429 343.948 948.984 343.648C949.54 343.342 950.274 343.189 951.186 343.189C952.373 343.189 953.433 343.489 954.365 344.089C955.296 344.688 956.027 345.553 956.557 346.683C957.093 347.813 957.361 349.172 957.361 350.761C957.361 352.35 957.096 353.713 956.567 354.849C956.037 355.979 955.309 356.85 954.384 357.463C953.458 358.069 952.402 358.372 951.215 358.372C950.321 358.372 949.591 358.222 949.023 357.922C948.461 357.622 948.021 357.271 947.702 356.869C947.382 356.467 947.137 356.11 946.964 355.797H946.792V363.599H943.93ZM946.735 350.733C946.735 351.766 946.885 352.673 947.185 353.451C947.485 354.23 947.919 354.84 948.487 355.28C949.055 355.714 949.75 355.931 950.574 355.931C951.429 355.931 952.144 355.704 952.718 355.251C953.292 354.792 953.726 354.169 954.02 353.384C954.32 352.599 954.47 351.715 954.47 350.733C954.47 349.762 954.323 348.891 954.03 348.119C953.742 347.347 953.308 346.737 952.728 346.29C952.153 345.844 951.435 345.62 950.574 345.62C949.744 345.62 949.042 345.834 948.467 346.262C947.899 346.689 947.469 347.286 947.175 348.052C946.881 348.818 946.735 349.711 946.735 350.733ZM966.762 358.382C965.384 358.382 964.181 358.066 963.153 357.434C962.126 356.802 961.328 355.918 960.76 354.782C960.192 353.646 959.908 352.319 959.908 350.8C959.908 349.274 960.192 347.94 960.76 346.798C961.328 345.655 962.126 344.768 963.153 344.136C964.181 343.505 965.384 343.189 966.762 343.189C968.141 343.189 969.344 343.505 970.372 344.136C971.399 344.768 972.197 345.655 972.765 346.798C973.333 347.94 973.617 349.274 973.617 350.8C973.617 352.319 973.333 353.646 972.765 354.782C972.197 355.918 971.399 356.802 970.372 357.434C969.344 358.066 968.141 358.382 966.762 358.382ZM966.772 355.979C967.665 355.979 968.406 355.743 968.993 355.27C969.58 354.798 970.014 354.169 970.295 353.384C970.582 352.599 970.726 351.735 970.726 350.79C970.726 349.852 970.582 348.99 970.295 348.205C970.014 347.414 969.58 346.779 968.993 346.3C968.406 345.821 967.665 345.582 966.772 345.582C965.872 345.582 965.125 345.821 964.532 346.3C963.945 346.779 963.507 347.414 963.22 348.205C962.939 348.99 962.799 349.852 962.799 350.79C962.799 351.735 962.939 352.599 963.22 353.384C963.507 354.169 963.945 354.798 964.532 355.27C965.125 355.743 965.872 355.979 966.772 355.979ZM983.947 358.085V343.38H986.713V345.716H986.867C987.135 344.925 987.607 344.302 988.283 343.849C988.966 343.39 989.739 343.16 990.6 343.16C990.779 343.16 990.99 343.166 991.232 343.179C991.481 343.192 991.676 343.208 991.816 343.227V345.965C991.701 345.933 991.497 345.898 991.203 345.86C990.91 345.815 990.616 345.793 990.323 345.793C989.646 345.793 989.043 345.936 988.513 346.223C987.99 346.504 987.575 346.897 987.269 347.401C986.962 347.899 986.809 348.467 986.809 349.105V358.085H983.947ZM1000.1 358.382C998.656 358.382 997.408 358.072 996.361 357.453C995.321 356.828 994.517 355.95 993.949 354.82C993.387 353.684 993.106 352.354 993.106 350.828C993.106 349.322 993.387 347.995 993.949 346.846C994.517 345.697 995.308 344.8 996.323 344.156C997.344 343.511 998.537 343.189 999.903 343.189C1000.73 343.189 1001.54 343.326 1002.32 343.6C1003.09 343.875 1003.79 344.306 1004.41 344.893C1005.03 345.48 1005.52 346.243 1005.88 347.181C1006.23 348.113 1006.41 349.245 1006.41 350.579V351.594H994.724V349.45H1003.61C1003.61 348.697 1003.46 348.03 1003.15 347.449C1002.84 346.862 1002.41 346.399 1001.86 346.061C1001.31 345.722 1000.66 345.553 999.922 345.553C999.118 345.553 998.416 345.751 997.816 346.147C997.223 346.536 996.763 347.047 996.438 347.679C996.119 348.304 995.959 348.984 995.959 349.718V351.393C995.959 352.376 996.131 353.212 996.476 353.901C996.827 354.591 997.315 355.117 997.941 355.481C998.566 355.838 999.297 356.017 1000.13 356.017C1000.68 356.017 1001.17 355.941 1001.62 355.787C1002.06 355.628 1002.45 355.392 1002.78 355.079C1003.1 354.766 1003.35 354.38 1003.52 353.92L1006.23 354.409C1006.01 355.207 1005.63 355.905 1005.06 356.505C1004.51 357.099 1003.81 357.562 1002.97 357.893C1002.13 358.219 1001.18 358.382 1000.1 358.382ZM1013.87 358.41C1012.94 358.41 1012.09 358.238 1011.34 357.893C1010.59 357.542 1009.99 357.035 1009.55 356.371C1009.12 355.708 1008.9 354.894 1008.9 353.93C1008.9 353.1 1009.06 352.417 1009.38 351.881C1009.7 351.345 1010.13 350.921 1010.67 350.608C1011.21 350.295 1011.82 350.059 1012.49 349.9C1013.16 349.74 1013.84 349.619 1014.54 349.536C1015.42 349.434 1016.13 349.351 1016.68 349.287C1017.23 349.217 1017.63 349.105 1017.88 348.952C1018.13 348.799 1018.25 348.55 1018.25 348.205V348.138C1018.25 347.302 1018.02 346.654 1017.54 346.195C1017.08 345.735 1016.38 345.505 1015.46 345.505C1014.49 345.505 1013.73 345.719 1013.18 346.147C1012.63 346.568 1012.25 347.037 1012.04 347.554L1009.35 346.941C1009.67 346.048 1010.13 345.327 1010.75 344.778C1011.37 344.223 1012.08 343.82 1012.88 343.572C1013.69 343.316 1014.53 343.189 1015.42 343.189C1016.01 343.189 1016.63 343.259 1017.29 343.399C1017.95 343.533 1018.57 343.782 1019.14 344.146C1019.72 344.51 1020.2 345.03 1020.57 345.706C1020.94 346.377 1021.13 347.248 1021.13 348.32V358.085H1018.33V356.075H1018.21C1018.03 356.445 1017.75 356.808 1017.38 357.166C1017.01 357.523 1016.54 357.82 1015.96 358.056C1015.37 358.292 1014.68 358.41 1013.87 358.41ZM1014.49 356.113C1015.28 356.113 1015.96 355.956 1016.52 355.644C1017.09 355.331 1017.52 354.923 1017.81 354.418C1018.11 353.908 1018.26 353.362 1018.26 352.781V350.886C1018.16 350.988 1017.96 351.084 1017.67 351.173C1017.38 351.256 1017.05 351.329 1016.68 351.393C1016.31 351.451 1015.95 351.505 1015.6 351.556C1015.25 351.601 1014.96 351.639 1014.72 351.671C1014.17 351.741 1013.66 351.859 1013.2 352.025C1012.75 352.191 1012.38 352.43 1012.11 352.743C1011.84 353.049 1011.7 353.458 1011.7 353.968C1011.7 354.677 1011.97 355.213 1012.49 355.577C1013.01 355.934 1013.68 356.113 1014.49 356.113ZM1027.8 338.478V358.085H1024.94V338.478H1027.8Z"
        fill="black" />
    <path
        d="M1269.59 305.478L1275.05 321.447H1275.27L1280.72 305.478H1283.92L1276.86 325.085H1273.45L1266.39 305.478H1269.59ZM1291.24 325.382C1289.86 325.382 1288.66 325.066 1287.63 324.434C1286.6 323.802 1285.81 322.918 1285.24 321.782C1284.67 320.646 1284.39 319.319 1284.39 317.8C1284.39 316.274 1284.67 314.94 1285.24 313.798C1285.81 312.655 1286.6 311.768 1287.63 311.136C1288.66 310.505 1289.86 310.189 1291.24 310.189C1292.62 310.189 1293.82 310.505 1294.85 311.136C1295.88 311.768 1296.68 312.655 1297.24 313.798C1297.81 314.94 1298.1 316.274 1298.1 317.8C1298.1 319.319 1297.81 320.646 1297.24 321.782C1296.68 322.918 1295.88 323.802 1294.85 324.434C1293.82 325.066 1292.62 325.382 1291.24 325.382ZM1291.25 322.979C1292.14 322.979 1292.88 322.743 1293.47 322.27C1294.06 321.798 1294.49 321.169 1294.77 320.384C1295.06 319.599 1295.2 318.735 1295.2 317.79C1295.2 316.852 1295.06 315.99 1294.77 315.205C1294.49 314.414 1294.06 313.779 1293.47 313.3C1292.88 312.821 1292.14 312.582 1291.25 312.582C1290.35 312.582 1289.6 312.821 1289.01 313.3C1288.42 313.779 1287.99 314.414 1287.7 315.205C1287.42 315.99 1287.28 316.852 1287.28 317.79C1287.28 318.735 1287.42 319.599 1287.7 320.384C1287.99 321.169 1288.42 321.798 1289.01 322.27C1289.6 322.743 1290.35 322.979 1291.25 322.979ZM1300.98 325.085V323.122L1308.95 313.003V312.869H1301.24V310.38H1312.52V312.467L1304.86 322.462V322.596H1312.79V325.085H1300.98ZM1327.58 325.41C1326.65 325.41 1325.81 325.238 1325.05 324.893C1324.3 324.542 1323.7 324.035 1323.26 323.371C1322.83 322.708 1322.61 321.894 1322.61 320.93C1322.61 320.1 1322.77 319.417 1323.09 318.881C1323.41 318.345 1323.84 317.921 1324.38 317.608C1324.92 317.295 1325.53 317.059 1326.2 316.9C1326.87 316.74 1327.55 316.619 1328.25 316.536C1329.13 316.434 1329.85 316.351 1330.39 316.287C1330.94 316.217 1331.34 316.105 1331.59 315.952C1331.84 315.799 1331.96 315.55 1331.96 315.205V315.138C1331.96 314.302 1331.73 313.654 1331.26 313.195C1330.79 312.735 1330.09 312.505 1329.17 312.505C1328.21 312.505 1327.45 312.719 1326.89 313.147C1326.34 313.568 1325.96 314.037 1325.75 314.554L1323.06 313.941C1323.38 313.048 1323.85 312.327 1324.46 311.778C1325.08 311.223 1325.79 310.82 1326.59 310.572C1327.4 310.316 1328.24 310.189 1329.13 310.189C1329.72 310.189 1330.34 310.259 1331 310.399C1331.66 310.533 1332.28 310.782 1332.85 311.146C1333.44 311.51 1333.91 312.03 1334.28 312.706C1334.65 313.377 1334.84 314.248 1334.84 315.32V325.085H1332.04V323.075H1331.93C1331.74 323.445 1331.46 323.808 1331.09 324.166C1330.72 324.523 1330.25 324.82 1329.67 325.056C1329.09 325.292 1328.39 325.41 1327.58 325.41ZM1328.2 323.113C1328.99 323.113 1329.67 322.956 1330.23 322.644C1330.8 322.331 1331.23 321.923 1331.52 321.418C1331.82 320.908 1331.97 320.362 1331.97 319.781V317.886C1331.87 317.988 1331.67 318.084 1331.38 318.173C1331.09 318.256 1330.76 318.329 1330.39 318.393C1330.02 318.451 1329.66 318.505 1329.31 318.556C1328.96 318.601 1328.67 318.639 1328.43 318.671C1327.88 318.741 1327.37 318.859 1326.91 319.025C1326.46 319.191 1326.09 319.43 1325.82 319.743C1325.55 320.049 1325.42 320.458 1325.42 320.968C1325.42 321.677 1325.68 322.213 1326.2 322.577C1326.72 322.934 1327.39 323.113 1328.2 323.113ZM1270.04 341.025V338.478H1285.21V341.025H1279.1V358.085H1276.15V341.025H1270.04ZM1292.54 358.382C1291.09 358.382 1289.85 358.072 1288.8 357.453C1287.76 356.828 1286.96 355.95 1286.39 354.82C1285.83 353.684 1285.54 352.354 1285.54 350.828C1285.54 349.322 1285.83 347.995 1286.39 346.846C1286.96 345.697 1287.75 344.8 1288.76 344.156C1289.78 343.511 1290.98 343.189 1292.34 343.189C1293.17 343.189 1293.98 343.326 1294.75 343.6C1295.53 343.875 1296.23 344.306 1296.85 344.893C1297.47 345.48 1297.96 346.243 1298.32 347.181C1298.67 348.113 1298.85 349.245 1298.85 350.579V351.594H1287.16V349.45H1296.05C1296.05 348.697 1295.89 348.03 1295.59 347.449C1295.28 346.862 1294.85 346.399 1294.3 346.061C1293.75 345.722 1293.1 345.553 1292.36 345.553C1291.56 345.553 1290.86 345.751 1290.26 346.147C1289.66 346.536 1289.2 347.047 1288.88 347.679C1288.56 348.304 1288.4 348.984 1288.4 349.718V351.393C1288.4 352.376 1288.57 353.212 1288.91 353.901C1289.27 354.591 1289.75 355.117 1290.38 355.481C1291.01 355.838 1291.74 356.017 1292.57 356.017C1293.11 356.017 1293.61 355.941 1294.06 355.787C1294.5 355.628 1294.89 355.392 1295.21 355.079C1295.54 354.766 1295.79 354.38 1295.96 353.92L1298.67 354.409C1298.45 355.207 1298.06 355.905 1297.5 356.505C1296.95 357.099 1296.25 357.562 1295.41 357.893C1294.57 358.219 1293.62 358.382 1292.54 358.382ZM1303.95 343.38L1307.19 349.105L1310.46 343.38H1313.6L1309.01 350.733L1313.63 358.085H1310.5L1307.19 352.59L1303.89 358.085H1300.75L1305.32 350.733L1300.81 343.38H1303.95ZM1323.4 343.38V345.678H1315.37V343.38H1323.4ZM1317.52 339.857H1320.38V353.767C1320.38 354.323 1320.47 354.741 1320.63 355.021C1320.8 355.296 1321.01 355.484 1321.27 355.586C1321.54 355.682 1321.83 355.73 1322.14 355.73C1322.37 355.73 1322.58 355.714 1322.75 355.682C1322.92 355.65 1323.05 355.625 1323.15 355.605L1323.67 357.97C1323.5 358.034 1323.26 358.098 1322.96 358.162C1322.65 358.232 1322.27 358.27 1321.81 358.276C1321.06 358.289 1320.35 358.155 1319.7 357.874C1319.05 357.594 1318.53 357.16 1318.12 356.572C1317.72 355.985 1317.52 355.248 1317.52 354.361V339.857ZM1332.6 358.382C1331.22 358.382 1330.02 358.066 1328.99 357.434C1327.96 356.802 1327.17 355.918 1326.6 354.782C1326.03 353.646 1325.75 352.319 1325.75 350.8C1325.75 349.274 1326.03 347.94 1326.6 346.798C1327.17 345.655 1327.96 344.768 1328.99 344.136C1330.02 343.505 1331.22 343.189 1332.6 343.189C1333.98 343.189 1335.18 343.505 1336.21 344.136C1337.24 344.768 1338.04 345.655 1338.6 346.798C1339.17 347.94 1339.46 349.274 1339.46 350.8C1339.46 352.319 1339.17 353.646 1338.6 354.782C1338.04 355.918 1337.24 356.802 1336.21 357.434C1335.18 358.066 1333.98 358.382 1332.6 358.382ZM1332.61 355.979C1333.5 355.979 1334.24 355.743 1334.83 355.27C1335.42 354.798 1335.85 354.169 1336.13 353.384C1336.42 352.599 1336.56 351.735 1336.56 350.79C1336.56 349.852 1336.42 348.99 1336.13 348.205C1335.85 347.414 1335.42 346.779 1334.83 346.3C1334.24 345.821 1333.5 345.582 1332.61 345.582C1331.71 345.582 1330.96 345.821 1330.37 346.3C1329.78 346.779 1329.35 347.414 1329.06 348.205C1328.78 348.99 1328.64 349.852 1328.64 350.79C1328.64 351.735 1328.78 352.599 1329.06 353.384C1329.35 354.169 1329.78 354.798 1330.37 355.27C1330.96 355.743 1331.71 355.979 1332.61 355.979Z"
        fill="black" />
    <path
        d="M1578.12 305.478V325.085H1575.16V305.478H1578.12ZM1584.09 325.085H1580.95L1588 305.478H1591.42L1598.48 325.085H1595.34L1589.79 309.04H1589.64L1584.09 325.085ZM1584.61 317.407H1594.8V319.896H1584.61V317.407ZM1608.21 325.085V310.38H1611.07V325.085H1608.21ZM1609.66 308.111C1609.16 308.111 1608.73 307.945 1608.37 307.613C1608.02 307.275 1607.85 306.873 1607.85 306.407C1607.85 305.935 1608.02 305.533 1608.37 305.201C1608.73 304.863 1609.16 304.693 1609.66 304.693C1610.15 304.693 1610.58 304.863 1610.93 305.201C1611.29 305.533 1611.47 305.935 1611.47 306.407C1611.47 306.873 1611.29 307.275 1610.93 307.613C1610.58 307.945 1610.15 308.111 1609.66 308.111ZM1617.79 316.354V325.085H1614.92V310.38H1617.67V312.773H1617.85C1618.19 311.995 1618.72 311.369 1619.44 310.897C1620.17 310.425 1621.09 310.189 1622.19 310.189C1623.19 310.189 1624.07 310.399 1624.82 310.82C1625.58 311.235 1626.16 311.854 1626.58 312.678C1626.99 313.501 1627.2 314.519 1627.2 315.732V325.085H1624.34V316.076C1624.34 315.01 1624.06 314.178 1623.5 313.578C1622.95 312.971 1622.18 312.668 1621.21 312.668C1620.55 312.668 1619.96 312.812 1619.44 313.099C1618.93 313.386 1618.53 313.807 1618.23 314.363C1617.93 314.912 1617.79 315.575 1617.79 316.354ZM1637.9 310.38V312.678H1629.87V310.38H1637.9ZM1632.02 306.857H1634.89V320.767C1634.89 321.323 1634.97 321.741 1635.13 322.021C1635.3 322.296 1635.51 322.484 1635.78 322.586C1636.04 322.682 1636.33 322.73 1636.65 322.73C1636.88 322.73 1637.08 322.714 1637.25 322.682C1637.42 322.65 1637.56 322.625 1637.65 322.605L1638.17 324.97C1638 325.034 1637.77 325.098 1637.46 325.162C1637.15 325.232 1636.77 325.27 1636.31 325.276C1635.56 325.289 1634.86 325.155 1634.21 324.874C1633.55 324.594 1633.03 324.16 1632.63 323.572C1632.22 322.985 1632.02 322.248 1632.02 321.361V306.857ZM1647.25 325.382C1645.8 325.382 1644.55 325.072 1643.5 324.453C1642.46 323.828 1641.66 322.95 1641.09 321.82C1640.53 320.684 1640.25 319.354 1640.25 317.828C1640.25 316.322 1640.53 314.995 1641.09 313.846C1641.66 312.697 1642.45 311.8 1643.47 311.156C1644.49 310.511 1645.68 310.189 1647.05 310.189C1647.88 310.189 1648.68 310.326 1649.46 310.6C1650.24 310.875 1650.94 311.306 1651.56 311.893C1652.17 312.48 1652.66 313.243 1653.02 314.181C1653.38 315.113 1653.56 316.245 1653.56 317.579V318.594H1641.87V316.45H1650.75C1650.75 315.697 1650.6 315.03 1650.29 314.449C1649.99 313.862 1649.55 313.399 1649 313.061C1648.45 312.722 1647.81 312.553 1647.07 312.553C1646.26 312.553 1645.56 312.751 1644.96 313.147C1644.37 313.536 1643.91 314.047 1643.58 314.679C1643.26 315.304 1643.1 315.984 1643.1 316.718V318.393C1643.1 319.376 1643.27 320.212 1643.62 320.901C1643.97 321.591 1644.46 322.117 1645.08 322.481C1645.71 322.838 1646.44 323.017 1647.28 323.017C1647.82 323.017 1648.31 322.941 1648.76 322.787C1649.21 322.628 1649.59 322.392 1649.92 322.079C1650.24 321.766 1650.49 321.38 1650.66 320.92L1653.37 321.409C1653.16 322.207 1652.77 322.905 1652.21 323.505C1651.65 324.099 1650.95 324.562 1650.11 324.893C1649.27 325.219 1648.32 325.382 1647.25 325.382ZM1662.9 330.906C1661.73 330.906 1660.72 330.752 1659.88 330.446C1659.05 330.14 1658.36 329.734 1657.83 329.23C1657.3 328.726 1656.91 328.174 1656.65 327.574L1659.11 326.559C1659.28 326.84 1659.51 327.137 1659.8 327.45C1660.09 327.769 1660.48 328.04 1660.98 328.263C1661.49 328.487 1662.13 328.598 1662.93 328.598C1664.01 328.598 1664.91 328.334 1665.62 327.804C1666.32 327.28 1666.68 326.444 1666.68 325.296V322.404H1666.5C1666.32 322.717 1666.08 323.065 1665.75 323.448C1665.43 323.831 1664.99 324.163 1664.43 324.444C1663.87 324.724 1663.14 324.865 1662.24 324.865C1661.08 324.865 1660.03 324.594 1659.1 324.051C1658.17 323.502 1657.44 322.695 1656.89 321.629C1656.36 320.557 1656.09 319.239 1656.09 317.675C1656.09 316.111 1656.36 314.771 1656.89 313.654C1657.42 312.537 1658.16 311.682 1659.09 311.089C1660.02 310.489 1661.08 310.189 1662.26 310.189C1663.17 310.189 1663.91 310.342 1664.47 310.648C1665.03 310.948 1665.47 311.299 1665.78 311.701C1666.1 312.103 1666.34 312.458 1666.52 312.764H1666.73V310.38H1669.53V325.41C1669.53 326.674 1669.24 327.711 1668.65 328.522C1668.06 329.332 1667.27 329.932 1666.27 330.322C1665.27 330.711 1664.15 330.906 1662.9 330.906ZM1662.87 322.491C1663.69 322.491 1664.39 322.299 1664.96 321.916C1665.53 321.527 1665.96 320.972 1666.26 320.25C1666.56 319.523 1666.71 318.652 1666.71 317.637C1666.71 316.648 1666.56 315.776 1666.27 315.023C1665.97 314.27 1665.54 313.683 1664.97 313.262C1664.41 312.834 1663.7 312.62 1662.87 312.62C1662.01 312.62 1661.29 312.844 1660.71 313.29C1660.14 313.731 1659.71 314.331 1659.41 315.09C1659.13 315.85 1658.98 316.699 1658.98 317.637C1658.98 318.601 1659.13 319.446 1659.42 320.174C1659.72 320.901 1660.15 321.469 1660.72 321.878C1661.31 322.286 1662.02 322.491 1662.87 322.491ZM1673.37 325.085V310.38H1676.14V312.716H1676.29C1676.56 311.925 1677.03 311.302 1677.71 310.849C1678.39 310.39 1679.16 310.16 1680.02 310.16C1680.2 310.16 1680.41 310.166 1680.66 310.179C1680.91 310.192 1681.1 310.208 1681.24 310.227V312.965C1681.13 312.933 1680.92 312.898 1680.63 312.86C1680.33 312.815 1680.04 312.793 1679.75 312.793C1679.07 312.793 1678.47 312.936 1677.94 313.223C1677.41 313.504 1677 313.897 1676.69 314.401C1676.39 314.899 1676.23 315.467 1676.23 316.105V325.085H1673.37ZM1687.87 325.41C1686.93 325.41 1686.09 325.238 1685.34 324.893C1684.58 324.542 1683.99 324.035 1683.55 323.371C1683.11 322.708 1682.9 321.894 1682.9 320.93C1682.9 320.1 1683.06 319.417 1683.38 318.881C1683.69 318.345 1684.13 317.921 1684.67 317.608C1685.21 317.295 1685.82 317.059 1686.49 316.9C1687.16 316.74 1687.84 316.619 1688.54 316.536C1689.42 316.434 1690.13 316.351 1690.68 316.287C1691.23 316.217 1691.63 316.105 1691.88 315.952C1692.13 315.799 1692.25 315.55 1692.25 315.205V315.138C1692.25 314.302 1692.01 313.654 1691.54 313.195C1691.08 312.735 1690.38 312.505 1689.45 312.505C1688.49 312.505 1687.73 312.719 1687.18 313.147C1686.63 313.568 1686.25 314.037 1686.04 314.554L1683.35 313.941C1683.67 313.048 1684.13 312.327 1684.74 311.778C1685.36 311.223 1686.07 310.82 1686.88 310.572C1687.68 310.316 1688.53 310.189 1689.42 310.189C1690 310.189 1690.63 310.259 1691.28 310.399C1691.95 310.533 1692.57 310.782 1693.14 311.146C1693.72 311.51 1694.2 312.03 1694.57 312.706C1694.94 313.377 1695.12 314.248 1695.12 315.32V325.085H1692.33V323.075H1692.21C1692.03 323.445 1691.75 323.808 1691.38 324.166C1691.01 324.523 1690.53 324.82 1689.95 325.056C1689.37 325.292 1688.68 325.41 1687.87 325.41ZM1688.49 323.113C1689.28 323.113 1689.96 322.956 1690.52 322.644C1691.08 322.331 1691.52 321.923 1691.81 321.418C1692.11 320.908 1692.26 320.362 1692.26 319.781V317.886C1692.16 317.988 1691.96 318.084 1691.67 318.173C1691.38 318.256 1691.05 318.329 1690.68 318.393C1690.31 318.451 1689.95 318.505 1689.6 318.556C1689.25 318.601 1688.95 318.639 1688.72 318.671C1688.16 318.741 1687.65 318.859 1687.19 319.025C1686.74 319.191 1686.38 319.43 1686.1 319.743C1685.84 320.049 1685.7 320.458 1685.7 320.968C1685.7 321.677 1685.96 322.213 1686.49 322.577C1687.01 322.934 1687.68 323.113 1688.49 323.113ZM1704.44 325.372C1703.25 325.372 1702.19 325.069 1701.26 324.463C1700.34 323.85 1699.61 322.979 1699.08 321.849C1698.55 320.713 1698.29 319.35 1698.29 317.761C1698.29 316.172 1698.56 314.813 1699.09 313.683C1699.62 312.553 1700.36 311.688 1701.29 311.089C1702.22 310.489 1703.28 310.189 1704.46 310.189C1705.37 310.189 1706.1 310.342 1706.66 310.648C1707.22 310.948 1707.66 311.299 1707.96 311.701C1708.27 312.103 1708.52 312.458 1708.69 312.764H1708.86V305.478H1711.72V325.085H1708.93V322.797H1708.69C1708.52 323.11 1708.27 323.467 1707.94 323.869C1707.62 324.271 1707.18 324.622 1706.62 324.922C1706.06 325.222 1705.33 325.372 1704.44 325.372ZM1705.07 322.931C1705.89 322.931 1706.59 322.714 1707.16 322.28C1707.73 321.84 1708.17 321.23 1708.46 320.451C1708.76 319.673 1708.91 318.766 1708.91 317.733C1708.91 316.711 1708.76 315.818 1708.47 315.052C1708.18 314.286 1707.75 313.689 1707.18 313.262C1706.61 312.834 1705.91 312.62 1705.07 312.62C1704.21 312.62 1703.49 312.844 1702.92 313.29C1702.34 313.737 1701.91 314.347 1701.61 315.119C1701.33 315.891 1701.18 316.762 1701.18 317.733C1701.18 318.715 1701.33 319.599 1701.62 320.384C1701.92 321.169 1702.35 321.792 1702.93 322.251C1703.51 322.704 1704.22 322.931 1705.07 322.931ZM1720.09 325.41C1719.16 325.41 1718.32 325.238 1717.56 324.893C1716.81 324.542 1716.21 324.035 1715.77 323.371C1715.34 322.708 1715.12 321.894 1715.12 320.93C1715.12 320.1 1715.28 319.417 1715.6 318.881C1715.92 318.345 1716.35 317.921 1716.89 317.608C1717.43 317.295 1718.04 317.059 1718.71 316.9C1719.38 316.74 1720.06 316.619 1720.76 316.536C1721.64 316.434 1722.36 316.351 1722.9 316.287C1723.45 316.217 1723.85 316.105 1724.1 315.952C1724.35 315.799 1724.47 315.55 1724.47 315.205V315.138C1724.47 314.302 1724.24 313.654 1723.77 313.195C1723.3 312.735 1722.6 312.505 1721.68 312.505C1720.71 312.505 1719.96 312.719 1719.4 313.147C1718.85 313.568 1718.47 314.037 1718.26 314.554L1715.57 313.941C1715.89 313.048 1716.36 312.327 1716.97 311.778C1717.59 311.223 1718.3 310.82 1719.1 310.572C1719.91 310.316 1720.75 310.189 1721.64 310.189C1722.23 310.189 1722.85 310.259 1723.51 310.399C1724.17 310.533 1724.79 310.782 1725.36 311.146C1725.95 311.51 1726.42 312.03 1726.79 312.706C1727.16 313.377 1727.35 314.248 1727.35 315.32V325.085H1724.55V323.075H1724.44C1724.25 323.445 1723.97 323.808 1723.6 324.166C1723.23 324.523 1722.76 324.82 1722.18 325.056C1721.6 325.292 1720.9 325.41 1720.09 325.41ZM1720.71 323.113C1721.5 323.113 1722.18 322.956 1722.74 322.644C1723.31 322.331 1723.74 321.923 1724.03 321.418C1724.33 320.908 1724.48 320.362 1724.48 319.781V317.886C1724.38 317.988 1724.18 318.084 1723.89 318.173C1723.6 318.256 1723.27 318.329 1722.9 318.393C1722.53 318.451 1722.17 318.505 1721.82 318.556C1721.47 318.601 1721.18 318.639 1720.94 318.671C1720.39 318.741 1719.88 318.859 1719.42 319.025C1718.97 319.191 1718.6 319.43 1718.33 319.743C1718.06 320.049 1717.93 320.458 1717.93 320.968C1717.93 321.677 1718.19 322.213 1718.71 322.577C1719.23 322.934 1719.9 323.113 1720.71 323.113Z"
        fill="black" />
    <defs>
        <filter id="filter0_f_558_720" x="54.5659" y="3.61571" width="408.967" height="408.967"
            filterUnits="userSpaceOnUse" color-interpolation-filters="sRGB">
            <feFlood flood-opacity="0" result="BackgroundImageFix" />
            <feBlend mode="normal" in="SourceGraphic" in2="BackgroundImageFix" result="shape" />
            <feGaussianBlur stdDeviation="69.554" result="effect1_foregroundBlur_558_720" />
        </filter>
        <filter id="filter1_f_558_720" x="402.336" y="3.61571" width="408.967" height="408.967"
            filterUnits="userSpaceOnUse" color-interpolation-filters="sRGB">
            <feFlood flood-opacity="0" result="BackgroundImageFix" />
            <feBlend mode="normal" in="SourceGraphic" in2="BackgroundImageFix" result="shape" />
            <feGaussianBlur stdDeviation="69.554" result="effect1_foregroundBlur_558_720" />
        </filter>
        <filter id="filter2_f_558_720" x="751.454" y="3.61571" width="408.967" height="408.967"
            filterUnits="userSpaceOnUse" color-interpolation-filters="sRGB">
            <feFlood flood-opacity="0" result="BackgroundImageFix" />
            <feBlend mode="normal" in="SourceGraphic" in2="BackgroundImageFix" result="shape" />
            <feGaussianBlur stdDeviation="69.554" result="effect1_foregroundBlur_558_720" />
        </filter>
        <filter id="filter3_f_558_720" x="1099.22" y="0.919418" width="408.967" height="408.967"
            filterUnits="userSpaceOnUse" color-interpolation-filters="sRGB">
            <feFlood flood-opacity="0" result="BackgroundImageFix" />
            <feBlend mode="normal" in="SourceGraphic" in2="BackgroundImageFix" result="shape" />
            <feGaussianBlur stdDeviation="69.554" result="effect1_foregroundBlur_558_720" />
        </filter>
        <filter id="filter4_f_558_720" x="1446.99" y="0.919418" width="408.967" height="408.967"
            filterUnits="userSpaceOnUse" color-interpolation-filters="sRGB">
            <feFlood flood-opacity="0" result="BackgroundImageFix" />
            <feBlend mode="normal" in="SourceGraphic" in2="BackgroundImageFix" result="shape" />
            <feGaussianBlur stdDeviation="69.554" result="effect1_foregroundBlur_558_720" />
        </filter>
        <linearGradient id="paint0_linear_558_720" x1="516.702" y1="60.499" x2="1152.74"
            y2="1151.66" gradientUnits="userSpaceOnUse">
            <stop stop-color="#FFB86B" stop-opacity="0.16" />
            <stop offset="1" stop-color="#1FECE9" stop-opacity="0.34" />
        </linearGradient>
    </defs>
</svg>