<svg width="523" height="523" viewBox="0 0 523 523" fill="none" xmlns="http://www.w3.org/2000/svg">
    <rect x="218.233" y="222.234" width="14.533" height="15.533" rx="7.2665" stroke="black"
        stroke-width="2.46699" />
    <rect x="254.233" y="208.234" width="14.533" height="14.533" rx="7.2665" stroke="black"
        stroke-width="2.46699" />
    <rect x="287.233" y="222.234" width="15.533" height="15.533" rx="7.7665" stroke="black"
        stroke-width="2.46699" />
    <rect x="300.233" y="253.234" width="14.533" height="14.533" rx="7.2665" stroke="black"
        stroke-width="2.46699" />
    <rect x="287.233" y="283.234" width="15.533" height="15.533" rx="7.7665" stroke="black"
        stroke-width="2.46699" />
    <rect x="254.233" y="300.234" width="14.533" height="14.533" rx="7.2665" stroke="black"
        stroke-width="2.46699" />
    <rect x="218.233" y="283.234" width="14.533" height="15.533" rx="7.2665" stroke="black"
        stroke-width="2.46699" />
    <rect x="208.233" y="254.234" width="14.533" height="14.533" rx="7.2665" stroke="black"
        stroke-width="2.46699" />
    <path
        d="M266.279 213.564L266.226 213.512C264.384 211.689 261.398 211.689 259.556 213.512L258.569 214.489L256.518 213.317C256.141 213.102 255.707 213.493 255.888 213.884L256.515 215.242C256.638 215.508 256.638 215.814 256.515 216.08L255.888 217.438C255.707 217.83 256.141 218.22 256.518 218.005L258.568 216.833L259.503 217.758C261.374 219.61 264.408 219.61 266.279 217.758C267.45 216.6 267.45 214.722 266.279 213.565V213.564ZM264.581 215.661C264.266 215.661 264.01 215.408 264.01 215.096C264.01 214.784 264.266 214.531 264.581 214.531C264.897 214.531 265.153 214.784 265.153 215.096C265.153 215.408 264.897 215.661 264.581 215.661Z"
        fill="black" />
    <mask id="mask0_558_960" style="mask-type:alpha" maskUnits="userSpaceOnUse" x="255" y="301"
        width="13" height="13">
        <rect x="255.33" y="301.092" width="12.3396" height="12.3396" fill="#D9D9D9" />
    </mask>
    <g mask="url(#mask0_558_960)">
        <path
            d="M258.06 311.632C257.801 311.632 257.581 311.542 257.401 311.362C257.221 311.182 257.131 310.962 257.131 310.703V303.821C257.131 303.561 257.221 303.341 257.401 303.162C257.581 302.982 257.801 302.892 258.06 302.892H264.942C265.202 302.892 265.422 302.982 265.601 303.162C265.781 303.341 265.871 303.561 265.871 303.821V310.703C265.871 310.962 265.781 311.182 265.601 311.362C265.422 311.542 265.202 311.632 264.942 311.632H258.06ZM259.445 309.704H262.015C262.125 309.704 262.216 309.667 262.29 309.593C262.364 309.519 262.401 309.428 262.401 309.318C262.401 309.209 262.364 309.117 262.29 309.044C262.216 308.97 262.125 308.933 262.015 308.933H259.445C259.335 308.933 259.244 308.97 259.17 309.044C259.096 309.118 259.059 309.209 259.059 309.319C259.059 309.428 259.096 309.519 259.17 309.593C259.244 309.667 259.335 309.704 259.445 309.704ZM259.445 307.647H263.558C263.667 307.647 263.759 307.611 263.832 307.537C263.906 307.463 263.943 307.371 263.943 307.262C263.943 307.152 263.906 307.061 263.832 306.987C263.759 306.913 263.667 306.876 263.558 306.876H259.445C259.335 306.876 259.244 306.913 259.17 306.987C259.096 307.061 259.059 307.153 259.059 307.262C259.059 307.371 259.096 307.463 259.17 307.537C259.244 307.611 259.335 307.647 259.445 307.647ZM259.445 305.591H263.558C263.667 305.591 263.759 305.554 263.832 305.48C263.906 305.406 263.943 305.314 263.943 305.205C263.943 305.096 263.906 305.004 263.832 304.93C263.759 304.857 263.667 304.82 263.558 304.82H259.445C259.335 304.82 259.244 304.857 259.17 304.931C259.096 305.005 259.059 305.096 259.059 305.205C259.059 305.315 259.096 305.406 259.17 305.48C259.244 305.554 259.335 305.591 259.445 305.591Z"
            fill="#1C1B1F" />
    </g>
    <mask id="mask1_558_960" style="mask-type:alpha" maskUnits="userSpaceOnUse" x="288" y="284"
        width="14" height="13">
        <rect x="288.75" y="284.64" width="12.3396" height="12.3396" fill="#D9D9D9" />
    </mask>
    <g mask="url(#mask1_558_960)">
        <path
            d="M294.911 295.686C294.596 295.686 294.29 295.649 293.991 295.576C293.693 295.502 293.381 295.385 293.055 295.226C292.691 295.382 292.341 295.494 292.003 295.56C291.665 295.627 291.31 295.669 290.937 295.686C290.827 295.691 290.736 295.657 290.662 295.583C290.588 295.509 290.551 295.417 290.551 295.308C290.551 295.199 290.588 295.107 290.662 295.033C290.736 294.959 290.827 294.92 290.937 294.914C291.119 294.906 291.293 294.891 291.459 294.871C291.625 294.851 291.789 294.819 291.95 294.778C292.112 294.736 292.275 294.683 292.44 294.62C292.605 294.557 292.776 294.484 292.952 294.401C292.991 294.384 293.031 294.376 293.07 294.376C293.11 294.376 293.149 294.384 293.189 294.401C293.469 294.557 293.739 294.681 294.001 294.774C294.263 294.866 294.567 294.913 294.911 294.913C295.256 294.913 295.56 294.866 295.822 294.774C296.084 294.681 296.354 294.557 296.634 294.401C296.673 294.384 296.713 294.376 296.752 294.376C296.792 294.376 296.832 294.384 296.871 294.401C297.05 294.487 297.223 294.562 297.388 294.625C297.553 294.688 297.717 294.74 297.88 294.78C298.043 294.82 298.209 294.851 298.377 294.871C298.546 294.891 298.722 294.906 298.906 294.914C299.015 294.92 299.107 294.959 299.181 295.033C299.255 295.107 299.292 295.199 299.292 295.308C299.292 295.417 299.255 295.509 299.181 295.583C299.107 295.657 299.015 295.691 298.906 295.686C298.53 295.669 298.171 295.628 297.83 295.563C297.489 295.498 297.137 295.385 296.776 295.226C296.45 295.385 296.136 295.502 295.836 295.576C295.535 295.649 295.227 295.686 294.911 295.686ZM292.217 287.863V289.612L294.664 288.911C294.747 288.885 294.829 288.872 294.911 288.872C294.994 288.872 295.076 288.885 295.159 288.911L297.606 289.612V287.863C297.606 287.823 297.592 287.79 297.564 287.764C297.536 287.738 297.502 287.724 297.462 287.724H292.36C292.321 287.724 292.287 287.738 292.259 287.764C292.231 287.79 292.217 287.823 292.217 287.863ZM294.916 293.785C294.475 293.785 294.08 293.645 293.732 293.365C293.385 293.085 293.135 292.856 292.983 292.678C292.811 292.855 292.638 293.01 292.465 293.143C292.293 293.275 292.118 293.39 291.94 293.488C291.794 293.566 291.645 293.566 291.493 293.487C291.341 293.408 291.241 293.286 291.193 293.121L290.436 290.602C290.4 290.476 290.412 290.359 290.473 290.25C290.533 290.142 290.626 290.068 290.752 290.028L291.446 289.822V287.883C291.446 287.626 291.537 287.407 291.718 287.225C291.9 287.044 292.119 286.953 292.375 286.953H293.799V286.39C293.799 286.257 293.843 286.146 293.932 286.058C294.021 285.969 294.131 285.925 294.264 285.925H295.559C295.692 285.925 295.802 285.969 295.891 286.058C295.979 286.146 296.024 286.257 296.024 286.39V286.953H297.448C297.704 286.953 297.923 287.044 298.105 287.225C298.286 287.407 298.377 287.626 298.377 287.883V289.822L299.071 290.028C299.197 290.068 299.29 290.142 299.35 290.25C299.411 290.359 299.423 290.476 299.386 290.602L298.635 293.126C298.587 293.287 298.488 293.407 298.337 293.484C298.187 293.562 298.037 293.563 297.888 293.488C297.705 293.39 297.528 293.276 297.357 293.145C297.186 293.014 297.015 292.859 296.845 292.678C296.686 292.856 296.435 293.085 296.091 293.365C295.746 293.645 295.355 293.785 294.916 293.785Z"
            fill="#1C1B1F" />
    </g>
    <mask id="mask2_558_960" style="mask-type:alpha" maskUnits="userSpaceOnUse" x="219" y="223"
        width="13" height="14">
        <rect x="219.34" y="223.97" width="12.3396" height="12.3396" fill="#D9D9D9" />
    </mask>
    <g mask="url(#mask2_558_960)">
        <path
            d="M225.51 226.649C225.4 226.649 225.309 226.612 225.235 226.539C225.161 226.465 225.124 226.373 225.124 226.264V225.137C225.124 225.027 225.161 224.936 225.235 224.862C225.309 224.788 225.401 224.751 225.51 224.751C225.619 224.751 225.711 224.788 225.785 224.862C225.858 224.936 225.895 225.027 225.895 225.137V226.264C225.895 226.373 225.858 226.465 225.784 226.539C225.71 226.612 225.619 226.649 225.51 226.649ZM227.976 227.674C227.905 227.603 227.87 227.514 227.871 227.409C227.873 227.304 227.909 227.212 227.981 227.132L228.765 226.33C228.842 226.25 228.934 226.21 229.04 226.21C229.147 226.21 229.24 226.251 229.321 226.331C229.394 226.405 229.431 226.495 229.431 226.601C229.431 226.707 229.394 226.797 229.319 226.872L228.518 227.674C228.443 227.748 228.353 227.785 228.247 227.785C228.14 227.785 228.05 227.748 227.976 227.674ZM229.386 230.525C229.276 230.525 229.185 230.488 229.111 230.414C229.037 230.34 229 230.249 229 230.14C229 230.03 229.037 229.939 229.111 229.865C229.185 229.791 229.276 229.754 229.386 229.754H230.513C230.622 229.754 230.714 229.791 230.787 229.865C230.861 229.939 230.898 230.031 230.898 230.14C230.898 230.249 230.861 230.341 230.787 230.414C230.714 230.488 230.622 230.525 230.513 230.525H229.386ZM225.51 235.528C225.4 235.528 225.309 235.491 225.235 235.417C225.161 235.344 225.124 235.252 225.124 235.143V234.02C225.124 233.911 225.161 233.82 225.235 233.746C225.309 233.672 225.401 233.635 225.51 233.635C225.619 233.635 225.711 233.672 225.785 233.746C225.858 233.82 225.895 233.911 225.895 234.02V235.143C225.895 235.252 225.858 235.344 225.784 235.417C225.71 235.491 225.619 235.528 225.51 235.528ZM222.507 227.674L221.7 226.885C221.62 226.808 221.581 226.715 221.581 226.605C221.581 226.496 221.62 226.405 221.7 226.33C221.775 226.259 221.866 226.223 221.974 226.223C222.083 226.223 222.172 226.259 222.242 226.33L223.049 227.137C223.12 227.207 223.156 227.296 223.156 227.404C223.156 227.513 223.12 227.603 223.05 227.674C222.973 227.745 222.883 227.78 222.781 227.78C222.678 227.78 222.587 227.745 222.507 227.674ZM228.77 233.949L227.981 233.147C227.909 233.068 227.873 232.975 227.871 232.87C227.87 232.765 227.904 232.677 227.975 232.606C228.045 232.534 228.133 232.499 228.239 232.499C228.345 232.499 228.438 232.536 228.518 232.611L229.319 233.4C229.396 233.471 229.433 233.56 229.43 233.668C229.427 233.776 229.39 233.87 229.318 233.949C229.239 234.029 229.146 234.069 229.037 234.069C228.929 234.069 228.84 234.029 228.77 233.949ZM220.507 230.525C220.397 230.525 220.306 230.488 220.232 230.414C220.158 230.34 220.121 230.249 220.121 230.14C220.121 230.03 220.158 229.939 220.232 229.865C220.306 229.791 220.397 229.754 220.507 229.754H221.634C221.743 229.754 221.835 229.791 221.909 229.865C221.983 229.939 222.019 230.031 222.019 230.14C222.019 230.249 221.983 230.341 221.909 230.414C221.835 230.488 221.743 230.525 221.634 230.525H220.507ZM221.705 233.949C221.634 233.875 221.597 233.784 221.596 233.676C221.594 233.568 221.629 233.479 221.7 233.407L222.497 232.611C222.572 232.536 222.661 232.499 222.764 232.499C222.868 232.499 222.959 232.536 223.039 232.609C223.119 232.69 223.159 232.783 223.159 232.888C223.159 232.993 223.119 233.085 223.039 233.165L222.255 233.949C222.175 234.029 222.081 234.069 221.973 234.069C221.864 234.069 221.775 234.029 221.705 233.949ZM225.511 232.967C224.726 232.967 224.058 232.693 223.508 232.143C222.957 231.593 222.682 230.926 222.682 230.141C222.682 229.356 222.957 228.688 223.506 228.137C224.056 227.587 224.723 227.312 225.509 227.312C226.294 227.312 226.962 227.587 227.512 228.136C228.062 228.686 228.338 229.353 228.338 230.138C228.338 230.924 228.063 231.591 227.513 232.142C226.964 232.692 226.296 232.967 225.511 232.967Z"
            fill="#1C1B1F" />
    </g>
    <mask id="mask3_558_960" style="mask-type:alpha" maskUnits="userSpaceOnUse" x="219" y="284"
        width="13" height="13">
        <rect x="219.34" y="284.64" width="12.3396" height="12.3396" fill="#D9D9D9" />
    </mask>
    <g mask="url(#mask3_558_960)">
        <path
            d="M224.971 291.357L224.152 290.538C224.075 290.462 223.986 290.423 223.883 290.421C223.781 290.419 223.69 290.458 223.61 290.538C223.53 290.618 223.49 290.71 223.49 290.813C223.49 290.917 223.53 291.008 223.61 291.088L224.645 292.131C224.738 292.224 224.847 292.27 224.971 292.27C225.094 292.27 225.203 292.224 225.296 292.131L227.427 290C227.503 289.924 227.542 289.833 227.544 289.728C227.545 289.623 227.506 289.53 227.427 289.451C227.347 289.371 227.255 289.331 227.152 289.331C227.048 289.331 226.957 289.371 226.877 289.451L224.971 291.357ZM225.51 295.627C225.457 295.627 225.405 295.623 225.353 295.614C225.302 295.606 225.252 295.593 225.204 295.576C224.12 295.19 223.257 294.506 222.616 293.525C221.975 292.543 221.654 291.483 221.654 290.346V288.031C221.654 287.836 221.711 287.661 221.823 287.504C221.936 287.348 222.081 287.234 222.258 287.164L225.185 286.071C225.295 286.032 225.404 286.012 225.51 286.012C225.617 286.012 225.726 286.032 225.836 286.071L228.762 287.164C228.94 287.234 229.085 287.348 229.197 287.504C229.31 287.661 229.367 287.836 229.367 288.031V290.346C229.367 291.483 229.046 292.543 228.405 293.525C227.764 294.506 226.901 295.19 225.817 295.576C225.769 295.593 225.719 295.606 225.668 295.614C225.616 295.623 225.564 295.627 225.51 295.627Z"
            fill="#1C1B1F" />
    </g>
    <mask id="mask4_558_960" style="mask-type:alpha" maskUnits="userSpaceOnUse" x="288" y="223"
        width="14" height="14">
        <rect x="288.75" y="223.97" width="12.3396" height="12.3396" fill="#D9D9D9" />
    </mask>
    <g mask="url(#mask4_558_960)">
        <path
            d="M294.929 234.138C294.672 234.31 294.397 234.436 294.103 234.517C293.808 234.598 293.512 234.639 293.212 234.639C292.908 234.639 292.612 234.595 292.322 234.507C292.033 234.419 291.755 234.297 291.489 234.143C291.301 234.255 291.107 234.348 290.907 234.425C290.707 234.501 290.5 234.557 290.286 234.595C290.185 234.609 290.097 234.58 290.021 234.509C289.946 234.438 289.908 234.349 289.908 234.243C289.908 234.134 289.944 234.041 290.015 233.964C290.086 233.888 290.177 233.836 290.286 233.808C290.452 233.769 290.608 233.714 290.755 233.643C290.901 233.573 291.044 233.491 291.185 233.397C291.272 233.335 291.373 233.304 291.485 233.304C291.598 233.304 291.698 233.335 291.786 233.397C291.998 233.539 292.226 233.651 292.469 233.732C292.712 233.814 292.96 233.855 293.212 233.855C293.46 233.855 293.706 233.818 293.948 233.746C294.191 233.674 294.417 233.568 294.626 233.429C294.72 233.364 294.826 233.333 294.944 233.335C295.063 233.338 295.169 233.372 295.263 233.437C295.472 233.576 295.695 233.681 295.93 233.75C296.166 233.82 296.408 233.855 296.656 233.855C296.92 233.855 297.175 233.81 297.422 233.72C297.668 233.63 297.9 233.512 298.118 233.366C298.202 233.313 298.289 233.285 298.379 233.284C298.468 233.284 298.555 233.312 298.64 233.371C298.78 233.465 298.924 233.55 299.071 233.626C299.218 233.701 299.374 233.76 299.541 233.803C299.65 233.836 299.743 233.89 299.819 233.966C299.896 234.041 299.934 234.134 299.934 234.243C299.934 234.353 299.895 234.444 299.817 234.518C299.739 234.592 299.645 234.617 299.536 234.595C299.33 234.557 299.131 234.499 298.938 234.418C298.745 234.338 298.559 234.246 298.379 234.143C298.118 234.297 297.842 234.419 297.55 234.507C297.257 234.595 296.96 234.639 296.656 234.639C296.353 234.639 296.055 234.595 295.761 234.507C295.467 234.419 295.189 234.296 294.929 234.138ZM289.908 232.572V231.425C289.908 230.61 290.066 229.858 290.38 229.168C290.695 228.478 291.125 227.881 291.671 227.378C292.216 226.875 292.856 226.481 293.591 226.196C294.326 225.912 295.112 225.77 295.949 225.77C296.075 225.77 296.206 225.772 296.341 225.776C296.477 225.78 296.608 225.792 296.734 225.811C296.885 225.833 296.999 225.912 297.076 226.046C297.152 226.181 297.158 226.319 297.094 226.46C297.015 226.643 296.955 226.818 296.912 226.985C296.87 227.151 296.849 227.333 296.849 227.53C296.849 228.038 297.029 228.471 297.388 228.83C297.746 229.189 298.18 229.369 298.687 229.369H299.548C299.658 229.369 299.75 229.406 299.823 229.479C299.897 229.553 299.934 229.645 299.934 229.754C299.934 229.864 299.897 229.955 299.823 230.029C299.75 230.103 299.658 230.14 299.548 230.14H298.687C297.961 230.14 297.344 229.886 296.838 229.38C296.331 228.873 296.078 228.257 296.078 227.53C296.078 227.381 296.092 227.222 296.121 227.052C296.15 226.883 296.188 226.726 296.235 226.581C295.506 226.729 294.911 227.074 294.453 227.616C293.994 228.159 293.764 228.788 293.764 229.502C293.764 229.89 293.821 230.242 293.934 230.558C294.048 230.874 294.204 231.178 294.404 231.47L294.665 231.305C294.749 231.246 294.836 231.217 294.926 231.217C295.016 231.217 295.103 231.246 295.187 231.305C295.394 231.445 295.627 231.562 295.887 231.657C296.147 231.751 296.403 231.798 296.656 231.798C296.91 231.798 297.166 231.749 297.426 231.652C297.685 231.554 297.919 231.437 298.126 231.3C298.21 231.246 298.296 231.219 298.383 231.218C298.47 231.217 298.555 231.243 298.64 231.297L298.952 231.499C299.047 231.551 299.144 231.598 299.244 231.642C299.344 231.686 299.446 231.721 299.548 231.747C299.658 231.78 299.75 231.834 299.823 231.909C299.897 231.985 299.934 232.077 299.934 232.186C299.934 232.296 299.894 232.387 299.814 232.459C299.735 232.531 299.642 232.556 299.536 232.534C299.345 232.496 299.153 232.438 298.961 232.361C298.768 232.283 298.574 232.186 298.379 232.072C298.091 232.25 297.805 232.379 297.521 232.46C297.237 232.541 296.948 232.582 296.656 232.582C296.361 232.582 296.058 232.534 295.748 232.439C295.438 232.343 295.167 232.221 294.934 232.072C294.655 232.241 294.377 232.367 294.099 232.45C293.82 232.533 293.525 232.577 293.212 232.582C292.895 232.587 292.597 232.546 292.317 232.459C292.037 232.372 291.761 232.247 291.489 232.087C291.237 232.234 290.978 232.349 290.712 232.43C290.446 232.512 290.178 232.559 289.908 232.572Z"
            fill="#1C1B1F" />
    </g>
    <mask id="mask5_558_960" style="mask-type:alpha" maskUnits="userSpaceOnUse" x="209" y="255"
        width="13" height="13">
        <rect x="209.572" y="255.332" width="12.3396" height="12.3396" fill="#D9D9D9" />
    </mask>
    <g mask="url(#mask5_558_960)">
        <path
            d="M215.742 266.387C214.874 266.387 214.164 266.262 213.613 266.013C213.062 265.764 212.786 265.442 212.786 265.047C212.786 264.891 212.839 264.744 212.945 264.607C213.05 264.47 213.201 264.347 213.396 264.236C213.486 264.177 213.585 264.157 213.692 264.176C213.798 264.194 213.882 264.249 213.941 264.339C214 264.43 214.018 264.527 213.995 264.632C213.972 264.738 213.916 264.82 213.825 264.879C213.769 264.899 213.716 264.924 213.665 264.953C213.613 264.983 213.583 265.013 213.573 265.042C213.658 265.196 213.911 265.33 214.332 265.444C214.753 265.559 215.223 265.616 215.742 265.616C216.262 265.616 216.732 265.559 217.153 265.444C217.574 265.33 217.827 265.196 217.912 265.042C217.902 265.013 217.871 264.983 217.82 264.953C217.769 264.924 217.716 264.899 217.659 264.879C217.569 264.82 217.512 264.738 217.489 264.632C217.466 264.527 217.485 264.43 217.544 264.339C217.603 264.249 217.686 264.194 217.793 264.176C217.9 264.157 217.998 264.177 218.089 264.236C218.284 264.347 218.434 264.47 218.54 264.607C218.646 264.744 218.699 264.891 218.699 265.047C218.699 265.442 218.423 265.764 217.872 266.013C217.321 266.262 216.611 266.387 215.742 266.387ZM215.742 264.62C215.649 264.62 215.556 264.604 215.464 264.571C215.371 264.538 215.285 264.491 215.205 264.429C214.264 263.67 213.561 262.929 213.097 262.207C212.632 261.484 212.4 260.774 212.4 260.077C212.4 259.505 212.501 259.003 212.703 258.573C212.906 258.143 213.166 257.782 213.486 257.492C213.806 257.201 214.164 256.983 214.561 256.837C214.958 256.691 215.352 256.618 215.742 256.618C216.133 256.618 216.526 256.691 216.923 256.837C217.321 256.983 217.679 257.201 217.999 257.492C218.318 257.782 218.579 258.143 218.781 258.573C218.983 259.003 219.084 259.505 219.084 260.077C219.084 260.774 218.852 261.484 218.388 262.207C217.924 262.929 217.221 263.67 216.279 264.429C216.2 264.491 216.114 264.538 216.021 264.571C215.928 264.604 215.835 264.62 215.742 264.62ZM215.742 260.934C215.999 260.934 216.218 260.844 216.399 260.664C216.581 260.484 216.672 260.264 216.672 260.005C216.672 259.748 216.581 259.529 216.399 259.348C216.218 259.166 215.999 259.075 215.742 259.075C215.489 259.075 215.271 259.166 215.088 259.348C214.905 259.529 214.813 259.748 214.813 260.005C214.813 260.264 214.905 260.484 215.088 260.664C215.271 260.844 215.489 260.934 215.742 260.934Z"
            fill="#1C1B1F" />
    </g>
    <mask id="mask6_558_960" style="mask-type:alpha" maskUnits="userSpaceOnUse" x="301" y="254"
        width="13" height="13">
        <rect x="301.09" y="254.304" width="12.3396" height="12.3396" fill="#D9D9D9" />
    </mask>
    <g mask="url(#mask6_558_960)">
        <path
            d="M310.087 263.852V264.793C310.087 264.903 310.05 264.994 309.976 265.068C309.903 265.142 309.811 265.179 309.702 265.179C309.592 265.179 309.501 265.142 309.427 265.068C309.353 264.994 309.316 264.903 309.316 264.793V263.154C309.316 262.979 309.376 262.832 309.496 262.711C309.617 262.591 309.764 262.531 309.939 262.531H311.578C311.688 262.531 311.779 262.568 311.853 262.642C311.927 262.715 311.964 262.807 311.964 262.916C311.964 263.026 311.927 263.117 311.853 263.191C311.779 263.265 311.688 263.302 311.578 263.302H310.624L312.003 264.681C312.075 264.753 312.11 264.841 312.11 264.946C312.11 265.051 312.075 265.142 312.003 265.218C311.927 265.298 311.835 265.337 311.729 265.335C311.622 265.334 311.53 265.295 311.454 265.218L310.087 263.852ZM307.259 265.359C306.584 265.359 305.95 265.23 305.356 264.974C304.761 264.717 304.244 264.369 303.805 263.929C303.365 263.489 303.017 262.972 302.76 262.378C302.503 261.784 302.375 261.149 302.375 260.474C302.375 259.799 302.503 259.165 302.76 258.57C303.017 257.976 303.365 257.459 303.805 257.02C304.244 256.58 304.761 256.232 305.356 255.975C305.95 255.718 306.584 255.59 307.259 255.59C307.934 255.59 308.569 255.718 309.163 255.975C309.757 256.232 310.274 256.58 310.714 257.02C311.154 257.459 311.502 257.976 311.759 258.57C312.015 259.165 312.144 259.799 312.144 260.474C312.144 260.563 312.142 260.659 312.137 260.762C312.133 260.865 312.125 260.961 312.113 261.05C312.099 261.159 312.053 261.245 311.975 261.309C311.897 261.372 311.801 261.404 311.686 261.404C311.585 261.404 311.499 261.36 311.428 261.273C311.357 261.186 311.328 261.091 311.342 260.986C311.359 260.897 311.369 260.812 311.37 260.73C311.372 260.649 311.373 260.563 311.373 260.474C311.373 260.286 311.36 260.099 311.336 259.913C311.311 259.727 311.272 259.542 311.219 259.357H309.308C309.34 259.542 309.364 259.727 309.378 259.913C309.393 260.099 309.4 260.286 309.4 260.474C309.4 260.563 309.399 260.658 309.398 260.758C309.396 260.858 309.391 260.953 309.382 261.042C309.368 261.151 309.323 261.239 309.247 261.305C309.17 261.371 309.077 261.404 308.968 261.404C308.867 261.404 308.779 261.363 308.704 261.281C308.628 261.199 308.597 261.106 308.611 261.002C308.62 260.913 308.625 260.825 308.626 260.738C308.628 260.651 308.629 260.563 308.629 260.474C308.629 260.286 308.622 260.099 308.607 259.913C308.593 259.727 308.569 259.542 308.537 259.357H305.982C305.95 259.542 305.926 259.727 305.912 259.913C305.897 260.099 305.89 260.286 305.89 260.474C305.89 260.662 305.897 260.849 305.912 261.035C305.926 261.222 305.95 261.407 305.982 261.592H307.487C307.596 261.592 307.688 261.628 307.762 261.702C307.836 261.776 307.872 261.868 307.872 261.977C307.872 262.087 307.836 262.178 307.762 262.252C307.688 262.326 307.596 262.363 307.487 262.363H306.159C306.272 262.767 306.418 263.156 306.599 263.527C306.78 263.898 307 264.248 307.259 264.577C307.352 264.577 307.444 264.577 307.536 264.578C307.629 264.579 307.719 264.574 307.808 264.562C307.914 264.548 308.003 264.575 308.074 264.644C308.145 264.712 308.181 264.8 308.181 264.906C308.181 265.02 308.151 265.116 308.092 265.193C308.033 265.269 307.949 265.314 307.84 265.328C307.751 265.34 307.655 265.348 307.552 265.352C307.449 265.357 307.352 265.359 307.259 265.359ZM303.299 261.592H305.211C305.178 261.407 305.155 261.222 305.14 261.035C305.126 260.849 305.119 260.662 305.119 260.474C305.119 260.286 305.126 260.099 305.14 259.913C305.155 259.727 305.178 259.542 305.211 259.357H303.299C303.247 259.542 303.208 259.727 303.183 259.913C303.159 260.099 303.146 260.286 303.146 260.474C303.146 260.662 303.159 260.849 303.183 261.035C303.208 261.222 303.247 261.407 303.299 261.592ZM306.264 264.445C306.057 264.124 305.879 263.789 305.73 263.441C305.582 263.092 305.461 262.733 305.367 262.363H303.623C303.891 262.892 304.255 263.339 304.714 263.702C305.174 264.066 305.69 264.314 306.264 264.445ZM303.623 258.586H305.367C305.454 258.213 305.571 257.852 305.718 257.503C305.865 257.154 306.047 256.821 306.264 256.503C305.687 256.631 305.17 256.877 304.712 257.241C304.254 257.605 303.891 258.053 303.623 258.586ZM306.159 258.586H308.36C308.251 258.181 308.103 257.795 307.917 257.427C307.731 257.058 307.512 256.707 307.259 256.372C307.004 256.7 306.784 257.05 306.599 257.421C306.415 257.793 306.268 258.181 306.159 258.586ZM309.152 258.586H310.896C310.628 258.053 310.265 257.604 309.807 257.239C309.349 256.873 308.832 256.628 308.255 256.503C308.462 256.824 308.637 257.16 308.781 257.51C308.925 257.861 309.048 258.219 309.152 258.586Z"
            fill="#1C1B1F" />
    </g>
    <g filter="url(#filter0_f_558_960)">
        <circle cx="260.267" cy="260.268" r="53.0404" fill="#F03C3F" />
    </g>
    <circle cx="260.266" cy="260.266" r="65.3753" fill="#F03C3F" />
    <mask id="mask7_558_960" style="mask-type:alpha" maskUnits="userSpaceOnUse" x="207" y="207"
        width="109" height="109">
        <rect x="207.227" y="207.228" width="108.548" height="108.548" fill="#D9D9D9" />
    </mask>
    <g mask="url(#mask7_558_960)">
        <path
            d="M250.193 268.718V254.282C250.193 253.123 250.585 252.152 251.369 251.369C252.152 250.585 253.123 250.193 254.282 250.193H268.718C269.877 250.193 270.848 250.585 271.631 251.369C272.415 252.152 272.807 253.123 272.807 254.282V268.718C272.807 269.877 272.415 270.848 271.631 271.631C270.848 272.415 269.877 272.807 268.718 272.807H254.282C253.123 272.807 252.152 272.415 251.369 271.631C250.585 270.848 250.193 269.877 250.193 268.718ZM249.062 295.508V290.898H240.278C237.993 290.898 236.059 290.107 234.476 288.524C232.893 286.941 232.102 285.007 232.102 282.722V273.938H227.492C226.531 273.938 225.725 273.612 225.075 272.962C224.425 272.311 224.1 271.506 224.1 270.544C224.1 269.583 224.425 268.777 225.075 268.128C225.725 267.478 226.531 267.153 227.492 267.153H232.102V255.846H227.492C226.531 255.846 225.725 255.521 225.075 254.871C224.425 254.22 224.1 253.414 224.1 252.453C224.1 251.491 224.425 250.686 225.075 250.037C225.725 249.387 226.531 249.062 227.492 249.062H232.102V240.278C232.102 237.993 232.893 236.059 234.476 234.476C236.059 232.893 237.993 232.102 240.278 232.102H249.062V227.492C249.062 226.531 249.387 225.725 250.038 225.075C250.689 224.425 251.494 224.1 252.455 224.1C253.417 224.1 254.223 224.425 254.872 225.075C255.522 225.725 255.846 226.531 255.846 227.492V232.102H267.153V227.492C267.153 226.531 267.479 225.725 268.129 225.075C268.78 224.425 269.586 224.1 270.547 224.1C271.509 224.1 272.314 224.425 272.963 225.075C273.613 225.725 273.938 226.531 273.938 227.492V232.102H282.722C285.007 232.102 286.941 232.893 288.524 234.476C290.107 236.059 290.898 237.993 290.898 240.278V249.062H295.508C296.469 249.062 297.275 249.387 297.925 250.038C298.575 250.689 298.9 251.494 298.9 252.455C298.9 253.417 298.575 254.223 297.925 254.872C297.275 255.522 296.469 255.846 295.508 255.846H290.898V267.153H295.508C296.469 267.153 297.275 267.479 297.925 268.129C298.575 268.78 298.9 269.586 298.9 270.547C298.9 271.509 298.575 272.314 297.925 272.963C297.275 273.613 296.469 273.938 295.508 273.938H290.898V282.722C290.898 285.007 290.107 286.941 288.524 288.524C286.941 290.107 285.007 290.898 282.722 290.898H273.938V295.508C273.938 296.469 273.612 297.275 272.962 297.925C272.311 298.575 271.506 298.9 270.544 298.9C269.583 298.9 268.777 298.575 268.128 297.925C267.478 297.275 267.153 296.469 267.153 295.508V290.898H255.846V295.508C255.846 296.469 255.521 297.275 254.871 297.925C254.22 298.575 253.414 298.9 252.453 298.9C251.491 298.9 250.686 298.575 250.037 297.925C249.387 297.275 249.062 296.469 249.062 295.508ZM282.722 284.114C283.07 284.114 283.389 283.969 283.679 283.679C283.969 283.389 284.114 283.07 284.114 282.722V240.278C284.114 239.929 283.969 239.611 283.679 239.321C283.389 239.031 283.07 238.886 282.722 238.886H240.278C239.929 238.886 239.611 239.031 239.321 239.321C239.031 239.611 238.886 239.929 238.886 240.278V282.722C238.886 283.07 239.031 283.389 239.321 283.679C239.611 283.969 239.929 284.114 240.278 284.114H282.722Z"
            fill="white" />
    </g>
    <defs>
        <filter id="filter0_f_558_960" x="143.085" y="143.086" width="234.364" height="234.365"
            filterUnits="userSpaceOnUse" color-interpolation-filters="sRGB">
            <feFlood flood-opacity="0" result="BackgroundImageFix" />
            <feBlend mode="normal" in="SourceGraphic" in2="BackgroundImageFix" result="shape" />
            <feGaussianBlur stdDeviation="32.0709" result="effect1_foregroundBlur_558_960" />
        </filter>
    </defs>
</svg>