<svg width="523" height="523" viewBox="0 0 523 523" fill="none" xmlns="http://www.w3.org/2000/svg">
    <g filter="url(#filter0_f_558_960)">
        <circle cx="260.267" cy="260.268" r="53.0404" fill="#F03C3F" />
    </g>
    <circle cx="260.266" cy="260.266" r="65.3753" fill="#F03C3F" />
    <mask id="mask7_558_960" style="mask-type:alpha" maskUnits="userSpaceOnUse" x="207" y="207"
        width="109" height="109">
        <rect x="207.227" y="207.228" width="108.548" height="108.548" fill="#D9D9D9" />
    </mask>
    <g mask="url(#mask7_558_960)">
        <path
            d="M250.193 268.718V254.282C250.193 253.123 250.585 252.152 251.369 251.369C252.152 250.585 253.123 250.193 254.282 250.193H268.718C269.877 250.193 270.848 250.585 271.631 251.369C272.415 252.152 272.807 253.123 272.807 254.282V268.718C272.807 269.877 272.415 270.848 271.631 271.631C270.848 272.415 269.877 272.807 268.718 272.807H254.282C253.123 272.807 252.152 272.415 251.369 271.631C250.585 270.848 250.193 269.877 250.193 268.718ZM249.062 295.508V290.898H240.278C237.993 290.898 236.059 290.107 234.476 288.524C232.893 286.941 232.102 285.007 232.102 282.722V273.938H227.492C226.531 273.938 225.725 273.612 225.075 272.962C224.425 272.311 224.1 271.506 224.1 270.544C224.1 269.583 224.425 268.777 225.075 268.128C225.725 267.478 226.531 267.153 227.492 267.153H232.102V255.846H227.492C226.531 255.846 225.725 255.521 225.075 254.871C224.425 254.22 224.1 253.414 224.1 252.453C224.1 251.491 224.425 250.686 225.075 250.037C225.725 249.387 226.531 249.062 227.492 249.062H232.102V240.278C232.102 237.993 232.893 236.059 234.476 234.476C236.059 232.893 237.993 232.102 240.278 232.102H249.062V227.492C249.062 226.531 249.387 225.725 250.038 225.075C250.689 224.425 251.494 224.1 252.455 224.1C253.417 224.1 254.223 224.425 254.872 225.075C255.522 225.725 255.846 226.531 255.846 227.492V232.102H267.153V227.492C267.153 226.531 267.479 225.725 268.129 225.075C268.78 224.425 269.586 224.1 270.547 224.1C271.509 224.1 272.314 224.425 272.963 225.075C273.613 225.725 273.938 226.531 273.938 227.492V232.102H282.722C285.007 232.102 286.941 232.893 288.524 234.476C290.107 236.059 290.898 237.993 290.898 240.278V249.062H295.508C296.469 249.062 297.275 249.387 297.925 250.038C298.575 250.689 298.9 251.494 298.9 252.455C298.9 253.417 298.575 254.223 297.925 254.872C297.275 255.522 296.469 255.846 295.508 255.846H290.898V267.153H295.508C296.469 267.153 297.275 267.479 297.925 268.129C298.575 268.78 298.9 269.586 298.9 270.547C298.9 271.509 298.575 272.314 297.925 272.963C297.275 273.613 296.469 273.938 295.508 273.938H290.898V282.722C290.898 285.007 290.107 286.941 288.524 288.524C286.941 290.107 285.007 290.898 282.722 290.898H273.938V295.508C273.938 296.469 273.612 297.275 272.962 297.925C272.311 298.575 271.506 298.9 270.544 298.9C269.583 298.9 268.777 298.575 268.128 297.925C267.478 297.275 267.153 296.469 267.153 295.508V290.898H255.846V295.508C255.846 296.469 255.521 297.275 254.871 297.925C254.22 298.575 253.414 298.9 252.453 298.9C251.491 298.9 250.686 298.575 250.037 297.925C249.387 297.275 249.062 296.469 249.062 295.508ZM282.722 284.114C283.07 284.114 283.389 283.969 283.679 283.679C283.969 283.389 284.114 283.07 284.114 282.722V240.278C284.114 239.929 283.969 239.611 283.679 239.321C283.389 239.031 283.07 238.886 282.722 238.886H240.278C239.929 238.886 239.611 239.031 239.321 239.321C239.031 239.611 238.886 239.929 238.886 240.278V282.722C238.886 283.07 239.031 283.389 239.321 283.679C239.611 283.969 239.929 284.114 240.278 284.114H282.722Z"
            fill="white" />
    </g>
    <defs>
        <filter id="filter0_f_558_960" x="143.085" y="143.086" width="234.364" height="234.365"
            filterUnits="userSpaceOnUse" color-interpolation-filters="sRGB">
            <feFlood flood-opacity="0" result="BackgroundImageFix" />
            <feBlend mode="normal" in="SourceGraphic" in2="BackgroundImageFix" result="shape" />
            <feGaussianBlur stdDeviation="32.0709" result="effect1_foregroundBlur_558_960" />
        </filter>
    </defs>
</svg>