<svg width="589" height="394" viewBox="0 0 589 394" fill="none" xmlns="http://www.w3.org/2000/svg">
<g clip-path="url(#clip0_558_801)" filter="url(#filter0_d_558_801)">
<path d="M294.936 343.311C375.178 343.311 440.228 277.963 440.228 197.352C440.228 116.741 375.178 51.3936 294.936 51.3936C214.693 51.3936 149.644 116.741 149.644 197.352C149.644 277.963 214.693 343.311 294.936 343.311Z" fill="url(#paint0_linear_558_801)"/>
<path fill-rule="evenodd" clip-rule="evenodd" d="M272.133 293.466V297.353C272.133 310.826 283.011 321.753 296.432 321.753C309.854 321.753 320.731 310.826 320.731 297.343V293.455" fill="white"/>
<path d="M272.133 293.466V297.353C272.133 310.826 283.011 321.753 296.432 321.753C309.854 321.753 320.731 310.826 320.731 297.343V293.455" stroke="#E1E4E5" stroke-width="6.69524" stroke-linecap="round" stroke-linejoin="round"/>
<path fill-rule="evenodd" clip-rule="evenodd" d="M318.13 98.5038V87.6312C318.13 75.6448 308.336 65.9209 296.237 65.9209C284.138 65.9209 274.345 75.6448 274.345 87.6312V98.5038" fill="white"/>
<path d="M318.13 98.5038V87.6312C318.13 75.6448 308.336 65.9209 296.237 65.9209C284.138 65.9209 274.345 75.6448 274.345 87.6312V98.5038" stroke="#E1E4E5" stroke-width="6.69524" stroke-linecap="round" stroke-linejoin="round"/>
<path fill-rule="evenodd" clip-rule="evenodd" d="M213.285 168.414C213.285 129.96 244.314 98.8037 282.577 98.8037H310.303C348.581 98.8037 379.596 129.976 379.596 168.414V211.385C379.599 219.533 382.822 227.347 388.557 233.109L398.36 242.956C404.096 248.718 407.319 256.532 407.322 264.68C407.322 280.719 394.384 293.716 378.418 293.716H214.462C198.496 293.716 185.559 280.719 185.559 264.68C185.561 256.532 188.784 248.718 194.52 242.956L204.323 233.109C210.058 227.347 213.282 219.533 213.285 211.385V168.414Z" fill="white" stroke="#E1E4E5" stroke-width="6.69524" stroke-linecap="round" stroke-linejoin="round"/>
<path d="M272.239 143.304H137.311C128.355 143.304 121.095 150.597 121.095 159.595V191.489C121.095 200.486 128.355 207.78 137.311 207.78H272.239C281.195 207.78 288.455 200.486 288.455 191.489V159.595C288.455 150.597 281.195 143.304 272.239 143.304Z" fill="white" stroke="#E1E4E5" stroke-width="6.69524"/>
<path d="M267.592 163.373H181.026C178.924 163.373 177.221 165.084 177.221 167.196C177.221 169.307 178.924 171.018 181.026 171.018H267.592C269.693 171.018 271.397 169.307 271.397 167.196C271.397 165.084 269.693 163.373 267.592 163.373Z" fill="#E1E4E5"/>
<path d="M234.297 179.62H181.026C178.924 179.62 177.221 181.332 177.221 183.443C177.221 185.554 178.924 187.265 181.026 187.265H234.297C236.399 187.265 238.102 185.554 238.102 183.443C238.102 181.332 236.399 179.62 234.297 179.62Z" fill="#E1E4E5"/>
<path fill-rule="evenodd" clip-rule="evenodd" d="M147.619 191.798C138.748 191.798 131.555 184.471 131.555 175.434C131.555 166.396 138.748 159.069 147.619 159.069C156.49 159.069 163.682 166.396 163.682 175.434C163.682 184.471 156.49 191.798 147.619 191.798Z" fill="#E24242"/>
<path d="M153.274 172.706L146.488 179.979L142.414 175.616" stroke="white" stroke-width="5.97274" stroke-linecap="round" stroke-linejoin="round"/>
<path fill-rule="evenodd" clip-rule="evenodd" d="M341.237 135.974C323.102 135.974 308.398 120.655 308.398 101.762C308.398 82.869 323.102 67.5508 341.237 67.5508C359.373 67.5508 374.076 82.869 374.076 101.762C374.076 120.655 359.373 135.974 341.237 135.974Z" fill="#E24242"/>
<path d="M263.566 237.041H128.639C119.682 237.041 112.422 244.335 112.422 253.332V285.226C112.422 294.224 119.682 301.517 128.639 301.517H263.566C272.522 301.517 279.782 294.224 279.782 285.226V253.332C279.782 244.335 272.522 237.041 263.566 237.041Z" fill="white" stroke="#E1E4E5" stroke-width="6.69524"/>
<path d="M258.917 257.108H172.351C170.249 257.108 168.546 258.82 168.546 260.931C168.546 263.042 170.249 264.753 172.351 264.753H258.917C261.019 264.753 262.722 263.042 262.722 260.931C262.722 258.82 261.019 257.108 258.917 257.108Z" fill="#E1E4E5"/>
<path d="M225.622 273.354H172.351C170.249 273.354 168.546 275.066 168.546 277.177C168.546 279.288 170.249 281 172.351 281H225.622C227.724 281 229.427 279.288 229.427 277.177C229.427 275.066 227.724 273.354 225.622 273.354Z" fill="#E1E4E5"/>
<path fill-rule="evenodd" clip-rule="evenodd" d="M138.946 285.53C130.075 285.53 122.883 278.203 122.883 269.165C122.883 260.128 130.075 252.801 138.946 252.801C147.817 252.801 155.01 260.128 155.01 269.165C155.01 278.203 147.817 285.53 138.946 285.53Z" fill="#E24242"/>
<path d="M144.603 266.441L137.817 273.714L133.743 269.351" stroke="white" stroke-width="5.97274" stroke-linecap="round" stroke-linejoin="round"/>
<path d="M474.948 172.63H340.021C331.065 172.63 323.805 179.924 323.805 188.921V220.815C323.805 229.812 331.065 237.106 340.021 237.106H474.948C483.905 237.106 491.165 229.812 491.165 220.815V188.921C491.165 179.924 483.905 172.63 474.948 172.63Z" fill="white" stroke="#E1E4E5" stroke-width="6.69524"/>
<path d="M470.3 192.699H383.734C381.632 192.699 379.929 194.411 379.929 196.522C379.929 198.633 381.632 200.344 383.734 200.344H470.3C472.401 200.344 474.105 198.633 474.105 196.522C474.105 194.411 472.401 192.699 470.3 192.699Z" fill="#E1E4E5"/>
<path d="M437.005 208.942H383.734C381.632 208.942 379.929 210.654 379.929 212.765C379.929 214.876 381.632 216.587 383.734 216.587H437.005C439.107 216.587 440.81 214.876 440.81 212.765C440.81 210.654 439.107 208.942 437.005 208.942Z" fill="#E1E4E5"/>
<path fill-rule="evenodd" clip-rule="evenodd" d="M350.329 221.122C341.457 221.122 334.265 213.795 334.265 204.757C334.265 195.72 341.457 188.393 350.329 188.393C359.2 188.393 366.392 195.72 366.392 204.757C366.392 213.795 359.2 221.122 350.329 221.122Z" fill="#E24242"/>
<path d="M355.986 202.03L349.2 209.303L345.126 204.94" stroke="white" stroke-width="5.97274" stroke-linecap="round" stroke-linejoin="round"/>
<path d="M346.22 88.5049H340.712L333.851 92.8693V98.0897L340.197 94.0927H340.36V116.348H346.22V88.5049Z" fill="white"/>
</g>
<defs>
<filter id="filter0_d_558_801" x="-6.9245" y="-2.06592" width="603.071" height="408.966" filterUnits="userSpaceOnUse" color-interpolation-filters="sRGB">
<feFlood flood-opacity="0" result="BackgroundImageFix"/>
<feColorMatrix in="SourceAlpha" type="matrix" values="0 0 0 0 0 0 0 0 0 0 0 0 0 0 0 0 0 0 127 0" result="hardAlpha"/>
<feOffset dy="5.39178"/>
<feGaussianBlur stdDeviation="3.84164"/>
<feComposite in2="hardAlpha" operator="out"/>
<feColorMatrix type="matrix" values="0 0 0 0 0 0 0 0 0 0 0 0 0 0 0 0 0 0 0.25 0"/>
<feBlend mode="normal" in2="BackgroundImageFix" result="effect1_dropShadow_558_801"/>
<feBlend mode="normal" in="SourceGraphic" in2="effect1_dropShadow_558_801" result="shape"/>
</filter>
<linearGradient id="paint0_linear_558_801" x1="301.131" y1="506.977" x2="292.089" y2="-266.163" gradientUnits="userSpaceOnUse">
<stop stop-color="white"/>
<stop offset="1" stop-color="#EEEEEE"/>
</linearGradient>
<clipPath id="clip0_558_801">
<rect width="587.704" height="393.6" fill="white" transform="translate(0.758789 0.225586)"/>
</clipPath>
</defs>
</svg>
