<svg width="1079" height="721" viewBox="0 0 1079 721" fill="none" xmlns="http://www.w3.org/2000/svg">
<path d="M439.847 437.031V554.023M339.64 319.576V554.029M239.434 495.751V554.029M540.055 378.287V554.025M639.749 437.031V554.023M739.956 319.576V554.029M840.164 495.751V554.029" stroke="#F64649" stroke-width="49.2634" stroke-linecap="round" stroke-linejoin="round"/>
<path fill-rule="evenodd" clip-rule="evenodd" d="M158.538 430.531H163.936C165.241 430.531 166.292 431.596 166.292 432.893V438.306C166.292 439.615 165.23 440.669 163.936 440.669H158.538C157.914 440.666 157.316 440.416 156.875 439.974C156.433 439.531 156.184 438.931 156.182 438.306V432.893C156.181 432.583 156.242 432.275 156.36 431.988C156.478 431.701 156.652 431.441 156.871 431.221C157.09 431.002 157.35 430.828 157.636 430.709C157.922 430.591 158.229 430.53 158.538 430.531ZM177.252 430.531H182.649C183.943 430.531 185.005 431.596 185.005 432.893V438.306C185.005 439.615 183.943 440.669 182.649 440.669H177.252C176.627 440.666 176.029 440.416 175.588 439.974C175.147 439.531 174.898 438.931 174.896 438.306V432.893C174.896 431.596 175.958 430.531 177.252 430.531ZM195.978 430.531H201.376C202.67 430.531 203.732 431.596 203.732 432.893V438.306C203.732 439.615 202.67 440.669 201.376 440.669H195.978C195.354 440.666 194.756 440.416 194.314 439.974C193.873 439.531 193.624 438.931 193.622 438.306V432.893C193.622 432.583 193.682 432.275 193.8 431.989C193.918 431.702 194.092 431.441 194.311 431.222C194.53 431.002 194.79 430.828 195.076 430.71C195.362 430.591 195.668 430.531 195.978 430.531ZM214.692 430.531H220.09C221.384 430.531 222.447 431.596 222.447 432.893V438.306C222.447 439.615 221.384 440.669 220.09 440.669H214.692C214.066 440.668 213.466 440.42 213.022 439.977C212.579 439.534 212.329 438.933 212.326 438.306V432.893C212.332 432.267 212.584 431.668 213.027 431.226C213.469 430.785 214.067 430.535 214.692 430.531ZM233.408 430.531H238.805C240.111 430.531 241.173 431.596 241.173 432.893V438.306C241.172 438.617 241.111 438.924 240.991 439.211C240.872 439.499 240.697 439.759 240.477 439.979C240.257 440.198 239.997 440.372 239.71 440.49C239.423 440.608 239.115 440.668 238.805 440.668H233.408C232.783 440.665 232.186 440.416 231.744 439.973C231.303 439.531 231.054 438.931 231.052 438.306V432.893C231.052 431.596 232.114 430.531 233.408 430.531ZM177.938 450.994H183.336C184.63 450.994 185.691 452.058 185.691 453.356V458.779C185.691 460.076 184.63 461.142 183.336 461.142H177.938C177.313 461.141 176.715 460.892 176.273 460.449C175.831 460.006 175.583 459.405 175.582 458.779V453.366C175.581 453.055 175.64 452.747 175.758 452.459C175.875 452.171 176.049 451.909 176.268 451.688C176.486 451.468 176.747 451.293 177.034 451.174C177.32 451.054 177.628 450.993 177.938 450.994ZM196.652 450.994H202.05C203.344 450.994 204.406 452.058 204.406 453.356V458.779C204.406 460.076 203.344 461.142 202.05 461.142H196.652C196.028 461.139 195.43 460.89 194.989 460.447C194.547 460.004 194.298 459.405 194.296 458.779V453.366C194.294 453.055 194.354 452.747 194.471 452.459C194.589 452.171 194.762 451.909 194.981 451.688C195.2 451.468 195.461 451.293 195.748 451.174C196.034 451.054 196.342 450.993 196.652 450.994ZM215.368 450.994H220.766C222.07 450.994 223.133 452.058 223.133 453.356V458.779C223.133 460.076 222.07 461.142 220.766 461.142H215.368C214.744 461.139 214.146 460.89 213.705 460.447C213.263 460.004 213.014 459.405 213.012 458.779V453.366C213.012 452.058 214.074 450.994 215.368 450.994ZM195.978 408.549H201.376C202.67 408.549 203.732 409.613 203.732 410.911V416.323C203.732 417.633 202.67 418.686 201.376 418.686H195.978C195.354 418.684 194.756 418.434 194.314 417.991C193.873 417.549 193.624 416.949 193.622 416.323V410.911C193.622 410.6 193.682 410.293 193.8 410.006C193.918 409.719 194.092 409.459 194.311 409.239C194.53 409.02 194.79 408.846 195.076 408.727C195.362 408.609 195.668 408.548 195.978 408.549ZM214.692 408.549H220.09C221.384 408.549 222.447 409.613 222.447 410.911V416.323C222.447 417.633 221.384 418.686 220.09 418.686H214.692C214.066 418.686 213.466 418.437 213.022 417.994C212.579 417.552 212.329 416.951 212.326 416.323V410.911C212.332 410.285 212.584 409.686 213.027 409.244C213.469 408.802 214.067 408.553 214.692 408.549ZM835.201 456.572H840.598C841.904 456.572 842.954 457.636 842.954 458.934V464.346C842.954 464.973 842.705 465.573 842.263 466.016C841.821 466.459 841.222 466.708 840.598 466.708H835.201C834.577 466.706 833.979 466.456 833.537 466.014C833.096 465.572 832.847 464.972 832.844 464.346V458.934C832.844 458.623 832.904 458.316 833.022 458.029C833.141 457.742 833.314 457.481 833.533 457.262C833.752 457.042 834.012 456.868 834.298 456.75C834.585 456.632 834.891 456.571 835.201 456.572ZM853.914 456.572H859.312C860.606 456.572 861.667 457.636 861.667 458.934V464.346C861.667 464.972 861.418 465.573 860.977 466.016C860.535 466.459 859.936 466.708 859.312 466.708H853.914C853.29 466.706 852.692 466.456 852.251 466.014C851.81 465.571 851.561 464.972 851.558 464.346V458.934C851.558 457.636 852.62 456.572 853.914 456.572ZM872.64 456.572H878.038C879.332 456.572 880.395 457.636 880.395 458.934V464.346C880.394 464.973 880.145 465.573 879.703 466.016C879.262 466.459 878.663 466.708 878.038 466.708H872.64C872.016 466.706 871.418 466.456 870.977 466.014C870.536 465.571 870.287 464.972 870.285 464.346V458.934C870.284 458.623 870.345 458.316 870.463 458.029C870.581 457.742 870.754 457.482 870.973 457.262C871.192 457.043 871.452 456.869 871.738 456.75C872.024 456.632 872.331 456.571 872.64 456.572ZM891.355 456.572H896.752C898.046 456.572 899.108 457.636 899.108 458.934V464.346C899.107 464.972 898.859 465.573 898.417 466.016C897.976 466.459 897.377 466.708 896.752 466.708H891.355C890.729 466.708 890.129 466.46 889.685 466.017C889.242 465.574 888.991 464.974 888.988 464.346V458.934C888.995 458.308 889.247 457.709 889.689 457.267C890.132 456.825 890.73 456.576 891.355 456.572ZM910.07 456.572H915.468C916.773 456.572 917.835 457.636 917.835 458.934V464.346C917.835 464.657 917.773 464.965 917.654 465.252C917.534 465.539 917.36 465.8 917.14 466.019C916.92 466.239 916.659 466.412 916.372 466.531C916.085 466.649 915.778 466.709 915.468 466.708H910.07C909.446 466.706 908.848 466.456 908.407 466.014C907.966 465.571 907.717 464.972 907.714 464.346V458.934C907.714 457.636 908.776 456.572 910.07 456.572ZM854.601 477.034H859.998C861.292 477.034 862.354 478.099 862.354 479.396V484.82C862.354 486.117 861.292 487.182 859.998 487.182H854.601C853.976 487.181 853.377 486.932 852.935 486.489C852.493 486.047 852.244 485.446 852.244 484.82V479.407C852.242 479.096 852.302 478.787 852.419 478.499C852.537 478.211 852.711 477.949 852.93 477.729C853.149 477.508 853.409 477.333 853.696 477.214C853.983 477.095 854.29 477.034 854.601 477.034ZM873.315 477.034H878.713C880.007 477.034 881.068 478.099 881.068 479.396V484.82C881.068 486.117 880.007 487.182 878.713 487.182H873.315C872.691 487.179 872.093 486.93 871.651 486.487C871.21 486.045 870.961 485.445 870.958 484.82V479.407C870.956 479.096 871.016 478.787 871.134 478.499C871.251 478.211 871.425 477.949 871.644 477.729C871.863 477.508 872.123 477.333 872.41 477.214C872.697 477.095 873.004 477.034 873.315 477.034ZM892.03 477.034H897.428C898.733 477.034 899.794 478.099 899.794 479.396V484.82C899.794 486.117 898.733 487.182 897.428 487.182H892.03C891.406 487.179 890.808 486.93 890.367 486.487C889.926 486.045 889.677 485.445 889.675 484.82V479.407C889.675 478.099 890.736 477.034 892.03 477.034ZM872.64 434.59H878.038C879.332 434.59 880.395 435.654 880.395 436.952V442.364C880.395 443.673 879.332 444.727 878.038 444.727H872.64C872.016 444.725 871.418 444.475 870.977 444.032C870.536 443.589 870.287 442.99 870.285 442.364V436.952C870.284 436.641 870.345 436.334 870.463 436.047C870.581 435.76 870.754 435.499 870.973 435.28C871.192 435.06 871.452 434.887 871.738 434.768C872.024 434.65 872.331 434.589 872.64 434.59ZM891.355 434.59H896.752C898.046 434.59 899.108 435.654 899.108 436.952V442.364C899.108 443.673 898.046 444.727 896.752 444.727H891.355C890.729 444.727 890.128 444.478 889.685 444.035C889.242 443.592 888.991 442.991 888.988 442.364V436.952C888.995 436.325 889.247 435.727 889.689 435.285C890.132 434.843 890.73 434.593 891.355 434.59Z" fill="#ADB5B8"/>
<path d="M154.729 243.965L136.284 262.441L127.324 253.483M194.69 235.124H249.2M195.114 262.24H285.259M154.729 307.237L136.284 325.712L127.324 316.755M194.69 298.397H249.2M195.114 325.513H285.259M821.291 265.665L802.847 284.141L793.887 275.183M861.252 256.824H915.763M861.676 283.94H951.821M821.291 328.938L802.847 347.412L793.887 338.455M861.252 320.097H915.763M861.676 347.213H951.821" stroke="#ADB5B8" stroke-width="5.39178" stroke-linecap="round" stroke-linejoin="round"/>
<path d="M552.968 316.339C532.939 321.097 511.757 304.066 511.757 304.066C511.757 304.066 523.062 279.33 543.096 274.587C563.125 269.829 584.301 286.846 584.301 286.846C584.301 286.846 572.997 311.582 552.968 316.339Z" fill="url(#paint0_linear_558_828)"/>
<path d="M601.685 239.174C622.77 253.737 654.983 243.557 654.983 243.557C654.983 243.557 652.99 209.77 631.89 195.222C610.804 180.658 578.604 190.824 578.604 190.824C578.604 190.824 580.599 224.612 601.685 239.174Z" fill="url(#paint1_linear_558_828)"/>
<path d="M756.927 236.03C744.333 248.882 720.781 246.173 720.781 246.173C720.781 246.173 717.664 222.622 730.27 209.776C742.865 196.922 766.406 199.626 766.406 199.626C766.406 199.626 769.522 223.176 756.927 236.03Z" fill="url(#paint2_linear_558_828)"/>
<path d="M647.445 496.792C641.469 496.792 636.624 501.65 636.624 507.642C636.624 513.634 641.469 518.492 647.445 518.492C653.421 518.492 658.266 513.634 658.266 507.642C658.266 501.65 653.421 496.792 647.445 496.792Z" fill="#F64649"/>
<path d="M640.126 325.583C627.481 325.583 617.229 335.53 617.229 347.801C617.229 360.071 627.481 370.019 640.126 370.019C652.772 370.019 663.023 360.071 663.023 347.801C663.023 335.53 652.772 325.583 640.126 325.583Z" fill="#F64649"/>
<path d="M112.364 420.501C107.877 420.501 104.24 416.853 104.24 412.354C104.24 407.854 107.877 404.207 112.364 404.207C116.852 404.207 120.489 407.854 120.489 412.354C120.489 416.853 116.852 420.501 112.364 420.501Z" fill="#F64649"/>
<path d="M874.324 226.99C865.757 226.99 858.813 220.027 858.813 211.438C858.813 202.849 865.757 195.886 874.324 195.886C882.89 195.886 889.834 202.849 889.834 211.438C889.834 220.027 882.89 226.99 874.324 226.99Z" fill="#F64649"/>
<path d="M686.92 186.614C682.841 186.614 679.535 183.298 679.535 179.208C679.535 175.118 682.841 171.803 686.92 171.803C690.999 171.803 694.306 175.118 694.306 179.208C694.306 183.298 690.999 186.614 686.92 186.614Z" fill="#ADB5B8"/>
<path d="M351.901 258.541C346.598 258.541 342.299 254.231 342.299 248.913C342.299 243.596 346.598 239.285 351.901 239.285C357.204 239.285 361.503 243.596 361.503 248.913C361.503 254.231 357.204 258.541 351.901 258.541Z" fill="#ADB5B8"/>
<path d="M880.625 394.359C876.546 394.359 873.24 391.706 873.24 388.433C873.24 385.161 876.546 382.508 880.625 382.508C884.704 382.508 888.011 385.161 888.011 388.433C888.011 391.706 884.704 394.359 880.625 394.359Z" fill="#ADB5B8"/>
<path d="M447.645 323.313C449.793 331.348 445.037 339.607 437.024 341.76C429.01 343.913 420.773 339.145 418.626 331.109C416.479 323.074 421.234 314.815 429.248 312.662C437.261 310.509 445.498 315.278 447.645 323.313Z" fill="#ADB5B8"/>
<path d="M959.884 413.187H960.077C961.221 429.442 973.278 429.693 973.278 429.693C973.278 429.693 959.984 429.953 959.984 448.736C959.984 429.953 946.689 429.693 946.689 429.693C946.689 429.693 958.74 429.442 959.884 413.187ZM475.554 233.074H475.743C476.861 249.613 488.635 249.866 488.635 249.866C488.635 249.866 475.651 250.132 475.651 269.242C475.651 250.132 462.666 249.866 462.666 249.866C462.666 249.866 474.437 249.613 475.554 233.074Z" fill="#ADB5B8"/>
<defs>
<linearGradient id="paint0_linear_558_828" x1="477.547" y1="328.168" x2="653.048" y2="245.48" gradientUnits="userSpaceOnUse">
<stop stop-color="white"/>
<stop offset="1" stop-color="#CCCCCC"/>
</linearGradient>
<linearGradient id="paint1_linear_558_828" x1="683.822" y1="286.957" x2="517.369" y2="111.911" gradientUnits="userSpaceOnUse">
<stop stop-color="white"/>
<stop offset="1" stop-color="#CCCCCC"/>
</linearGradient>
<linearGradient id="paint2_linear_558_828" x1="706.676" y1="279.934" x2="798.08" y2="137.037" gradientUnits="userSpaceOnUse">
<stop stop-color="white"/>
<stop offset="1" stop-color="#CCCCCC"/>
</linearGradient>
</defs>
</svg>
