<svg width="523" height="523" viewBox="0 0 523 523" fill="none" xmlns="http://www.w3.org/2000/svg">
<rect x="48.1046" y="70.3126" width="81.4108" height="81.4108" rx="16.0355" stroke="black" stroke-width="2.46699"/>
<rect x="220.796" y="1.23643" width="81.4108" height="81.4108" rx="16.0355" stroke="black" stroke-width="2.46699"/>
<rect x="381.151" y="70.3126" width="81.4108" height="81.4108" rx="16.0355" stroke="black" stroke-width="2.46699"/>
<rect x="440.357" y="215.864" width="81.4108" height="81.4108" rx="16.0355" stroke="black" stroke-width="2.46699"/>
<rect x="381.151" y="361.416" width="81.4108" height="81.4108" rx="16.0355" stroke="black" stroke-width="2.46699"/>
<rect x="220.796" y="440.361" width="81.4108" height="81.4108" rx="16.0355" stroke="black" stroke-width="2.46699"/>
<rect x="48.1046" y="361.416" width="81.4108" height="81.4108" rx="16.0355" stroke="black" stroke-width="2.46699"/>
<rect x="1.2335" y="220.798" width="81.4108" height="81.4108" rx="16.0355" stroke="black" stroke-width="2.46699"/>
<path d="M284.426 31.4864L284.171 31.234C275.333 22.4871 261.004 22.4871 252.167 31.234L247.428 35.924L237.588 30.3017C235.78 29.2697 233.699 31.1428 234.567 33.0211L237.577 39.5375C238.166 40.8134 238.166 42.2813 237.577 43.5572L234.567 50.0736C233.699 51.952 235.78 53.8261 237.588 52.7931L247.427 47.1708L251.911 51.6084C260.89 60.4942 275.448 60.4942 284.426 51.6084C290.041 46.0518 290.041 37.043 284.426 31.4875V31.4864ZM276.279 41.5474C274.766 41.5474 273.539 40.333 273.539 38.8354C273.539 37.3378 274.766 36.1234 276.279 36.1234C277.792 36.1234 279.019 37.3378 279.019 38.8354C279.019 40.333 277.792 41.5474 276.279 41.5474Z" fill="black"/>
<mask id="mask0_558_962" style="mask-type:alpha" maskUnits="userSpaceOnUse" x="231" y="451" width="61" height="60">
<rect x="231.896" y="451.462" width="59.2079" height="59.2079" fill="#D9D9D9"/>
</mask>
<g mask="url(#mask0_558_962)">
<path d="M244.991 502.036C243.745 502.036 242.69 501.604 241.826 500.74C240.963 499.877 240.531 498.822 240.531 497.576V464.556C240.531 463.31 240.963 462.255 241.826 461.392C242.69 460.528 243.745 460.097 244.991 460.097H278.01C279.257 460.097 280.312 460.528 281.175 461.392C282.038 462.255 282.47 463.31 282.47 464.556V497.576C282.47 498.822 282.038 499.877 281.175 500.74C280.312 501.604 279.257 502.036 278.01 502.036H244.991ZM251.633 492.784H263.968C264.492 492.784 264.931 492.607 265.286 492.252C265.641 491.897 265.818 491.458 265.818 490.933C265.818 490.409 265.641 489.97 265.286 489.615C264.931 489.261 264.492 489.084 263.968 489.084H251.633C251.108 489.084 250.669 489.261 250.315 489.616C249.96 489.971 249.782 490.41 249.782 490.935C249.782 491.459 249.96 491.899 250.315 492.253C250.669 492.607 251.108 492.784 251.633 492.784ZM251.633 482.916H271.369C271.893 482.916 272.332 482.739 272.687 482.384C273.042 482.029 273.219 481.59 273.219 481.066C273.219 480.541 273.042 480.102 272.687 479.748C272.332 479.393 271.893 479.216 271.369 479.216H251.633C251.108 479.216 250.669 479.393 250.315 479.748C249.96 480.103 249.782 480.543 249.782 481.067C249.782 481.591 249.96 482.031 250.315 482.385C250.669 482.739 251.108 482.916 251.633 482.916ZM251.633 473.048H271.369C271.893 473.048 272.332 472.871 272.687 472.516C273.042 472.161 273.219 471.722 273.219 471.198C273.219 470.673 273.042 470.234 272.687 469.88C272.332 469.525 271.893 469.348 271.369 469.348H251.633C251.108 469.348 250.669 469.525 250.315 469.88C249.96 470.235 249.782 470.675 249.782 471.199C249.782 471.723 249.96 472.163 250.315 472.517C250.669 472.871 251.108 473.048 251.633 473.048Z" fill="#1C1B1F"/>
</g>
<mask id="mask1_558_962" style="mask-type:alpha" maskUnits="userSpaceOnUse" x="392" y="372" width="60" height="60">
<rect x="392.252" y="372.521" width="59.2079" height="59.2079" fill="#D9D9D9"/>
</mask>
<g mask="url(#mask1_558_962)">
<path d="M421.81 425.521C420.298 425.521 418.827 425.345 417.396 424.993C415.965 424.64 414.466 424.081 412.901 423.315C411.158 424.065 409.476 424.599 407.855 424.919C406.234 425.238 404.529 425.439 402.739 425.521C402.213 425.547 401.774 425.382 401.42 425.028C401.066 424.674 400.888 424.234 400.888 423.709C400.888 423.184 401.066 422.745 401.42 422.391C401.774 422.036 402.213 421.846 402.739 421.821C403.615 421.78 404.45 421.71 405.246 421.612C406.041 421.514 406.827 421.365 407.602 421.164C408.376 420.963 409.16 420.711 409.952 420.407C410.744 420.104 411.563 419.754 412.407 419.359C412.597 419.276 412.787 419.235 412.977 419.235C413.166 419.235 413.356 419.276 413.546 419.359C414.887 420.105 416.186 420.701 417.443 421.145C418.7 421.589 420.156 421.811 421.81 421.811C423.464 421.811 424.92 421.589 426.177 421.145C427.435 420.701 428.734 420.105 430.075 419.359C430.265 419.276 430.454 419.235 430.644 419.235C430.834 419.235 431.024 419.276 431.213 419.359C432.074 419.77 432.9 420.127 433.692 420.431C434.484 420.735 435.272 420.983 436.055 421.176C436.838 421.369 437.633 421.514 438.441 421.612C439.249 421.71 440.095 421.78 440.977 421.821C441.502 421.846 441.942 422.036 442.296 422.391C442.65 422.745 442.827 423.184 442.827 423.709C442.827 424.234 442.65 424.674 442.296 425.028C441.942 425.382 441.502 425.547 440.977 425.521C439.171 425.439 437.45 425.242 435.813 424.931C434.176 424.619 432.491 424.081 430.758 423.315C429.192 424.081 427.688 424.64 426.244 424.993C424.8 425.345 423.322 425.521 421.81 425.521ZM408.882 387.985V396.378L420.624 393.014C421.02 392.891 421.415 392.829 421.81 392.829C422.206 392.829 422.601 392.891 422.996 393.014L434.739 396.378V387.985C434.739 387.795 434.671 387.637 434.537 387.511C434.402 387.384 434.24 387.321 434.05 387.321H409.57C409.38 387.321 409.218 387.384 409.084 387.511C408.949 387.637 408.882 387.795 408.882 387.985ZM421.834 416.403C419.715 416.403 417.821 415.731 416.153 414.387C414.484 413.043 413.286 411.943 412.559 411.089C411.731 411.94 410.902 412.684 410.073 413.319C409.244 413.955 408.405 414.507 407.554 414.975C406.852 415.351 406.136 415.35 405.407 414.97C404.678 414.591 404.198 414.006 403.967 413.215L400.338 401.127C400.164 400.523 400.222 399.961 400.511 399.44C400.801 398.92 401.247 398.565 401.852 398.375L405.182 397.388V388.08C405.182 386.85 405.618 385.799 406.489 384.927C407.36 384.056 408.411 383.621 409.641 383.621H416.473V380.917C416.473 380.281 416.686 379.75 417.111 379.325C417.537 378.899 418.067 378.687 418.703 378.687H424.917C425.554 378.687 426.084 378.899 426.509 379.325C426.935 379.75 427.148 380.281 427.148 380.917V383.621H433.979C435.21 383.621 436.26 384.056 437.132 384.927C438.003 385.799 438.439 386.85 438.439 388.08V397.388L441.769 398.375C442.373 398.565 442.82 398.92 443.11 399.44C443.399 399.961 443.456 400.523 443.282 401.127L439.677 413.239C439.446 414.014 438.97 414.587 438.249 414.958C437.528 415.33 436.808 415.335 436.09 414.975C435.214 414.507 434.366 413.959 433.545 413.331C432.724 412.703 431.905 411.956 431.086 411.089C430.326 411.943 429.12 413.043 427.468 414.387C425.815 415.731 423.937 416.403 421.834 416.403Z" fill="#1C1B1F"/>
</g>
<mask id="mask2_558_962" style="mask-type:alpha" maskUnits="userSpaceOnUse" x="59" y="81" width="60" height="60">
<rect x="59.2051" y="81.4141" width="59.2079" height="59.2079" fill="#D9D9D9"/>
</mask>
<g mask="url(#mask2_558_962)">
<path d="M88.8104 94.2718C88.2858 94.2718 87.8464 94.0946 87.4924 93.7402C87.138 93.3854 86.9608 92.9458 86.9608 92.4216V87.0133C86.9608 86.4891 87.1382 86.0498 87.493 85.6953C87.8479 85.3405 88.2874 85.1631 88.8116 85.1631C89.3363 85.1631 89.7756 85.3405 90.1296 85.6953C90.4841 86.0498 90.6613 86.4891 90.6613 87.0133V92.4216C90.6613 92.9458 90.4839 93.3854 90.129 93.7402C89.7742 94.0946 89.3347 94.2718 88.8104 94.2718ZM100.643 99.1867C100.302 98.8454 100.135 98.4226 100.143 97.9181C100.15 97.4136 100.325 96.9699 100.667 96.5871L104.429 92.7398C104.8 92.357 105.241 92.1656 105.751 92.1656C106.262 92.1656 106.71 92.3587 107.096 92.7448C107.45 93.0988 107.627 93.5303 107.627 94.0393C107.627 94.5488 107.448 94.9821 107.09 95.3394L103.243 99.1867C102.886 99.5444 102.452 99.7233 101.943 99.7233C101.434 99.7233 101.001 99.5444 100.643 99.1867ZM107.408 112.869C106.884 112.869 106.445 112.692 106.09 112.337C105.735 111.982 105.558 111.543 105.558 111.018C105.558 110.494 105.735 110.054 106.09 109.7C106.445 109.346 106.884 109.169 107.408 109.169H112.817C113.341 109.169 113.78 109.346 114.135 109.701C114.49 110.056 114.667 110.495 114.667 111.02C114.667 111.544 114.49 111.984 114.135 112.338C113.78 112.692 113.341 112.869 112.817 112.869H107.408ZM88.8104 136.875C88.2858 136.875 87.8464 136.698 87.4924 136.343C87.138 135.988 86.9608 135.549 86.9608 135.025V129.64C86.9608 129.116 87.1382 128.676 87.493 128.322C87.8479 127.967 88.2874 127.79 88.8116 127.79C89.3363 127.79 89.7756 127.967 90.1296 128.322C90.4841 128.676 90.6613 129.116 90.6613 129.64V135.025C90.6613 135.549 90.4839 135.988 90.129 136.343C89.7742 136.698 89.3347 136.875 88.8104 136.875ZM74.4032 99.1867L70.5318 95.4011C70.149 95.0315 69.9576 94.5847 69.9576 94.0609C69.9576 93.5375 70.149 93.0971 70.5318 92.7398C70.8891 92.3982 71.3276 92.2273 71.8474 92.2273C72.3671 92.2273 72.7951 92.3982 73.1314 92.7398L77.0028 96.6112C77.3444 96.9475 77.5153 97.3755 77.5153 97.8952C77.5153 98.415 77.3461 98.8454 77.0077 99.1867C76.6385 99.5284 76.2078 99.6992 75.7156 99.6992C75.223 99.6992 74.7855 99.5284 74.4032 99.1867ZM104.453 129.298L100.667 125.451C100.325 125.068 100.15 124.625 100.143 124.12C100.135 123.616 100.3 123.193 100.638 122.851C100.977 122.51 101.4 122.339 101.908 122.339C102.415 122.339 102.86 122.517 103.243 122.875L107.09 126.661C107.457 127.002 107.635 127.432 107.622 127.949C107.609 128.466 107.43 128.916 107.083 129.298C106.706 129.681 106.257 129.872 105.737 129.872C105.217 129.872 104.789 129.681 104.453 129.298ZM64.8053 112.869C64.2811 112.869 63.8418 112.692 63.4873 112.337C63.1325 111.982 62.9551 111.543 62.9551 111.018C62.9551 110.494 63.1325 110.054 63.4873 109.7C63.8418 109.346 64.2811 109.169 64.8053 109.169H70.2136C70.7378 109.169 71.1774 109.346 71.5322 109.701C71.8866 110.056 72.0638 110.495 72.0638 111.02C72.0638 111.544 71.8866 111.984 71.5322 112.338C71.1774 112.692 70.7378 112.869 70.2136 112.869H64.8053ZM70.5553 129.298C70.2136 128.941 70.0388 128.504 70.031 127.986C70.0232 127.47 70.1902 127.04 70.5318 126.699L74.3557 122.875C74.713 122.517 75.14 122.339 75.6367 122.339C76.1329 122.339 76.5725 122.516 76.9553 122.87C77.3381 123.256 77.5295 123.701 77.5295 124.206C77.5295 124.71 77.3381 125.154 76.9553 125.536L73.1931 129.298C72.8103 129.681 72.3591 129.872 71.8393 129.872C71.3196 129.872 70.8916 129.681 70.5553 129.298ZM88.8166 124.588C85.0491 124.588 81.8449 123.269 79.2039 120.632C76.563 117.994 75.2426 114.792 75.2426 111.025C75.2426 107.257 76.5612 104.053 79.1984 101.412C81.8356 98.771 85.038 97.4506 88.8055 97.4506C92.573 97.4506 95.7772 98.7692 98.4181 101.406C101.059 104.044 102.38 107.246 102.38 111.013C102.38 114.781 101.061 117.985 98.4237 120.626C95.7865 123.267 92.5841 124.588 88.8166 124.588Z" fill="#1C1B1F"/>
</g>
<mask id="mask3_558_962" style="mask-type:alpha" maskUnits="userSpaceOnUse" x="59" y="372" width="60" height="60">
<rect x="59.2051" y="372.521" width="59.2079" height="59.2079" fill="#D9D9D9"/>
</mask>
<g mask="url(#mask3_558_962)">
<path d="M86.2207 404.753L82.2926 400.824C81.9255 400.458 81.496 400.27 81.0042 400.262C80.5125 400.255 80.0752 400.442 79.6924 400.824C79.31 401.207 79.1188 401.647 79.1188 402.143C79.1188 402.64 79.31 403.079 79.6924 403.462L84.6597 408.468C85.1058 408.913 85.6262 409.136 86.2207 409.136C86.8153 409.136 87.3356 408.913 87.7817 408.468L98.0055 398.244C98.3723 397.877 98.5596 397.441 98.5674 396.936C98.5752 396.432 98.3879 395.989 98.0055 395.606C97.6227 395.223 97.183 395.032 96.6863 395.032C96.19 395.032 95.7505 395.223 95.3677 395.606L86.2207 404.753ZM88.8111 425.243C88.5549 425.243 88.3035 425.222 88.0568 425.181C87.8101 425.14 87.5712 425.078 87.3401 424.996C82.1376 423.146 77.9984 419.865 74.9225 415.154C71.8466 410.443 70.3086 405.36 70.3086 399.904V388.793C70.3086 387.86 70.5791 387.018 71.1202 386.267C71.6609 385.516 72.3566 384.971 73.2073 384.633L87.2501 379.39C87.7784 379.2 88.2987 379.105 88.8111 379.105C89.3234 379.105 89.8437 379.2 90.372 379.39L104.415 384.633C105.265 384.971 105.961 385.516 106.502 386.267C107.043 387.018 107.314 387.86 107.314 388.793V399.904C107.314 405.36 105.776 410.443 102.7 415.154C99.6237 419.865 95.4845 423.146 90.282 424.996C90.0509 425.078 89.812 425.14 89.5653 425.181C89.3186 425.222 89.0672 425.243 88.8111 425.243Z" fill="#1C1B1F"/>
</g>
<mask id="mask4_558_962" style="mask-type:alpha" maskUnits="userSpaceOnUse" x="392" y="81" width="60" height="60">
<rect x="392.252" y="81.4141" width="59.2079" height="59.2079" fill="#D9D9D9"/>
</mask>
<g mask="url(#mask4_558_962)">
<path d="M421.894 130.204C420.661 131.026 419.339 131.632 417.928 132.021C416.517 132.41 415.092 132.604 413.653 132.604C412.198 132.604 410.776 132.393 409.386 131.971C407.996 131.549 406.663 130.968 405.389 130.228C404.484 130.762 403.553 131.212 402.594 131.578C401.636 131.943 400.643 132.215 399.615 132.395C399.131 132.462 398.708 132.324 398.346 131.983C397.984 131.641 397.803 131.216 397.803 130.707C397.803 130.182 397.974 129.736 398.315 129.369C398.657 129.002 399.09 128.752 399.615 128.62C400.412 128.43 401.162 128.166 401.864 127.83C402.566 127.493 403.254 127.098 403.928 126.646C404.348 126.348 404.829 126.2 405.37 126.2C405.911 126.2 406.392 126.348 406.812 126.646C407.831 127.329 408.923 127.866 410.09 128.256C411.258 128.647 412.445 128.842 413.653 128.842C414.846 128.842 416.024 128.669 417.188 128.323C418.352 127.976 419.435 127.469 420.437 126.802C420.89 126.489 421.4 126.339 421.968 126.352C422.535 126.364 423.045 126.527 423.498 126.84C424.5 127.508 425.567 128.008 426.697 128.342C427.828 128.676 428.99 128.842 430.182 128.842C431.447 128.842 432.671 128.626 433.854 128.195C435.037 127.763 436.15 127.198 437.194 126.499C437.599 126.243 438.016 126.112 438.446 126.107C438.877 126.103 439.294 126.241 439.699 126.523C440.373 126.975 441.062 127.382 441.768 127.744C442.473 128.106 443.224 128.39 444.021 128.596C444.546 128.754 444.992 129.014 445.359 129.376C445.726 129.738 445.909 130.182 445.909 130.707C445.909 131.232 445.722 131.671 445.347 132.025C444.972 132.38 444.522 132.503 443.997 132.395C443.01 132.215 442.054 131.932 441.129 131.547C440.204 131.161 439.31 130.721 438.446 130.228C437.197 130.968 435.871 131.549 434.468 131.971C433.066 132.393 431.637 132.604 430.182 132.604C428.727 132.604 427.295 132.393 425.884 131.971C424.473 131.549 423.143 130.96 421.894 130.204ZM397.803 122.689V117.186C397.803 113.276 398.558 109.666 400.068 106.355C401.578 103.044 403.642 100.18 406.26 97.7656C408.877 95.3508 411.948 93.4609 415.475 92.0958C419.002 90.7312 422.773 90.0488 426.79 90.0488C427.394 90.0488 428.021 90.0591 428.671 90.0797C429.321 90.1002 429.948 90.1563 430.552 90.248C431.279 90.3558 431.826 90.7322 432.193 91.3773C432.56 92.0224 432.591 92.6834 432.284 93.3602C431.904 94.2396 431.613 95.0794 431.411 95.8796C431.208 96.6797 431.107 97.5526 431.107 98.4983C431.107 100.934 431.968 103.012 433.69 104.735C435.412 106.457 437.491 107.318 439.927 107.318H444.059C444.584 107.318 445.023 107.495 445.377 107.849C445.732 108.203 445.909 108.643 445.909 109.168C445.909 109.693 445.732 110.133 445.377 110.487C445.023 110.841 444.584 111.018 444.059 111.018H439.927C436.441 111.018 433.483 109.803 431.053 107.372C428.622 104.942 427.407 101.984 427.407 98.4983C427.407 97.7804 427.476 97.0158 427.613 96.2046C427.751 95.3934 427.933 94.6397 428.161 93.9436C424.66 94.652 421.809 96.3078 419.607 98.9109C417.406 101.514 416.305 104.53 416.305 107.959C416.305 109.818 416.577 111.507 417.121 113.025C417.665 114.543 418.416 116.001 419.375 117.399L420.627 116.607C421.032 116.326 421.449 116.185 421.879 116.185C422.31 116.185 422.727 116.326 423.132 116.607C424.125 117.281 425.245 117.844 426.491 118.296C427.737 118.748 428.967 118.974 430.182 118.974C431.397 118.974 432.627 118.74 433.873 118.272C435.119 117.804 436.239 117.241 437.232 116.583C437.637 116.327 438.048 116.197 438.466 116.192C438.883 116.187 439.294 116.313 439.699 116.569L441.198 117.542C441.651 117.788 442.117 118.017 442.598 118.227C443.078 118.438 443.565 118.604 444.059 118.728C444.584 118.886 445.023 119.146 445.377 119.508C445.732 119.87 445.909 120.314 445.909 120.839C445.909 121.364 445.718 121.799 445.335 122.146C444.952 122.492 444.506 122.612 443.997 122.504C443.083 122.324 442.164 122.047 441.238 121.674C440.313 121.301 439.383 120.839 438.446 120.289C437.067 121.143 435.696 121.764 434.331 122.153C432.966 122.542 431.583 122.736 430.182 122.736C428.765 122.736 427.313 122.507 425.825 122.049C424.336 121.59 423.034 121.003 421.918 120.289C420.58 121.101 419.243 121.706 417.909 122.103C416.574 122.5 415.156 122.711 413.653 122.736C412.135 122.762 410.705 122.565 409.362 122.146C408.019 121.727 406.695 121.131 405.389 120.36C404.177 121.068 402.934 121.618 401.66 122.008C400.385 122.399 399.1 122.626 397.803 122.689Z" fill="#1C1B1F"/>
</g>
<mask id="mask5_558_962" style="mask-type:alpha" maskUnits="userSpaceOnUse" x="12" y="231" width="60" height="61">
<rect x="12.334" y="231.899" width="59.2079" height="59.2079" fill="#D9D9D9"/>
</mask>
<g mask="url(#mask5_558_962)">
<path d="M41.9398 284.94C37.7714 284.94 34.3651 284.342 31.7209 283.147C29.0766 281.952 27.7545 280.407 27.7545 278.512C27.7545 277.762 28.0084 277.059 28.5162 276.401C29.0236 275.743 29.7454 275.15 30.6816 274.621C31.115 274.337 31.5878 274.24 32.1002 274.33C32.6125 274.42 33.0111 274.681 33.296 275.115C33.5806 275.548 33.6675 276.017 33.5569 276.522C33.4463 277.026 33.1743 277.421 32.741 277.705C32.4721 277.8 32.2151 277.919 31.97 278.061C31.7246 278.203 31.5782 278.346 31.5309 278.488C31.9388 279.225 33.1525 279.868 35.1722 280.416C37.1914 280.965 39.4473 281.24 41.9398 281.24C44.4322 281.24 46.6881 280.965 48.7073 280.416C50.727 279.868 51.9408 279.225 52.3486 278.488C52.3013 278.346 52.155 278.203 51.9095 278.061C51.6644 277.919 51.4075 277.8 51.1386 277.705C50.7052 277.421 50.4332 277.026 50.3226 276.522C50.212 276.017 50.299 275.548 50.5835 275.115C50.8684 274.681 51.2671 274.42 51.7794 274.33C52.2917 274.24 52.7645 274.337 53.1979 274.621C54.1341 275.15 54.8559 275.743 55.3633 276.401C55.8711 277.059 56.125 277.762 56.125 278.512C56.125 280.407 54.8029 281.952 52.1587 283.147C49.5145 284.342 46.1082 284.94 41.9398 284.94ZM41.9398 276.462C41.4936 276.462 41.0477 276.384 40.602 276.227C40.1559 276.071 39.7431 275.844 39.3636 275.547C34.8441 271.903 31.4711 268.348 29.2446 264.882C27.0177 261.415 25.9043 258.009 25.9043 254.663C25.9043 251.918 26.3891 249.512 27.3586 247.447C28.3281 245.382 29.5797 243.652 31.1134 242.259C32.6474 240.866 34.3673 239.819 36.2731 239.118C38.1784 238.418 40.0673 238.067 41.9398 238.067C43.8122 238.067 45.7011 238.418 47.6064 239.118C49.5122 239.819 51.2321 240.866 52.7662 242.259C54.2998 243.652 55.5514 245.382 56.5209 247.447C57.4905 249.512 57.9752 251.918 57.9752 254.663C57.9752 258.009 56.8618 261.415 54.6349 264.882C52.4085 268.348 49.0355 271.903 44.5159 275.547C44.1364 275.844 43.7236 276.071 43.2775 276.227C42.8318 276.384 42.3859 276.462 41.9398 276.462ZM41.9398 258.776C43.17 258.776 44.2207 258.344 45.092 257.481C45.9636 256.617 46.3995 255.562 46.3995 254.316C46.3995 253.086 45.9636 252.035 45.092 251.164C44.2207 250.292 43.17 249.857 41.9398 249.857C40.7252 249.857 39.6783 250.292 38.7993 251.164C37.9198 252.035 37.4801 253.086 37.4801 254.316C37.4801 255.562 37.9198 256.617 38.7993 257.481C39.6783 258.344 40.7252 258.776 41.9398 258.776Z" fill="#1C1B1F"/>
</g>
<mask id="mask6_558_962" style="mask-type:alpha" maskUnits="userSpaceOnUse" x="451" y="226" width="60" height="61">
<rect x="451.457" y="226.965" width="59.2079" height="59.2079" fill="#D9D9D9"/>
</mask>
<g mask="url(#mask6_558_962)">
<path d="M494.632 272.777V277.293C494.632 277.818 494.455 278.258 494.1 278.612C493.746 278.966 493.307 279.143 492.782 279.143C492.257 279.143 491.817 278.966 491.463 278.612C491.109 278.258 490.931 277.818 490.931 277.293V269.427C490.931 268.589 491.22 267.881 491.797 267.304C492.375 266.727 493.082 266.438 493.92 266.438H501.786C502.311 266.438 502.751 266.615 503.105 266.97C503.459 267.324 503.636 267.763 503.636 268.288C503.636 268.814 503.459 269.253 503.105 269.607C502.751 269.961 502.311 270.139 501.786 270.139H497.208L503.826 276.757C504.168 277.098 504.338 277.521 504.338 278.026C504.338 278.53 504.168 278.966 503.826 279.333C503.459 279.716 503.019 279.903 502.507 279.895C501.995 279.887 501.555 279.7 501.189 279.333L494.632 272.777ZM481.063 280.007C477.825 280.007 474.78 279.391 471.929 278.159C469.077 276.927 466.597 275.256 464.487 273.147C462.377 271.037 460.707 268.556 459.475 265.705C458.243 262.854 457.627 259.809 457.627 256.57C457.627 253.331 458.243 250.287 459.475 247.436C460.707 244.584 462.377 242.104 464.487 239.994C466.597 237.884 469.077 236.213 471.929 234.982C474.78 233.75 477.825 233.134 481.063 233.134C484.302 233.134 487.347 233.75 490.198 234.982C493.049 236.213 495.53 237.884 497.64 239.994C499.749 242.104 501.42 244.584 502.652 247.436C503.884 250.287 504.5 253.331 504.5 256.57C504.5 256.997 504.49 257.457 504.469 257.951C504.448 258.444 504.41 258.904 504.352 259.331C504.286 259.856 504.066 260.271 503.691 260.574C503.316 260.878 502.854 261.03 502.303 261.03C501.819 261.03 501.406 260.821 501.065 260.403C500.723 259.986 500.586 259.528 500.653 259.028C500.735 258.601 500.78 258.191 500.788 257.799C500.795 257.407 500.799 256.997 500.799 256.57C500.799 255.669 500.74 254.772 500.622 253.878C500.503 252.984 500.317 252.095 500.064 251.209H490.893C491.048 252.095 491.161 252.984 491.23 253.878C491.3 254.772 491.335 255.669 491.335 256.57C491.335 256.997 491.331 257.451 491.323 257.932C491.315 258.413 491.29 258.866 491.249 259.293C491.183 259.818 490.966 260.239 490.599 260.555C490.232 260.872 489.786 261.03 489.261 261.03C488.777 261.03 488.354 260.834 487.993 260.442C487.63 260.049 487.482 259.603 487.549 259.104C487.59 258.677 487.614 258.254 487.623 257.837C487.63 257.419 487.634 256.997 487.634 256.57C487.634 255.669 487.599 254.772 487.53 253.878C487.46 252.984 487.348 252.095 487.193 251.209H474.934C474.779 252.095 474.667 252.984 474.597 253.878C474.527 254.772 474.493 255.669 474.493 256.57C474.493 257.472 474.527 258.369 474.597 259.262C474.667 260.156 474.779 261.046 474.934 261.931H482.154C482.679 261.931 483.119 262.108 483.474 262.463C483.828 262.817 484.005 263.256 484.005 263.781C484.005 264.306 483.828 264.746 483.474 265.1C483.119 265.455 482.679 265.632 482.154 265.632H475.783C476.324 267.573 477.028 269.436 477.896 271.218C478.765 273 479.82 274.679 481.063 276.254C481.506 276.254 481.949 276.256 482.392 276.261C482.835 276.266 483.27 276.24 483.696 276.183C484.206 276.116 484.631 276.247 484.972 276.576C485.314 276.905 485.485 277.324 485.485 277.834C485.485 278.384 485.343 278.843 485.061 279.21C484.777 279.577 484.373 279.793 483.848 279.859C483.421 279.916 482.961 279.955 482.468 279.976C481.974 279.996 481.506 280.007 481.063 280.007ZM462.063 261.931H471.234C471.079 261.046 470.966 260.156 470.896 259.262C470.827 258.369 470.792 257.472 470.792 256.57C470.792 255.669 470.827 254.772 470.896 253.878C470.966 252.984 471.079 252.095 471.234 251.209H462.063C461.81 252.095 461.624 252.984 461.505 253.878C461.387 254.772 461.327 255.669 461.327 256.57C461.327 257.472 461.387 258.369 461.505 259.262C461.624 260.156 461.81 261.046 462.063 261.931ZM476.286 275.623C475.293 274.083 474.44 272.476 473.727 270.803C473.013 269.13 472.432 267.406 471.983 265.632H463.614C464.901 268.171 466.647 270.314 468.852 272.06C471.056 273.806 473.535 274.994 476.286 275.623ZM463.614 247.509H471.983C472.4 245.719 472.962 243.987 473.667 242.314C474.373 240.641 475.245 239.042 476.286 237.518C473.519 238.131 471.037 239.311 468.84 241.057C466.643 242.802 464.901 244.953 463.614 247.509ZM475.783 247.509H486.344C485.819 245.567 485.11 243.713 484.218 241.947C483.326 240.18 482.275 238.493 481.063 236.887C479.836 238.461 478.78 240.14 477.896 241.922C477.012 243.705 476.308 245.567 475.783 247.509ZM490.144 247.509H498.512C497.226 244.953 495.484 242.798 493.287 241.045C491.09 239.291 488.608 238.115 485.841 237.518C486.834 239.058 487.675 240.668 488.364 242.349C489.054 244.031 489.647 245.75 490.144 247.509Z" fill="#1C1B1F"/>
</g>
<g filter="url(#filter0_f_558_962)">
<circle cx="260.267" cy="260.271" r="53.0404" fill="#F03C3F"/>
</g>
<circle cx="260.266" cy="260.269" r="65.3753" fill="#F03C3F"/>
<mask id="mask7_558_962" style="mask-type:alpha" maskUnits="userSpaceOnUse" x="207" y="207" width="109" height="109">
<rect x="207.227" y="207.23" width="108.548" height="108.548" fill="#D9D9D9"/>
</mask>
<g mask="url(#mask7_558_962)">
<path d="M250.193 268.721V254.284C250.193 253.126 250.585 252.155 251.369 251.372C252.152 250.588 253.123 250.196 254.282 250.196H268.718C269.877 250.196 270.848 250.588 271.631 251.372C272.415 252.155 272.807 253.126 272.807 254.284V268.721C272.807 269.88 272.415 270.851 271.631 271.634C270.848 272.418 269.877 272.81 268.718 272.81H254.282C253.123 272.81 252.152 272.418 251.369 271.634C250.585 270.851 250.193 269.88 250.193 268.721ZM249.062 295.511V290.901H240.278C237.993 290.901 236.059 290.11 234.476 288.527C232.893 286.944 232.102 285.01 232.102 282.725V273.941H227.492C226.531 273.941 225.725 273.615 225.075 272.965C224.425 272.314 224.1 271.509 224.1 270.547C224.1 269.586 224.425 268.78 225.075 268.131C225.725 267.481 226.531 267.156 227.492 267.156H232.102V255.849H227.492C226.531 255.849 225.725 255.524 225.075 254.874C224.425 254.223 224.1 253.417 224.1 252.456C224.1 251.494 224.425 250.689 225.075 250.04C225.725 249.39 226.531 249.065 227.492 249.065H232.102V240.281C232.102 237.996 232.893 236.062 234.476 234.479C236.059 232.896 237.993 232.105 240.278 232.105H249.062V227.495C249.062 226.534 249.387 225.728 250.038 225.078C250.689 224.428 251.494 224.103 252.455 224.103C253.417 224.103 254.223 224.428 254.872 225.078C255.522 225.728 255.846 226.534 255.846 227.495V232.105H267.153V227.495C267.153 226.534 267.479 225.728 268.129 225.078C268.78 224.428 269.586 224.103 270.547 224.103C271.509 224.103 272.314 224.428 272.963 225.078C273.613 225.728 273.938 226.534 273.938 227.495V232.105H282.722C285.007 232.105 286.941 232.896 288.524 234.479C290.107 236.062 290.898 237.996 290.898 240.281V249.065H295.508C296.469 249.065 297.275 249.39 297.925 250.041C298.575 250.691 298.9 251.497 298.9 252.458C298.9 253.42 298.575 254.226 297.925 254.875C297.275 255.524 296.469 255.849 295.508 255.849H290.898V267.156H295.508C296.469 267.156 297.275 267.482 297.925 268.132C298.575 268.783 298.9 269.589 298.9 270.55C298.9 271.512 298.575 272.317 297.925 272.966C297.275 273.616 296.469 273.941 295.508 273.941H290.898V282.725C290.898 285.01 290.107 286.944 288.524 288.527C286.941 290.11 285.007 290.901 282.722 290.901H273.938V295.511C273.938 296.472 273.612 297.278 272.962 297.927C272.311 298.578 271.506 298.903 270.544 298.903C269.583 298.903 268.777 298.578 268.128 297.927C267.478 297.278 267.153 296.472 267.153 295.511V290.901H255.846V295.511C255.846 296.472 255.521 297.278 254.871 297.927C254.22 298.578 253.414 298.903 252.453 298.903C251.491 298.903 250.686 298.578 250.037 297.927C249.387 297.278 249.062 296.472 249.062 295.511ZM282.722 284.117C283.07 284.117 283.389 283.972 283.679 283.682C283.969 283.392 284.114 283.073 284.114 282.725V240.281C284.114 239.932 283.969 239.614 283.679 239.324C283.389 239.034 283.07 238.889 282.722 238.889H240.278C239.929 238.889 239.611 239.034 239.321 239.324C239.031 239.614 238.886 239.932 238.886 240.281V282.725C238.886 283.073 239.031 283.392 239.321 283.682C239.611 283.972 239.929 284.117 240.278 284.117H282.722Z" fill="white"/>
</g>
<defs>
<filter id="filter0_f_558_962" x="143.085" y="143.089" width="234.364" height="234.365" filterUnits="userSpaceOnUse" color-interpolation-filters="sRGB">
<feFlood flood-opacity="0" result="BackgroundImageFix"/>
<feBlend mode="normal" in="SourceGraphic" in2="BackgroundImageFix" result="shape"/>
<feGaussianBlur stdDeviation="32.0709" result="effect1_foregroundBlur_558_962"/>
</filter>
</defs>
</svg>
